G04*
G04 #@! TF.GenerationSoftware,Altium Limited,Altium Designer,25.8.1 (18)*
G04*
G04 Layer_Physical_Order=2*
G04 Layer_Color=16711680*
%FSLAX44Y44*%
%MOMM*%
G71*
G04*
G04 #@! TF.SameCoordinates,12DB3855-E36A-4628-87B7-A21181006D5C*
G04*
G04*
G04 #@! TF.FilePolarity,Positive*
G04*
G01*
G75*
%ADD11C,0.2500*%
%ADD112C,0.6000*%
%ADD113C,1.0000*%
%ADD125C,4.0000*%
%ADD126O,1.6510X1.9050*%
%ADD127C,0.3000*%
%ADD128R,2.2860X1.6510*%
%ADD129O,2.2860X1.6510*%
%ADD130O,1.5240X2.1844*%
%ADD131O,1.6510X2.2860*%
%ADD132R,1.6510X2.2860*%
%ADD133O,1.6510X2.1590*%
%ADD134C,3.0000*%
%ADD135O,2.1590X1.5240*%
%ADD136O,2.2000X1.0000*%
%ADD137O,1.8000X1.0000*%
%ADD138R,1.6510X2.1590*%
%ADD139C,0.5500*%
%ADD140C,1.2700*%
%ADD141C,0.5000*%
G36*
X801370Y473724D02*
X799370Y473326D01*
X799194Y473750D01*
X798072Y475213D01*
X796610Y476334D01*
X794907Y477040D01*
X793080Y477280D01*
X781080D01*
X779253Y477040D01*
X777550Y476334D01*
X776087Y475213D01*
X774966Y473750D01*
X774260Y472047D01*
X774020Y470220D01*
X774260Y468393D01*
X774966Y466690D01*
X776087Y465228D01*
X777550Y464106D01*
X779253Y463400D01*
X781080Y463160D01*
X793080D01*
X794907Y463400D01*
X796610Y464106D01*
X798072Y465228D01*
X799194Y466690D01*
X799370Y467114D01*
X801370Y466716D01*
Y361324D01*
X799370Y360926D01*
X799194Y361350D01*
X798072Y362812D01*
X796610Y363934D01*
X794907Y364640D01*
X793080Y364880D01*
X781080D01*
X779253Y364640D01*
X777550Y363934D01*
X776087Y362812D01*
X774966Y361350D01*
X774260Y359647D01*
X774020Y357820D01*
X774260Y355993D01*
X774966Y354290D01*
X776087Y352827D01*
X777550Y351706D01*
X779253Y351000D01*
X781080Y350760D01*
X793080D01*
X794907Y351000D01*
X796610Y351706D01*
X798072Y352827D01*
X799194Y354290D01*
X799370Y354714D01*
X801370Y354316D01*
Y2540D01*
X2540D01*
Y601980D01*
X801370D01*
Y473724D01*
D02*
G37*
%LPC*%
G36*
X455930Y585052D02*
X288432D01*
X286605Y584812D01*
X284902Y584106D01*
X283440Y582985D01*
X266315Y565860D01*
X250285D01*
Y571595D01*
X229775D01*
Y546005D01*
X250285D01*
Y551740D01*
X269240D01*
X271067Y551980D01*
X272770Y552686D01*
X274232Y553808D01*
X291357Y570932D01*
X326434D01*
X327420Y568932D01*
X326877Y568223D01*
X325908Y565883D01*
X325577Y563372D01*
Y556768D01*
X325908Y554257D01*
X326877Y551917D01*
X328419Y549907D01*
X330280Y548479D01*
X330421Y547370D01*
X330280Y546261D01*
X328419Y544833D01*
X326877Y542823D01*
X325908Y540483D01*
X325577Y537972D01*
Y531368D01*
X325776Y529853D01*
X314106Y518182D01*
X313388Y517107D01*
X313135Y515839D01*
Y444127D01*
X306254Y437246D01*
X304411Y438231D01*
X304465Y438506D01*
Y506374D01*
X304213Y507642D01*
X303495Y508717D01*
X302030Y510181D01*
X300955Y510900D01*
X299687Y511152D01*
X217944D01*
Y546533D01*
X219802Y547302D01*
X221944Y548946D01*
X223588Y551088D01*
X224621Y553583D01*
X224974Y556260D01*
Y561340D01*
X224621Y564017D01*
X223588Y566512D01*
X221944Y568654D01*
X219802Y570298D01*
X217307Y571331D01*
X214630Y571684D01*
X211953Y571331D01*
X209458Y570298D01*
X207316Y568654D01*
X205672Y566512D01*
X204639Y564017D01*
X204286Y561340D01*
Y556260D01*
X204639Y553583D01*
X205672Y551088D01*
X207316Y548946D01*
X209458Y547302D01*
X211316Y546533D01*
Y509303D01*
X211569Y508035D01*
X212287Y506960D01*
X213751Y505495D01*
X214826Y504777D01*
X216094Y504525D01*
X297838D01*
Y457139D01*
X295838Y456310D01*
X295519Y456630D01*
X294444Y457348D01*
X293176Y457600D01*
X147514D01*
X146327Y457364D01*
X146167Y457469D01*
X145149Y459014D01*
X156594Y470460D01*
X190385D01*
X194667Y466178D01*
X196129Y465056D01*
X197832Y464350D01*
X199660Y464110D01*
X235559D01*
X236807Y463389D01*
X238931Y462820D01*
X241129D01*
X243253Y463389D01*
X245157Y464488D01*
X246712Y466043D01*
X247811Y467947D01*
X248380Y470071D01*
Y472269D01*
X247811Y474393D01*
X246712Y476297D01*
X245157Y477852D01*
X243253Y478951D01*
X241129Y479520D01*
X238931D01*
X236807Y478951D01*
X235559Y478230D01*
X202584D01*
X198302Y482512D01*
X196840Y483634D01*
X195137Y484340D01*
X193310Y484580D01*
X153670D01*
X151843Y484340D01*
X150140Y483634D01*
X148678Y482512D01*
X128358Y462192D01*
X127235Y460730D01*
X127234Y460726D01*
X125234Y461124D01*
Y549910D01*
X124981Y551178D01*
X124263Y552253D01*
X122995Y553521D01*
X123021Y553583D01*
X123373Y556260D01*
Y561340D01*
X123021Y564017D01*
X121988Y566512D01*
X120344Y568654D01*
X118202Y570298D01*
X115707Y571331D01*
X113030Y571684D01*
X110353Y571331D01*
X107858Y570298D01*
X105716Y568654D01*
X104072Y566512D01*
X103039Y564017D01*
X102687Y561340D01*
Y556260D01*
X103039Y553583D01*
X104072Y551088D01*
X105716Y548946D01*
X107858Y547302D01*
X110353Y546269D01*
X113030Y545916D01*
X115707Y546269D01*
X116606Y546642D01*
X118606Y545305D01*
Y359635D01*
X118427Y359236D01*
X116986Y357838D01*
X116885Y357810D01*
X115895D01*
X114149Y357087D01*
X112813Y355751D01*
X112090Y354005D01*
Y352115D01*
X112813Y350369D01*
X114149Y349033D01*
X115895Y348310D01*
X116104D01*
X118606Y345807D01*
Y319532D01*
X118859Y318264D01*
X119577Y317189D01*
X128504Y308261D01*
X129579Y307543D01*
X130848Y307291D01*
X276307D01*
X277418Y305628D01*
X277385Y305549D01*
Y303660D01*
X278109Y301914D01*
X279445Y300578D01*
X281190Y299855D01*
X282199D01*
X285507Y296546D01*
X285508Y296546D01*
X292297Y289757D01*
X293372Y289039D01*
X294640Y288786D01*
X534567D01*
X611200Y212154D01*
Y211145D01*
X611923Y209399D01*
X613259Y208063D01*
X615005Y207340D01*
X616895D01*
X618641Y208063D01*
X619977Y209399D01*
X620700Y211145D01*
Y213035D01*
X619977Y214781D01*
X618641Y216117D01*
X616895Y216840D01*
X615886D01*
X538283Y294443D01*
X537208Y295161D01*
X535940Y295414D01*
X296013D01*
X290194Y301233D01*
X290193Y301233D01*
X286885Y304541D01*
Y305549D01*
X286853Y305628D01*
X287964Y307291D01*
X356325D01*
X357593Y307543D01*
X358668Y308261D01*
X365696Y315290D01*
X366705D01*
X368451Y316013D01*
X369787Y317349D01*
X370510Y319095D01*
Y320985D01*
X369787Y322731D01*
X368451Y324067D01*
X366705Y324790D01*
X364815D01*
X363069Y324067D01*
X361733Y322731D01*
X361010Y320985D01*
Y319976D01*
X354952Y313918D01*
X132220D01*
X125234Y320905D01*
Y347180D01*
X124981Y348448D01*
X124263Y349523D01*
X123100Y350686D01*
X123105Y350710D01*
X125275Y351369D01*
X148787Y327857D01*
X149862Y327139D01*
X151130Y326886D01*
X244246D01*
X244959Y326173D01*
X246705Y325450D01*
X248595D01*
X250341Y326173D01*
X251677Y327509D01*
X252400Y329255D01*
Y331145D01*
X251677Y332891D01*
X250341Y334227D01*
X248595Y334950D01*
X246705D01*
X244959Y334227D01*
X244246Y333514D01*
X152503D01*
X150502Y335514D01*
X151730Y337115D01*
X152987Y336389D01*
X155111Y335820D01*
X157309D01*
X159433Y336389D01*
X160681Y337110D01*
X225399D01*
X226647Y336389D01*
X228771Y335820D01*
X230969D01*
X233093Y336389D01*
X234997Y337488D01*
X236552Y339043D01*
X237651Y340947D01*
X238220Y343071D01*
Y345269D01*
X237651Y347393D01*
X236552Y349297D01*
X234997Y350852D01*
X233093Y351951D01*
X230969Y352520D01*
X228771D01*
X226647Y351951D01*
X225399Y351230D01*
X160681D01*
X159433Y351951D01*
X157309Y352520D01*
X156163D01*
X140626Y368057D01*
X140757Y370129D01*
X142410Y371234D01*
X142565Y371170D01*
X144455D01*
X146201Y371893D01*
X147537Y373229D01*
X148260Y374975D01*
Y376865D01*
X147537Y378611D01*
X146824Y379324D01*
Y448910D01*
X148887Y450973D01*
X291326D01*
Y447904D01*
X290613Y447191D01*
X289890Y445445D01*
Y443555D01*
X290387Y442355D01*
X289664Y440805D01*
X289239Y440355D01*
X179265D01*
X177996Y440103D01*
X176921Y439385D01*
X175457Y437920D01*
X174739Y436845D01*
X174486Y435577D01*
Y381062D01*
X173773Y380349D01*
X173050Y378603D01*
Y376713D01*
X173773Y374967D01*
X175109Y373631D01*
X176855Y372908D01*
X178745D01*
X180491Y373631D01*
X181827Y374967D01*
X182550Y376713D01*
Y378603D01*
X181827Y380349D01*
X181114Y381062D01*
Y433728D01*
X286271D01*
X287383Y432065D01*
X287350Y431987D01*
Y430097D01*
X288073Y428351D01*
X288786Y427638D01*
Y383439D01*
X287217Y381870D01*
X286499Y380795D01*
X286246Y379526D01*
Y331875D01*
X286499Y330607D01*
X287217Y329532D01*
X293972Y322777D01*
X295047Y322059D01*
X296315Y321806D01*
X309016D01*
X309729Y321093D01*
X311475Y320370D01*
X313365D01*
X315111Y321093D01*
X316447Y322429D01*
X317170Y324175D01*
Y326065D01*
X316447Y327811D01*
X315111Y329147D01*
X313365Y329870D01*
X311475D01*
X309729Y329147D01*
X307855Y330101D01*
X307716Y330434D01*
X308280Y331795D01*
Y333685D01*
X307557Y335431D01*
X306221Y336767D01*
X304475Y337490D01*
X304304D01*
Y425923D01*
X318792Y440411D01*
X319510Y441487D01*
X319763Y442755D01*
Y445981D01*
X321635Y447370D01*
X323525D01*
X325271Y448093D01*
X326607Y449429D01*
X327330Y451175D01*
Y453065D01*
X326607Y454811D01*
X325894Y455524D01*
Y467257D01*
X356973Y498336D01*
X500380D01*
X501648Y498589D01*
X502723Y499307D01*
X508819Y505403D01*
X509537Y506478D01*
X509790Y507746D01*
Y521566D01*
X511328Y522203D01*
X513337Y523745D01*
X514879Y525755D01*
X515848Y528095D01*
X516179Y530606D01*
Y537210D01*
X515848Y539721D01*
X514879Y542062D01*
X513337Y544071D01*
X511328Y545613D01*
X511359Y547765D01*
X511581Y547857D01*
X513591Y549399D01*
X515133Y551409D01*
X516102Y553749D01*
X516433Y556260D01*
Y562864D01*
X516102Y565375D01*
X515133Y567715D01*
X514200Y568932D01*
X515186Y570932D01*
X523674D01*
X524660Y568932D01*
X523727Y567715D01*
X522758Y565375D01*
X522427Y562864D01*
Y556260D01*
X522758Y553749D01*
X523727Y551409D01*
X525269Y549399D01*
X527279Y547857D01*
X527247Y545705D01*
X527024Y545613D01*
X525015Y544071D01*
X523473Y542062D01*
X522504Y539721D01*
X522173Y537210D01*
Y530606D01*
X522504Y528095D01*
X523473Y525755D01*
X525015Y523745D01*
X527024Y522203D01*
X528126Y521747D01*
Y478513D01*
X528379Y477245D01*
X529097Y476170D01*
X542786Y462480D01*
Y430498D01*
X540786Y429861D01*
X539901Y430747D01*
X538155Y431470D01*
X537146D01*
X530049Y438567D01*
Y443140D01*
X529797Y444408D01*
X529079Y445483D01*
X513748Y460813D01*
X512673Y461531D01*
X511405Y461784D01*
X466090D01*
X464822Y461531D01*
X463747Y460813D01*
X431698Y428764D01*
X425044D01*
X424331Y429477D01*
X422585Y430200D01*
X420695D01*
X418949Y429477D01*
X417613Y428141D01*
X417595Y428096D01*
X415633Y427706D01*
X405148Y438191D01*
Y465742D01*
X405177Y465758D01*
X406732Y467313D01*
X407831Y469217D01*
X408400Y471341D01*
Y473539D01*
X407831Y475663D01*
X406732Y477567D01*
X405177Y479122D01*
X403273Y480221D01*
X401149Y480790D01*
X398951D01*
X396827Y480221D01*
X394923Y479122D01*
X393368Y477567D01*
X392269Y475663D01*
X391700Y473539D01*
Y471341D01*
X392269Y469217D01*
X393368Y467313D01*
X394923Y465758D01*
X394952Y465742D01*
Y436080D01*
X395340Y434129D01*
X396445Y432475D01*
X414825Y414095D01*
X415007Y413974D01*
X414400Y411974D01*
X392883D01*
X383044Y421813D01*
Y451256D01*
X383757Y451969D01*
X384480Y453715D01*
Y455605D01*
X383757Y457351D01*
X382421Y458687D01*
X380675Y459410D01*
X378785D01*
X377039Y458687D01*
X375703Y457351D01*
X374980Y455605D01*
Y453715D01*
X375703Y451969D01*
X376416Y451256D01*
Y420440D01*
X376669Y419172D01*
X377387Y418097D01*
X389167Y406317D01*
X390242Y405599D01*
X391510Y405346D01*
X427474D01*
X427872Y403346D01*
X426569Y402807D01*
X425233Y401471D01*
X424510Y399725D01*
Y397904D01*
X423107Y396501D01*
X422389Y395426D01*
X422136Y394158D01*
Y367030D01*
X422389Y365762D01*
X423107Y364687D01*
X453587Y334207D01*
X454662Y333489D01*
X455930Y333236D01*
X594106D01*
X595374Y333489D01*
X596449Y334207D01*
X677996Y415754D01*
X679005D01*
X680751Y416477D01*
X682087Y417813D01*
X682810Y419559D01*
Y421449D01*
X682087Y423195D01*
X680751Y424531D01*
X679005Y425254D01*
X677115D01*
X675369Y424531D01*
X674033Y423195D01*
X673310Y421449D01*
Y420440D01*
X592733Y339864D01*
X582031D01*
X581847Y340206D01*
X581510Y341864D01*
X583259Y343206D01*
X584903Y345348D01*
X585936Y347843D01*
X586288Y350520D01*
X585936Y353197D01*
X584903Y355692D01*
X583259Y357834D01*
X581117Y359478D01*
X578622Y360511D01*
X575945Y360863D01*
X569595D01*
X566918Y360511D01*
X564423Y359478D01*
X562281Y357834D01*
X560637Y355692D01*
X559868Y353834D01*
X548489D01*
X515152Y387170D01*
X515381Y388121D01*
X516034Y389116D01*
X533870D01*
X535138Y389369D01*
X536213Y390087D01*
X548443Y402317D01*
X549161Y403392D01*
X549414Y404660D01*
Y463853D01*
X549161Y465121D01*
X548443Y466196D01*
X534754Y479885D01*
Y521385D01*
X536727Y522203D01*
X538737Y523745D01*
X540279Y525755D01*
X541248Y528095D01*
X541579Y530606D01*
Y537210D01*
X541248Y539721D01*
X540279Y542062D01*
X538737Y544071D01*
X536727Y545613D01*
X536759Y547765D01*
X536982Y547857D01*
X538991Y549399D01*
X540533Y551409D01*
X541502Y553749D01*
X541833Y556260D01*
Y562864D01*
X541502Y565375D01*
X540533Y567715D01*
X539600Y568932D01*
X540586Y570932D01*
X564543D01*
X566265Y569210D01*
Y562055D01*
X566325Y561596D01*
Y546005D01*
X569520D01*
Y462375D01*
X559340D01*
Y441865D01*
X586200D01*
Y462375D01*
X583640D01*
Y546005D01*
X586835D01*
Y571595D01*
X580385D01*
Y572134D01*
X580145Y573961D01*
X579440Y575664D01*
X578317Y577127D01*
X572460Y582984D01*
X570997Y584106D01*
X569295Y584812D01*
X567467Y585052D01*
X455930D01*
X455930Y585052D01*
D02*
G37*
G36*
X703580Y571684D02*
X700903Y571331D01*
X698408Y570298D01*
X696266Y568654D01*
X694622Y566512D01*
X693589Y564017D01*
X693236Y561340D01*
Y556260D01*
X693589Y553583D01*
X694622Y551088D01*
X696266Y548946D01*
X698408Y547302D01*
X700903Y546269D01*
X703580Y545916D01*
X706257Y546269D01*
X708752Y547302D01*
X710894Y548946D01*
X712538Y551088D01*
X713571Y553583D01*
X713923Y556260D01*
Y561340D01*
X713571Y564017D01*
X712538Y566512D01*
X710894Y568654D01*
X708752Y570298D01*
X706257Y571331D01*
X703580Y571684D01*
D02*
G37*
G36*
X678180D02*
X675503Y571331D01*
X673008Y570298D01*
X670866Y568654D01*
X669222Y566512D01*
X668189Y564017D01*
X667837Y561340D01*
Y556260D01*
X668189Y553583D01*
X669222Y551088D01*
X670866Y548946D01*
X673008Y547302D01*
X675503Y546269D01*
X678180Y545916D01*
X680857Y546269D01*
X683352Y547302D01*
X685494Y548946D01*
X687138Y551088D01*
X688171Y553583D01*
X688523Y556260D01*
Y561340D01*
X688171Y564017D01*
X687138Y566512D01*
X685494Y568654D01*
X683352Y570298D01*
X680857Y571331D01*
X678180Y571684D01*
D02*
G37*
G36*
X652780D02*
X650103Y571331D01*
X647608Y570298D01*
X645466Y568654D01*
X643822Y566512D01*
X642789Y564017D01*
X642437Y561340D01*
Y556260D01*
X642789Y553583D01*
X643822Y551088D01*
X645466Y548946D01*
X647608Y547302D01*
X650103Y546269D01*
X652780Y545916D01*
X655457Y546269D01*
X657952Y547302D01*
X660094Y548946D01*
X661738Y551088D01*
X662771Y553583D01*
X663123Y556260D01*
Y561340D01*
X662771Y564017D01*
X661738Y566512D01*
X660094Y568654D01*
X657952Y570298D01*
X655457Y571331D01*
X652780Y571684D01*
D02*
G37*
G36*
X189230D02*
X186553Y571331D01*
X184058Y570298D01*
X181916Y568654D01*
X180272Y566512D01*
X179239Y564017D01*
X178887Y561340D01*
Y556260D01*
X179239Y553583D01*
X180272Y551088D01*
X181916Y548946D01*
X184058Y547302D01*
X186553Y546269D01*
X189230Y545916D01*
X191907Y546269D01*
X194402Y547302D01*
X196544Y548946D01*
X198188Y551088D01*
X199221Y553583D01*
X199573Y556260D01*
Y561340D01*
X199221Y564017D01*
X198188Y566512D01*
X196544Y568654D01*
X194402Y570298D01*
X191907Y571331D01*
X189230Y571684D01*
D02*
G37*
G36*
X163830D02*
X161153Y571331D01*
X158658Y570298D01*
X156516Y568654D01*
X154872Y566512D01*
X153839Y564017D01*
X153486Y561340D01*
Y556260D01*
X153839Y553583D01*
X154872Y551088D01*
X156516Y548946D01*
X158658Y547302D01*
X161153Y546269D01*
X163830Y545916D01*
X166507Y546269D01*
X169002Y547302D01*
X171144Y548946D01*
X172788Y551088D01*
X173821Y553583D01*
X174174Y556260D01*
Y561340D01*
X173821Y564017D01*
X172788Y566512D01*
X171144Y568654D01*
X169002Y570298D01*
X166507Y571331D01*
X163830Y571684D01*
D02*
G37*
G36*
X138430D02*
X135753Y571331D01*
X133258Y570298D01*
X131116Y568654D01*
X129472Y566512D01*
X128439Y564017D01*
X128087Y561340D01*
Y556260D01*
X128439Y553583D01*
X129472Y551088D01*
X131116Y548946D01*
X133258Y547302D01*
X135753Y546269D01*
X138430Y545916D01*
X141107Y546269D01*
X143602Y547302D01*
X145744Y548946D01*
X147388Y551088D01*
X148421Y553583D01*
X148773Y556260D01*
Y561340D01*
X148421Y564017D01*
X147388Y566512D01*
X145744Y568654D01*
X143602Y570298D01*
X141107Y571331D01*
X138430Y571684D01*
D02*
G37*
G36*
X56777Y582070D02*
X52443D01*
X48193Y581225D01*
X44189Y579566D01*
X40586Y577159D01*
X37522Y574094D01*
X35114Y570491D01*
X33456Y566487D01*
X32610Y562237D01*
Y557903D01*
X33456Y553653D01*
X35114Y549649D01*
X37522Y546046D01*
X40586Y542981D01*
X44189Y540574D01*
X48193Y538915D01*
X52443Y538070D01*
X56777D01*
X61027Y538915D01*
X65031Y540574D01*
X68634Y542981D01*
X71698Y546046D01*
X74106Y549649D01*
X75764Y553653D01*
X76610Y557903D01*
Y562237D01*
X75764Y566487D01*
X74106Y570491D01*
X71698Y574094D01*
X68634Y577159D01*
X65031Y579566D01*
X61027Y581225D01*
X56777Y582070D01*
D02*
G37*
G36*
X755277Y578260D02*
X750943D01*
X746693Y577415D01*
X742689Y575756D01*
X739086Y573349D01*
X736021Y570284D01*
X733614Y566681D01*
X731955Y562677D01*
X731110Y558427D01*
Y554093D01*
X731955Y549843D01*
X733614Y545839D01*
X736021Y542236D01*
X739086Y539171D01*
X742689Y536764D01*
X746693Y535106D01*
X750943Y534260D01*
X755277D01*
X759527Y535106D01*
X763531Y536764D01*
X767134Y539171D01*
X770199Y542236D01*
X772606Y545839D01*
X774265Y549843D01*
X775110Y554093D01*
Y558427D01*
X774265Y562677D01*
X772606Y566681D01*
X770199Y570284D01*
X767134Y573349D01*
X763531Y575756D01*
X759527Y577415D01*
X755277Y578260D01*
D02*
G37*
G36*
X627380Y571684D02*
X624703Y571331D01*
X622208Y570298D01*
X620066Y568654D01*
X618422Y566512D01*
X617389Y564017D01*
X617037Y561340D01*
Y556260D01*
X617389Y553583D01*
X618422Y551088D01*
X620066Y548946D01*
X622208Y547302D01*
X624066Y546533D01*
Y494894D01*
X623353Y494181D01*
X622630Y492435D01*
Y490545D01*
X623353Y488799D01*
X624689Y487463D01*
X626435Y486740D01*
X628325D01*
X630071Y487463D01*
X631407Y488799D01*
X632130Y490545D01*
Y492435D01*
X631407Y494181D01*
X630694Y494894D01*
Y546533D01*
X632552Y547302D01*
X634694Y548946D01*
X636338Y551088D01*
X637371Y553583D01*
X637724Y556260D01*
Y561340D01*
X637371Y564017D01*
X636338Y566512D01*
X634694Y568654D01*
X632552Y570298D01*
X630057Y571331D01*
X627380Y571684D01*
D02*
G37*
G36*
X602234Y565606D02*
X600407Y565366D01*
X598704Y564660D01*
X597242Y563538D01*
X596988Y563284D01*
X595866Y561822D01*
X595160Y560119D01*
X594920Y558292D01*
Y494030D01*
X595160Y492203D01*
X595866Y490500D01*
X596988Y489038D01*
X612228Y473798D01*
X613690Y472676D01*
X615393Y471970D01*
X617220Y471730D01*
X619047Y471970D01*
X620750Y472676D01*
X622212Y473798D01*
X623335Y475260D01*
X624040Y476963D01*
X624280Y478790D01*
X624040Y480617D01*
X623335Y482320D01*
X622212Y483782D01*
X609040Y496954D01*
Y556686D01*
X609054Y556719D01*
X609294Y558546D01*
X609054Y560373D01*
X608349Y562076D01*
X607226Y563538D01*
X605764Y564660D01*
X604061Y565366D01*
X602234Y565606D01*
D02*
G37*
G36*
X751080Y477280D02*
X743080D01*
X741253Y477040D01*
X739550Y476334D01*
X738088Y475213D01*
X736966Y473750D01*
X736260Y472047D01*
X736020Y470220D01*
X736260Y468393D01*
X736966Y466690D01*
X738088Y465228D01*
X739550Y464106D01*
X741253Y463400D01*
X743080Y463160D01*
X751080D01*
X752907Y463400D01*
X754610Y464106D01*
X756072Y465228D01*
X757195Y466690D01*
X757900Y468393D01*
X758140Y470220D01*
X757900Y472047D01*
X757195Y473750D01*
X756072Y475213D01*
X754610Y476334D01*
X752907Y477040D01*
X751080Y477280D01*
D02*
G37*
G36*
X41739Y443960D02*
X39541D01*
X37417Y443391D01*
X35513Y442292D01*
X33958Y440737D01*
X32859Y438833D01*
X32290Y436709D01*
Y434511D01*
X32859Y432387D01*
X33958Y430483D01*
X35513Y428928D01*
X37417Y427829D01*
X39541Y427260D01*
X41739D01*
X43863Y427829D01*
X45767Y428928D01*
X47322Y430483D01*
X47338Y430512D01*
X66462D01*
X67509Y429465D01*
X69163Y428360D01*
X71114Y427972D01*
X93632D01*
X93648Y427943D01*
X95203Y426388D01*
X97107Y425289D01*
X99231Y424720D01*
X101429D01*
X103553Y425289D01*
X105457Y426388D01*
X107012Y427943D01*
X108111Y429847D01*
X108680Y431971D01*
Y434169D01*
X108111Y436293D01*
X107012Y438197D01*
X105457Y439752D01*
X103553Y440851D01*
X101429Y441420D01*
X99231D01*
X97107Y440851D01*
X95203Y439752D01*
X93648Y438197D01*
X93632Y438168D01*
X73226D01*
X72179Y439215D01*
X70525Y440320D01*
X68574Y440708D01*
X47338D01*
X47322Y440737D01*
X45767Y442292D01*
X43863Y443391D01*
X41739Y443960D01*
D02*
G37*
G36*
X575945Y437063D02*
X569595D01*
X566918Y436711D01*
X564423Y435678D01*
X562281Y434034D01*
X560637Y431892D01*
X559604Y429397D01*
X559252Y426720D01*
X559604Y424043D01*
X560637Y421548D01*
X562281Y419406D01*
X564423Y417762D01*
X566918Y416729D01*
X569595Y416376D01*
X575945D01*
X578622Y416729D01*
X581117Y417762D01*
X583259Y419406D01*
X584903Y421548D01*
X585936Y424043D01*
X586288Y426720D01*
X585936Y429397D01*
X584903Y431892D01*
X583259Y434034D01*
X581117Y435678D01*
X578622Y436711D01*
X575945Y437063D01*
D02*
G37*
G36*
Y411664D02*
X569595D01*
X566918Y411311D01*
X564423Y410278D01*
X562281Y408634D01*
X560637Y406492D01*
X559604Y403997D01*
X559252Y401320D01*
X559604Y398643D01*
X560637Y396148D01*
X562281Y394006D01*
X564423Y392362D01*
X566918Y391329D01*
X569595Y390976D01*
X575945D01*
X578622Y391329D01*
X581117Y392362D01*
X583259Y394006D01*
X584903Y396148D01*
X585936Y398643D01*
X586288Y401320D01*
X585936Y403997D01*
X584903Y406492D01*
X583259Y408634D01*
X581117Y410278D01*
X578622Y411311D01*
X575945Y411664D01*
D02*
G37*
G36*
X226060Y365778D02*
X182880D01*
X180929Y365390D01*
X179275Y364285D01*
X178170Y362631D01*
X177782Y360680D01*
X178170Y358729D01*
X179275Y357075D01*
X180929Y355970D01*
X182880Y355582D01*
X226060D01*
X228011Y355970D01*
X229665Y357075D01*
X230770Y358729D01*
X231158Y360680D01*
X230770Y362631D01*
X229665Y364285D01*
X228011Y365390D01*
X226060Y365778D01*
D02*
G37*
G36*
X751080Y364880D02*
X743080D01*
X741253Y364640D01*
X739550Y363934D01*
X738088Y362812D01*
X736966Y361350D01*
X736260Y359647D01*
X736020Y357820D01*
X736260Y355993D01*
X736966Y354290D01*
X738088Y352827D01*
X739550Y351706D01*
X741253Y351000D01*
X743080Y350760D01*
X751080D01*
X752907Y351000D01*
X754610Y351706D01*
X756072Y352827D01*
X757195Y354290D01*
X757900Y355993D01*
X758140Y357820D01*
X757900Y359647D01*
X757195Y361350D01*
X756072Y362812D01*
X754610Y363934D01*
X752907Y364640D01*
X751080Y364880D01*
D02*
G37*
G36*
X768754Y337040D02*
X765406D01*
X762121Y336387D01*
X759027Y335105D01*
X756243Y333245D01*
X754344Y331346D01*
X752646Y331868D01*
X752518Y331890D01*
X752397Y331940D01*
X751611Y332043D01*
X750829Y332176D01*
X750699Y332163D01*
X750570Y332180D01*
X749783Y332077D01*
X748994Y332002D01*
X748872Y331957D01*
X748743Y331940D01*
X748010Y331636D01*
X747266Y331360D01*
X747160Y331284D01*
X747040Y331235D01*
X746411Y330752D01*
X745764Y330292D01*
X745681Y330192D01*
X745578Y330112D01*
X665568Y250102D01*
X664445Y248640D01*
X663740Y246937D01*
X663500Y245110D01*
Y168910D01*
X663740Y167083D01*
X664445Y165380D01*
X665568Y163917D01*
X692237Y137248D01*
X693700Y136125D01*
X695403Y135420D01*
X697230Y135180D01*
X755753D01*
X757000Y133932D01*
X757073Y133379D01*
X758042Y131039D01*
X759584Y129029D01*
X761593Y127487D01*
X763276Y126790D01*
Y124670D01*
X761593Y123973D01*
X759584Y122431D01*
X758042Y120421D01*
X757073Y118081D01*
X756742Y115570D01*
X757073Y113059D01*
X758042Y110718D01*
X759584Y108709D01*
X761593Y107167D01*
X763276Y106470D01*
Y104350D01*
X761593Y103653D01*
X759584Y102111D01*
X758042Y100101D01*
X757073Y97761D01*
X756742Y95250D01*
X757073Y92739D01*
X758042Y90399D01*
X759584Y88389D01*
X761593Y86847D01*
X763934Y85878D01*
X766445Y85547D01*
X772795D01*
X775306Y85878D01*
X777646Y86847D01*
X779656Y88389D01*
X781198Y90399D01*
X782167Y92739D01*
X782498Y95250D01*
X782167Y97761D01*
X781198Y100101D01*
X779656Y102111D01*
X777646Y103653D01*
X775964Y104350D01*
Y106470D01*
X777646Y107167D01*
X779656Y108709D01*
X781198Y110718D01*
X782167Y113059D01*
X782401Y114836D01*
X793043Y125477D01*
X794165Y126939D01*
X794870Y128642D01*
X795110Y130469D01*
Y167609D01*
X794870Y169436D01*
X794165Y171139D01*
X793043Y172601D01*
X775231Y190412D01*
X773769Y191535D01*
X772066Y192240D01*
X770239Y192480D01*
X705235D01*
X695400Y202314D01*
Y222859D01*
X696121Y224107D01*
X696690Y226231D01*
Y228429D01*
X696121Y230553D01*
X695022Y232457D01*
X693467Y234012D01*
X691563Y235111D01*
X689439Y235680D01*
X687241D01*
X685117Y235111D01*
X683213Y234012D01*
X681658Y232457D01*
X680559Y230553D01*
X679990Y228429D01*
Y226231D01*
X680559Y224107D01*
X681280Y222859D01*
Y199390D01*
X681520Y197563D01*
X682225Y195860D01*
X683348Y194398D01*
X697318Y180428D01*
X698780Y179305D01*
X700483Y178600D01*
X702310Y178360D01*
X767314D01*
X772040Y173633D01*
X771212Y171633D01*
X766445D01*
X763768Y171281D01*
X761273Y170248D01*
X759131Y168604D01*
X757487Y166462D01*
X756454Y163967D01*
X756102Y161290D01*
X756454Y158613D01*
X757487Y156118D01*
X759131Y153976D01*
X761273Y152332D01*
X763768Y151299D01*
X766445Y150947D01*
X772795D01*
X775472Y151299D01*
X777967Y152332D01*
X778990Y153117D01*
X780990Y152131D01*
Y144137D01*
X778990Y143262D01*
X777646Y144293D01*
X775306Y145262D01*
X772795Y145593D01*
X766445D01*
X765441Y145461D01*
X763670Y147232D01*
X762207Y148355D01*
X760504Y149060D01*
X758677Y149300D01*
X700154D01*
X677620Y171834D01*
Y242185D01*
X749139Y313704D01*
X751498Y313235D01*
X752015Y311987D01*
X753875Y309203D01*
X756243Y306835D01*
X759027Y304975D01*
X762121Y303693D01*
X765406Y303040D01*
X768754D01*
X772039Y303693D01*
X775133Y304975D01*
X777917Y306835D01*
X780285Y309203D01*
X782145Y311987D01*
X783427Y315081D01*
X784080Y318366D01*
Y321714D01*
X783427Y324999D01*
X782145Y328092D01*
X780285Y330877D01*
X777917Y333245D01*
X775133Y335105D01*
X772039Y336387D01*
X768754Y337040D01*
D02*
G37*
G36*
X33020Y477538D02*
X31069Y477150D01*
X29415Y476045D01*
X19255Y465885D01*
X18150Y464231D01*
X17762Y462280D01*
Y383540D01*
X18150Y381589D01*
X19255Y379935D01*
X26875Y372315D01*
X28529Y371210D01*
X30480Y370822D01*
X42338D01*
X78214Y334946D01*
Y263328D01*
X71325Y256439D01*
X70220Y254785D01*
X69832Y252834D01*
Y184150D01*
X70220Y182199D01*
X71325Y180545D01*
X72979Y179440D01*
X74930Y179052D01*
X76881Y179440D01*
X78535Y180545D01*
X79640Y182199D01*
X80028Y184150D01*
Y201256D01*
X82028Y202085D01*
X82399Y201713D01*
X84145Y200990D01*
X86035D01*
X87781Y201713D01*
X89117Y203049D01*
X89840Y204795D01*
Y205804D01*
X129642Y245606D01*
X141376D01*
X142089Y244893D01*
X143835Y244170D01*
X145725D01*
X147471Y244893D01*
X148807Y246229D01*
X149530Y247975D01*
Y249865D01*
X148807Y251611D01*
X147471Y252947D01*
X145725Y253670D01*
X143835D01*
X142089Y252947D01*
X141376Y252234D01*
X128270D01*
X127002Y251981D01*
X125927Y251263D01*
X85154Y210490D01*
X84145D01*
X82399Y209767D01*
X82028Y209395D01*
X80028Y210224D01*
Y250723D01*
X86917Y257611D01*
X88022Y259265D01*
X88410Y261216D01*
Y337058D01*
X88022Y339009D01*
X86917Y340663D01*
X48055Y379525D01*
X46401Y380630D01*
X44450Y381018D01*
X32592D01*
X27958Y385652D01*
Y460168D01*
X36625Y468835D01*
X37730Y470489D01*
X38118Y472440D01*
X37730Y474391D01*
X36625Y476045D01*
X34971Y477150D01*
X33020Y477538D01*
D02*
G37*
G36*
X388620Y185604D02*
X385943Y185251D01*
X383448Y184218D01*
X381306Y182574D01*
X379662Y180432D01*
X378629Y177937D01*
X378276Y175260D01*
Y172720D01*
X378629Y170043D01*
X379662Y167548D01*
X381306Y165406D01*
X383448Y163762D01*
X385943Y162729D01*
X388620Y162376D01*
X391297Y162729D01*
X393792Y163762D01*
X395934Y165406D01*
X397578Y167548D01*
X398611Y170043D01*
X398964Y172720D01*
Y175260D01*
X398611Y177937D01*
X397578Y180432D01*
X395934Y182574D01*
X393792Y184218D01*
X391297Y185251D01*
X388620Y185604D01*
D02*
G37*
G36*
X646764Y291560D02*
X644565D01*
X642441Y290991D01*
X640537Y289892D01*
X638983Y288337D01*
X637883Y286433D01*
X637314Y284309D01*
Y282111D01*
X637883Y279987D01*
X638604Y278739D01*
Y199009D01*
X610309Y170714D01*
X608917Y170341D01*
X607013Y169242D01*
X605458Y167687D01*
X604359Y165783D01*
X603790Y163659D01*
Y161461D01*
X604359Y159337D01*
X605458Y157433D01*
X607013Y155878D01*
X608917Y154779D01*
X611041Y154210D01*
X613239D01*
X615363Y154779D01*
X617267Y155878D01*
X618822Y157433D01*
X619921Y159337D01*
X620294Y160729D01*
X650657Y191092D01*
X651779Y192554D01*
X652484Y194257D01*
X652725Y196084D01*
Y278739D01*
X653445Y279987D01*
X654014Y282111D01*
Y284309D01*
X653445Y286433D01*
X652346Y288337D01*
X650791Y289892D01*
X648887Y290991D01*
X646764Y291560D01*
D02*
G37*
G36*
X228600Y201948D02*
X226649Y201560D01*
X224995Y200455D01*
X223890Y198801D01*
X223502Y196850D01*
Y161290D01*
X223890Y159339D01*
X224995Y157685D01*
X230955Y151726D01*
X230189Y149878D01*
X143510D01*
X141559Y149490D01*
X139905Y148385D01*
X107550Y116029D01*
X102888Y120691D01*
Y184150D01*
X102500Y186101D01*
X101395Y187755D01*
X99741Y188860D01*
X97790Y189248D01*
X95839Y188860D01*
X94185Y187755D01*
X93080Y186101D01*
X92692Y184150D01*
Y118580D01*
X93080Y116629D01*
X94185Y114975D01*
X94325Y114835D01*
X93560Y112987D01*
X92583D01*
X91345Y113500D01*
X89518Y113740D01*
X79518D01*
X77691Y113500D01*
X75988Y112795D01*
X74525Y111672D01*
X68668Y105815D01*
X67545Y104352D01*
X66840Y102649D01*
X66600Y100822D01*
Y61277D01*
X66840Y59450D01*
X67545Y57747D01*
X68668Y56285D01*
X77065Y47887D01*
X78528Y46765D01*
X80231Y46060D01*
X82058Y45819D01*
X258440D01*
X260267Y46060D01*
X261970Y46765D01*
X263432Y47887D01*
X282523Y66978D01*
X284371Y66212D01*
Y49950D01*
X284526Y49170D01*
X284968Y48508D01*
X285630Y48066D01*
X286410Y47911D01*
X305410D01*
X306190Y48066D01*
X306852Y48508D01*
X307294Y49170D01*
X307449Y49950D01*
Y70950D01*
X307294Y71730D01*
X306852Y72392D01*
X306190Y72834D01*
X305410Y72989D01*
X291148D01*
X290382Y74837D01*
X307545Y92000D01*
X481330D01*
X483157Y92240D01*
X484860Y92945D01*
X486322Y94068D01*
X487444Y95530D01*
X488150Y97233D01*
X488390Y99060D01*
X488150Y100887D01*
X487444Y102590D01*
X486322Y104052D01*
X484860Y105175D01*
X483157Y105880D01*
X481330Y106120D01*
X421080D01*
Y173923D01*
X420840Y175751D01*
X420135Y177454D01*
X419012Y178916D01*
X417550Y180038D01*
X415847Y180743D01*
X414020Y180984D01*
X412193Y180743D01*
X410490Y180038D01*
X409028Y178916D01*
X407906Y177454D01*
X407200Y175751D01*
X406960Y173923D01*
Y106120D01*
X304620D01*
X302793Y105880D01*
X301090Y105175D01*
X299628Y104052D01*
X255515Y59940D01*
X84982D01*
X80720Y64202D01*
Y97898D01*
X82442Y99620D01*
X87206D01*
X88444Y99107D01*
X90271Y98866D01*
X107853D01*
X109681Y99107D01*
X111384Y99812D01*
X112846Y100934D01*
X113968Y102396D01*
X114673Y104099D01*
X114914Y105927D01*
X114673Y107754D01*
X114386Y108447D01*
X145622Y139682D01*
X245110D01*
X247061Y140070D01*
X248715Y141175D01*
X249820Y142829D01*
X250208Y144780D01*
X249820Y146731D01*
X248715Y148385D01*
X233698Y163402D01*
Y196850D01*
X233310Y198801D01*
X232205Y200455D01*
X230551Y201560D01*
X228600Y201948D01*
D02*
G37*
G36*
X216999Y281400D02*
X214801D01*
X212677Y280831D01*
X210773Y279732D01*
X209218Y278177D01*
X208119Y276273D01*
X207550Y274149D01*
Y271951D01*
X208119Y269827D01*
X209218Y267923D01*
X210773Y266368D01*
X210802Y266352D01*
Y229870D01*
X211190Y227919D01*
X212295Y226265D01*
X245885Y192675D01*
X267240Y171320D01*
Y170351D01*
X267809Y168227D01*
X268908Y166323D01*
X270463Y164768D01*
X270492Y164752D01*
Y132428D01*
X270463Y132412D01*
X268908Y130857D01*
X267809Y128953D01*
X267240Y126829D01*
Y124631D01*
X267809Y122507D01*
X268908Y120603D01*
X270463Y119048D01*
X270492Y119032D01*
Y107522D01*
X246808Y83838D01*
X100691D01*
X100377Y84152D01*
X98473Y85251D01*
X96349Y85820D01*
X94151D01*
X92027Y85251D01*
X90123Y84152D01*
X88568Y82597D01*
X87469Y80693D01*
X86900Y78569D01*
Y76371D01*
X87469Y74247D01*
X88568Y72343D01*
X90123Y70788D01*
X92027Y69689D01*
X94151Y69120D01*
X96349D01*
X98473Y69689D01*
X100377Y70788D01*
X101932Y72343D01*
X102682Y73642D01*
X248920D01*
X250871Y74030D01*
X252525Y75135D01*
X279195Y101805D01*
X280300Y103459D01*
X280688Y105410D01*
Y119032D01*
X280717Y119048D01*
X282272Y120603D01*
X283371Y122507D01*
X283940Y124631D01*
Y126829D01*
X283371Y128953D01*
X282272Y130857D01*
X280717Y132412D01*
X280688Y132428D01*
Y164752D01*
X280717Y164768D01*
X282272Y166323D01*
X283371Y168227D01*
X283940Y170351D01*
Y172549D01*
X283371Y174673D01*
X282272Y176577D01*
X280717Y178132D01*
X278813Y179231D01*
X276689Y179800D01*
X274491D01*
X273457Y179523D01*
X253095Y199885D01*
X253095Y199885D01*
X229707Y223272D01*
X229813Y223673D01*
X230688Y225120D01*
X232085D01*
X233831Y225843D01*
X235167Y227179D01*
X235890Y228925D01*
Y230815D01*
X235167Y232561D01*
X233831Y233897D01*
X232085Y234620D01*
X230195D01*
X228449Y233897D01*
X227113Y232561D01*
X226390Y230815D01*
Y229418D01*
X224943Y228543D01*
X224542Y228437D01*
X220998Y231982D01*
Y266352D01*
X221027Y266368D01*
X222582Y267923D01*
X223681Y269827D01*
X224250Y271951D01*
Y274149D01*
X223681Y276273D01*
X222582Y278177D01*
X221027Y279732D01*
X219123Y280831D01*
X216999Y281400D01*
D02*
G37*
G36*
X772795Y80194D02*
X766445D01*
X763768Y79841D01*
X761273Y78808D01*
X759131Y77164D01*
X757487Y75022D01*
X756454Y72527D01*
X756102Y69850D01*
X756454Y67173D01*
X757487Y64678D01*
X759131Y62536D01*
X761273Y60892D01*
X763768Y59859D01*
X766445Y59507D01*
X772795D01*
X775472Y59859D01*
X777967Y60892D01*
X780109Y62536D01*
X781753Y64678D01*
X782786Y67173D01*
X783139Y69850D01*
X782786Y72527D01*
X781753Y75022D01*
X780109Y77164D01*
X777967Y78808D01*
X775472Y79841D01*
X772795Y80194D01*
D02*
G37*
G36*
X513175Y56610D02*
X492665D01*
Y29750D01*
X513175D01*
Y56610D01*
D02*
G37*
G36*
X477520Y56698D02*
X474843Y56346D01*
X472348Y55313D01*
X470206Y53669D01*
X468562Y51527D01*
X467529Y49032D01*
X467177Y46355D01*
Y40005D01*
X467529Y37328D01*
X468562Y34833D01*
X470206Y32691D01*
X472348Y31047D01*
X474843Y30014D01*
X477520Y29662D01*
X480197Y30014D01*
X482692Y31047D01*
X484834Y32691D01*
X486478Y34833D01*
X487511Y37328D01*
X487864Y40005D01*
Y46355D01*
X487511Y49032D01*
X486478Y51527D01*
X484834Y53669D01*
X482692Y55313D01*
X480197Y56346D01*
X477520Y56698D01*
D02*
G37*
G36*
X452120D02*
X449443Y56346D01*
X446948Y55313D01*
X444806Y53669D01*
X443162Y51527D01*
X442129Y49032D01*
X441777Y46355D01*
Y40005D01*
X442129Y37328D01*
X443162Y34833D01*
X444806Y32691D01*
X446948Y31047D01*
X449443Y30014D01*
X452120Y29662D01*
X454797Y30014D01*
X457292Y31047D01*
X459434Y32691D01*
X461078Y34833D01*
X462111Y37328D01*
X462463Y40005D01*
Y46355D01*
X462111Y49032D01*
X461078Y51527D01*
X459434Y53669D01*
X457292Y55313D01*
X454797Y56346D01*
X452120Y56698D01*
D02*
G37*
G36*
X426720D02*
X424043Y56346D01*
X421548Y55313D01*
X419406Y53669D01*
X417762Y51527D01*
X416729Y49032D01*
X416376Y46355D01*
Y40005D01*
X416729Y37328D01*
X417762Y34833D01*
X419406Y32691D01*
X421548Y31047D01*
X424043Y30014D01*
X426720Y29662D01*
X429397Y30014D01*
X431892Y31047D01*
X434034Y32691D01*
X435678Y34833D01*
X436711Y37328D01*
X437063Y40005D01*
Y46355D01*
X436711Y49032D01*
X435678Y51527D01*
X434034Y53669D01*
X431892Y55313D01*
X429397Y56346D01*
X426720Y56698D01*
D02*
G37*
G36*
X401320D02*
X398643Y56346D01*
X396148Y55313D01*
X394006Y53669D01*
X392362Y51527D01*
X391329Y49032D01*
X390976Y46355D01*
Y40005D01*
X391329Y37328D01*
X392362Y34833D01*
X394006Y32691D01*
X396148Y31047D01*
X398643Y30014D01*
X401320Y29662D01*
X403997Y30014D01*
X406492Y31047D01*
X408634Y32691D01*
X410278Y34833D01*
X411311Y37328D01*
X411664Y40005D01*
Y46355D01*
X411311Y49032D01*
X410278Y51527D01*
X408634Y53669D01*
X406492Y55313D01*
X403997Y56346D01*
X401320Y56698D01*
D02*
G37*
G36*
X375920D02*
X373243Y56346D01*
X370748Y55313D01*
X368606Y53669D01*
X366962Y51527D01*
X365929Y49032D01*
X365577Y46355D01*
Y40005D01*
X365929Y37328D01*
X366962Y34833D01*
X368606Y32691D01*
X370748Y31047D01*
X373243Y30014D01*
X375920Y29662D01*
X378597Y30014D01*
X381092Y31047D01*
X383234Y32691D01*
X384878Y34833D01*
X385911Y37328D01*
X386264Y40005D01*
Y46355D01*
X385911Y49032D01*
X384878Y51527D01*
X383234Y53669D01*
X381092Y55313D01*
X378597Y56346D01*
X375920Y56698D01*
D02*
G37*
G36*
X350520D02*
X347843Y56346D01*
X345348Y55313D01*
X343206Y53669D01*
X341562Y51527D01*
X340529Y49032D01*
X340177Y46355D01*
Y40005D01*
X340529Y37328D01*
X341562Y34833D01*
X343206Y32691D01*
X345348Y31047D01*
X347843Y30014D01*
X350520Y29662D01*
X353197Y30014D01*
X355692Y31047D01*
X357834Y32691D01*
X359478Y34833D01*
X360511Y37328D01*
X360863Y40005D01*
Y46355D01*
X360511Y49032D01*
X359478Y51527D01*
X357834Y53669D01*
X355692Y55313D01*
X353197Y56346D01*
X350520Y56698D01*
D02*
G37*
G36*
X52967Y58830D02*
X48633D01*
X44383Y57984D01*
X40379Y56326D01*
X36776Y53918D01*
X33712Y50854D01*
X31304Y47251D01*
X29646Y43247D01*
X28800Y38997D01*
Y34663D01*
X29646Y30413D01*
X31304Y26409D01*
X33712Y22806D01*
X36776Y19741D01*
X40379Y17334D01*
X44383Y15675D01*
X48633Y14830D01*
X52967D01*
X57217Y15675D01*
X61221Y17334D01*
X64824Y19741D01*
X67888Y22806D01*
X70296Y26409D01*
X71954Y30413D01*
X72800Y34663D01*
Y38997D01*
X71954Y43247D01*
X70296Y47251D01*
X67888Y50854D01*
X64824Y53918D01*
X61221Y56326D01*
X57217Y57984D01*
X52967Y58830D01*
D02*
G37*
G36*
X754007Y55020D02*
X749673D01*
X745423Y54174D01*
X741419Y52516D01*
X737816Y50108D01*
X734752Y47044D01*
X732344Y43441D01*
X730686Y39437D01*
X729840Y35187D01*
Y30853D01*
X730686Y26603D01*
X732344Y22599D01*
X734752Y18996D01*
X737816Y15932D01*
X741419Y13524D01*
X745423Y11866D01*
X749673Y11020D01*
X754007D01*
X758257Y11866D01*
X762261Y13524D01*
X765864Y15932D01*
X768929Y18996D01*
X771336Y22599D01*
X772995Y26603D01*
X773840Y30853D01*
Y35187D01*
X772995Y39437D01*
X771336Y43441D01*
X768929Y47044D01*
X765864Y50108D01*
X762261Y52516D01*
X758257Y54174D01*
X754007Y55020D01*
D02*
G37*
%LPD*%
G36*
X448070Y568932D02*
X447527Y568223D01*
X446558Y565883D01*
X446227Y563372D01*
Y556768D01*
X446558Y554257D01*
X447527Y551917D01*
X448616Y550498D01*
Y543811D01*
X447273Y542062D01*
X446304Y539721D01*
X445973Y537210D01*
Y530606D01*
X446304Y528095D01*
X447273Y525755D01*
X448815Y523745D01*
X449251Y523410D01*
X448572Y521410D01*
X398710D01*
X393889Y526231D01*
Y533667D01*
X393648Y535495D01*
X393140Y536721D01*
Y560070D01*
X392900Y561897D01*
X392195Y563600D01*
X391072Y565062D01*
X389610Y566185D01*
X387907Y566890D01*
X386080Y567130D01*
X384253Y566890D01*
X382550Y566185D01*
X381088Y565062D01*
X379966Y563600D01*
X379260Y561897D01*
X379020Y560070D01*
Y536530D01*
X379006Y536497D01*
X378766Y534670D01*
X379006Y532843D01*
X379711Y531140D01*
X379768Y531066D01*
Y523307D01*
X380009Y521479D01*
X380714Y519776D01*
X381836Y518314D01*
X390793Y509358D01*
X392255Y508236D01*
X393958Y507530D01*
X395785Y507290D01*
X474135D01*
X475962Y507530D01*
X477665Y508236D01*
X479127Y509358D01*
X485193Y515423D01*
X486315Y516885D01*
X487020Y518588D01*
X487261Y520416D01*
Y530685D01*
X487318Y530759D01*
X488023Y532462D01*
X488263Y534289D01*
X488023Y536116D01*
X487318Y537819D01*
X486195Y539281D01*
X484733Y540404D01*
X483030Y541109D01*
X481203Y541349D01*
X479376Y541109D01*
X477673Y540404D01*
X476211Y539281D01*
X475208Y538279D01*
X474086Y536817D01*
X473381Y535114D01*
X473140Y533286D01*
Y523340D01*
X471210Y521410D01*
X462780D01*
X462101Y523410D01*
X462537Y523745D01*
X464079Y525755D01*
X465048Y528095D01*
X465379Y530606D01*
Y537210D01*
X465048Y539721D01*
X464079Y542062D01*
X462736Y543811D01*
Y549865D01*
X462791Y549907D01*
X464333Y551917D01*
X465302Y554257D01*
X465633Y556768D01*
Y563372D01*
X465302Y565883D01*
X464333Y568223D01*
X463790Y568932D01*
X464776Y570932D01*
X498274D01*
X499260Y568932D01*
X498327Y567715D01*
X497358Y565375D01*
X497027Y562864D01*
Y556260D01*
X497358Y553749D01*
X498327Y551409D01*
X499869Y549399D01*
X501879Y547857D01*
X501847Y545705D01*
X501624Y545613D01*
X499615Y544071D01*
X498073Y542062D01*
X497104Y539721D01*
X496773Y537210D01*
Y530606D01*
X497104Y528095D01*
X498073Y525755D01*
X499615Y523745D01*
X501624Y522203D01*
X503162Y521566D01*
Y509119D01*
X499007Y504964D01*
X355600D01*
X354332Y504711D01*
X353257Y503993D01*
X321763Y472499D01*
X319763Y473327D01*
Y514466D01*
X329202Y523906D01*
X330429Y522965D01*
X332769Y521996D01*
X335280Y521665D01*
X337791Y521996D01*
X340131Y522965D01*
X342141Y524507D01*
X343683Y526516D01*
X344652Y528857D01*
X344983Y531368D01*
Y537972D01*
X344652Y540483D01*
X343683Y542823D01*
X342141Y544833D01*
X340280Y546261D01*
X340139Y547370D01*
X340280Y548479D01*
X342141Y549907D01*
X343683Y551917D01*
X344652Y554257D01*
X344983Y556768D01*
Y563372D01*
X344652Y565883D01*
X343683Y568223D01*
X343140Y568932D01*
X344126Y570932D01*
X351834D01*
X352820Y568932D01*
X352277Y568223D01*
X351308Y565883D01*
X350977Y563372D01*
Y556768D01*
X351308Y554257D01*
X352277Y551917D01*
X353819Y549907D01*
X355681Y548479D01*
X355821Y547370D01*
X355681Y546261D01*
X353819Y544833D01*
X352277Y542823D01*
X351308Y540483D01*
X350977Y537972D01*
Y531368D01*
X351308Y528857D01*
X352277Y526516D01*
X353819Y524507D01*
X355829Y522965D01*
X358169Y521996D01*
X360680Y521665D01*
X363191Y521996D01*
X365532Y522965D01*
X367541Y524507D01*
X369083Y526516D01*
X370052Y528857D01*
X370383Y531368D01*
Y537972D01*
X370052Y540483D01*
X369083Y542823D01*
X367541Y544833D01*
X365680Y546261D01*
X365539Y547370D01*
X365680Y548479D01*
X367541Y549907D01*
X369083Y551917D01*
X370052Y554257D01*
X370383Y556768D01*
Y563372D01*
X370052Y565883D01*
X369083Y568223D01*
X368540Y568932D01*
X369526Y570932D01*
X447084D01*
X448070Y568932D01*
D02*
G37*
G36*
X523422Y441767D02*
Y437194D01*
X523674Y435926D01*
X524393Y434851D01*
X524670Y434574D01*
X523842Y432574D01*
X494374D01*
X493106Y432321D01*
X492030Y431603D01*
X490461Y430034D01*
X465049D01*
X463781Y429781D01*
X462706Y429063D01*
X445617Y411974D01*
X442050D01*
X441443Y413974D01*
X441625Y414095D01*
X465662Y438132D01*
X484792D01*
X484808Y438103D01*
X486363Y436548D01*
X488267Y435449D01*
X490391Y434880D01*
X492589D01*
X494713Y435449D01*
X496617Y436548D01*
X498172Y438103D01*
X499271Y440007D01*
X499840Y442131D01*
Y444329D01*
X499271Y446453D01*
X498172Y448357D01*
X496617Y449912D01*
X494713Y451011D01*
X492589Y451580D01*
X490391D01*
X488267Y451011D01*
X486363Y449912D01*
X484808Y448357D01*
X484792Y448328D01*
X463550D01*
X463441Y448306D01*
X462456Y450149D01*
X467463Y455156D01*
X510033D01*
X523422Y441767D01*
D02*
G37*
G36*
X527894Y422459D02*
Y418752D01*
X528147Y417484D01*
X528865Y416409D01*
X532460Y412814D01*
Y411805D01*
X533183Y410059D01*
X534519Y408723D01*
X536265Y408000D01*
X538155D01*
X539901Y408723D01*
X540786Y409609D01*
X542786Y408972D01*
Y406033D01*
X532497Y395744D01*
X516993D01*
X498573Y414163D01*
X497498Y414881D01*
X496230Y415134D01*
X461247D01*
X460910Y415067D01*
X459925Y416910D01*
X466422Y423406D01*
X491834D01*
X493102Y423659D01*
X494177Y424377D01*
X495746Y425946D01*
X524408D01*
X527894Y422459D01*
D02*
G37*
G36*
X470400Y406506D02*
X467424Y403530D01*
X466415D01*
X464669Y402807D01*
X463333Y401471D01*
X462610Y399725D01*
Y397835D01*
X463333Y396089D01*
X464669Y394753D01*
X466415Y394030D01*
X466788D01*
X467903Y392075D01*
X467572Y391539D01*
X467197Y391208D01*
X462824D01*
X461556Y390956D01*
X460481Y390237D01*
X449644Y379400D01*
X448635D01*
X446889Y378677D01*
X445553Y377341D01*
X444830Y375595D01*
Y373705D01*
X445553Y371959D01*
X446889Y370623D01*
X448635Y369900D01*
X450525D01*
X452271Y370623D01*
X453607Y371959D01*
X454330Y373705D01*
Y374714D01*
X464197Y384581D01*
X469174D01*
X470442Y384833D01*
X471517Y385551D01*
X479996Y394030D01*
X481005D01*
X482751Y394753D01*
X484087Y396089D01*
X484810Y397835D01*
Y399725D01*
X484772Y399816D01*
X486109Y401816D01*
X491133D01*
X544773Y348177D01*
X545848Y347459D01*
X547116Y347206D01*
X559868D01*
X560637Y345348D01*
X562281Y343206D01*
X564030Y341864D01*
X563693Y340206D01*
X563509Y339864D01*
X457303D01*
X428764Y368402D01*
Y392786D01*
X430008Y394030D01*
X430205D01*
X432130Y392755D01*
X432853Y391009D01*
X434189Y389673D01*
X435935Y388950D01*
X437825D01*
X439571Y389673D01*
X440907Y391009D01*
X441630Y392755D01*
Y392964D01*
X444133Y395466D01*
X448207D01*
X449475Y395719D01*
X450550Y396437D01*
X462619Y408506D01*
X469572D01*
X470400Y406506D01*
D02*
G37*
G36*
X297676Y425140D02*
Y335704D01*
X297929Y334436D01*
X298647Y333361D01*
X298780Y333228D01*
Y331795D01*
X298805Y331735D01*
X297731Y329434D01*
X297403Y329334D01*
X296649Y329472D01*
X292874Y333247D01*
Y378154D01*
X294443Y379723D01*
X295161Y380798D01*
X295414Y382066D01*
Y426003D01*
X295676Y426186D01*
X297676Y425140D01*
D02*
G37*
D11*
X462824Y387894D02*
X469174D01*
X480060Y398780D01*
X449580Y374650D02*
X462824Y387894D01*
X294640Y292100D02*
X535940D01*
X615950Y212090D01*
X177800Y377658D02*
Y435577D01*
X179265Y437042D01*
X299687D01*
X294640Y444500D02*
Y452822D01*
X299687Y437042D02*
X301152Y438506D01*
Y506374D01*
X147514Y454287D02*
X293176D01*
X294640Y452822D01*
X214630Y509303D02*
X216094Y507838D01*
X299687D01*
X214630Y509303D02*
Y558800D01*
X299687Y507838D02*
X301152Y506374D01*
X143510Y450282D02*
X147514Y454287D01*
X627380Y491490D02*
Y558800D01*
X496230Y411820D02*
X515620Y392430D01*
X461247Y411820D02*
X496230D01*
X515620Y392430D02*
X533870D01*
X473710Y405130D02*
X492506D01*
X467360Y398780D02*
X473710Y405130D01*
X492506D02*
X547116Y350520D01*
X128270Y248920D02*
X144780D01*
X85090Y205740D02*
X128270Y248920D01*
X143510Y375920D02*
Y450282D01*
X601980Y558800D02*
X602234Y558546D01*
X249490Y196280D02*
X274320Y171450D01*
X130848Y310604D02*
X356325D01*
X121920Y319532D02*
X130848Y310604D01*
X121920Y319532D02*
Y347180D01*
X274320Y171450D02*
X275590D01*
X116840Y352260D02*
X121920Y347180D01*
X116840Y352260D02*
Y353060D01*
X121920Y359410D02*
X151130Y330200D01*
X247650D01*
X121920Y359410D02*
Y549910D01*
X292100Y382066D02*
Y431042D01*
X289560Y331875D02*
Y379526D01*
X292100Y382066D01*
X379730Y420440D02*
Y454660D01*
X421640Y425450D02*
X433070D01*
X466090Y458470D01*
X511405D01*
X379730Y420440D02*
X391510Y408660D01*
X446989D01*
X465049Y426720D01*
X511405Y458470D02*
X526736Y443140D01*
X442760Y398780D02*
X448207D01*
X436880Y393700D02*
X437680D01*
X442760Y398780D01*
X448207D02*
X461247Y411820D01*
X425450Y394158D02*
X429260Y397968D01*
X425450Y367030D02*
Y394158D01*
X429260Y397968D02*
Y398780D01*
X531208Y418752D02*
Y423832D01*
X525780Y429260D02*
X531208Y423832D01*
Y418752D02*
X537210Y412750D01*
X526736Y437194D02*
X537210Y426720D01*
X526736Y437194D02*
Y443140D01*
X494374Y429260D02*
X525780D01*
X546100Y404660D02*
Y463853D01*
X533870Y392430D02*
X546100Y404660D01*
X531440Y478513D02*
X546100Y463853D01*
X678180Y556260D02*
Y558800D01*
X300990Y427296D02*
X316449Y442755D01*
X300990Y335704D02*
Y427296D01*
X303530Y332740D02*
Y333164D01*
X300990Y335704D02*
X303530Y333164D01*
X316449Y515839D02*
X335280Y534670D01*
X316449Y442755D02*
Y515839D01*
X322580Y452120D02*
Y468630D01*
X355600Y501650D01*
X531440Y478513D02*
Y533908D01*
X506476Y507746D02*
Y533908D01*
X500380Y501650D02*
X506476Y507746D01*
X355600Y501650D02*
X500380D01*
X465049Y426720D02*
X491834D01*
X494374Y429260D01*
X547116Y350520D02*
X572770D01*
X425450Y367030D02*
X455930Y336550D01*
X594106D01*
X678060Y420504D01*
X289560Y331875D02*
X296315Y325120D01*
X312420D01*
X287850Y298890D02*
X287850D01*
X282135Y304604D02*
X287850Y298890D01*
X356325Y310604D02*
X365760Y320040D01*
X287850Y298890D02*
X294640Y292100D01*
X113030Y558800D02*
X121920Y549910D01*
D112*
X107853Y105927D02*
X108370Y105410D01*
X107088Y106692D02*
X107853Y105927D01*
X96520Y78740D02*
X248920D01*
X275590Y105410D01*
Y125730D01*
X30480Y375920D02*
X44450D01*
X83312Y337058D01*
Y261216D02*
Y337058D01*
X22860Y383540D02*
X30480Y375920D01*
X74930Y252834D02*
X83312Y261216D01*
X74930Y184150D02*
Y252834D01*
X97790Y118580D02*
Y184150D01*
X22860Y383540D02*
Y462280D01*
X182880Y360680D02*
X226060D01*
X71114Y433070D02*
X100330D01*
X40640Y435610D02*
X68574D01*
X71114Y433070D01*
X22860Y462280D02*
X33020Y472440D01*
X97790Y118580D02*
X107088Y109282D01*
Y106692D02*
Y109282D01*
X95250Y77470D02*
X96520Y78740D01*
X108432Y109701D02*
X143510Y144780D01*
X245110D01*
X228600Y161290D02*
X245110Y144780D01*
X228600Y161290D02*
Y196850D01*
X249490Y196280D02*
X275590Y170180D01*
Y171450D01*
Y125730D02*
Y170180D01*
X215900Y229870D02*
X249490Y196280D01*
X215900Y229870D02*
Y273050D01*
X400050Y436080D02*
Y472440D01*
Y436080D02*
X418430Y417700D01*
X438020D01*
X463550Y443230D01*
X491490D01*
D113*
X576580Y455375D02*
Y558800D01*
X572770Y452120D02*
X573325D01*
X576580Y455375D01*
X573325Y562055D02*
X576580Y558800D01*
X670560Y168910D02*
X697230Y142240D01*
X758677D02*
X765027Y135890D01*
X697230Y142240D02*
X758677D01*
X765027Y135890D02*
X769620D01*
X414020Y99060D02*
X481330D01*
X304620D02*
X414020D01*
Y173923D01*
X601980Y558292D02*
X602234Y558546D01*
X386080Y534670D02*
Y560070D01*
X258440Y52879D02*
X304620Y99060D01*
X199660Y471170D02*
X240030D01*
X193310Y477520D02*
X199660Y471170D01*
X133350Y457200D02*
X153670Y477520D01*
X193310D01*
X601980Y494030D02*
X617220Y478790D01*
X601980Y494030D02*
Y558292D01*
X455930Y560070D02*
Y577992D01*
X288432Y577992D02*
X455930D01*
X455676Y533908D02*
Y560070D01*
X455930Y577992D02*
X455930Y577992D01*
X90271Y105927D02*
X107853D01*
X89518Y106680D02*
X90271Y105927D01*
X79518Y106680D02*
X89518D01*
X73660Y100822D02*
X79518Y106680D01*
X73660Y61277D02*
Y100822D01*
Y61277D02*
X82058Y52879D01*
X258440D01*
X155479Y344170D02*
X156210D01*
X229870D01*
X133350Y365348D02*
X153178Y345520D01*
X154129D02*
X155479Y344170D01*
X153178Y345520D02*
X154129D01*
X133350Y365348D02*
Y457200D01*
X474135Y514350D02*
X480200Y520416D01*
Y533286D01*
X395785Y514350D02*
X474135D01*
X480200Y533286D02*
X481203Y534289D01*
X386829Y523307D02*
X395785Y514350D01*
X386829Y523307D02*
Y533667D01*
X385826Y534670D02*
X386829Y533667D01*
X573325Y562055D02*
Y572134D01*
X567467Y577992D02*
X573325Y572134D01*
X455930Y577992D02*
X567467D01*
X240030Y558800D02*
X269240D01*
X288432Y577992D01*
X688340Y199390D02*
X702310Y185420D01*
X688340Y199390D02*
Y227330D01*
X702310Y185420D02*
X770239D01*
X788050Y167609D01*
X769620Y115570D02*
X773151D01*
X788050Y130469D01*
Y167609D01*
X670560Y168910D02*
Y245110D01*
X750570Y325120D01*
X767080Y320040D01*
X612140Y162560D02*
X645664Y196084D01*
Y283210D01*
D125*
X751840Y33020D02*
D03*
X753110Y556260D02*
D03*
X50800Y36830D02*
D03*
X54610Y560070D02*
D03*
D126*
X414274Y173990D02*
D03*
X388620D02*
D03*
D127*
X461670Y220310D02*
D03*
X471170Y226060D02*
D03*
Y214560D02*
D03*
X480670Y220310D02*
D03*
D128*
X572770Y452120D02*
D03*
D129*
Y350520D02*
D03*
Y426720D02*
D03*
Y401320D02*
D03*
Y375920D02*
D03*
X769620Y161290D02*
D03*
Y69850D02*
D03*
D130*
X335280Y534670D02*
D03*
X360680D02*
D03*
Y560070D02*
D03*
X335280D02*
D03*
X385826Y534670D02*
D03*
X386080Y560070D02*
D03*
X481584Y559562D02*
D03*
X481203Y534289D02*
D03*
X532130Y559562D02*
D03*
X506730D02*
D03*
X506476Y533908D02*
D03*
X531876D02*
D03*
X455676D02*
D03*
X455930Y560070D02*
D03*
D131*
X350520Y43180D02*
D03*
X401320D02*
D03*
X477520D02*
D03*
X426720D02*
D03*
X375920D02*
D03*
X452120D02*
D03*
D132*
X502920D02*
D03*
D133*
X601980Y558800D02*
D03*
X214630D02*
D03*
X138430D02*
D03*
X189230D02*
D03*
X163830D02*
D03*
X113030D02*
D03*
X678180D02*
D03*
X627380D02*
D03*
X652780D02*
D03*
X703580D02*
D03*
D134*
X768350Y284480D02*
D03*
X767080Y320040D02*
D03*
D135*
X769620Y135890D02*
D03*
Y115570D02*
D03*
Y95250D02*
D03*
D136*
X787080Y357820D02*
D03*
Y470220D02*
D03*
D137*
X747080D02*
D03*
Y357820D02*
D03*
D138*
X240030Y558800D02*
D03*
X576580D02*
D03*
D139*
X480060Y398780D02*
D03*
X615950Y212090D02*
D03*
X294640Y444500D02*
D03*
X177800Y377658D02*
D03*
X627380Y491490D02*
D03*
X467360Y398780D02*
D03*
X449580Y374650D02*
D03*
X44450Y375920D02*
D03*
X85090Y205740D02*
D03*
X74930Y184150D02*
D03*
X226060Y360680D02*
D03*
X182880D02*
D03*
X143510Y375920D02*
D03*
X231140Y229870D02*
D03*
X228600Y196850D02*
D03*
X116840Y353060D02*
D03*
X247650Y330200D02*
D03*
X292100Y431042D02*
D03*
X379730Y454660D02*
D03*
X421640Y425450D02*
D03*
X429260Y398780D02*
D03*
X436880Y393700D02*
D03*
X537210Y412750D02*
D03*
Y426720D02*
D03*
X322580Y452120D02*
D03*
X33020Y472440D02*
D03*
X303530Y332740D02*
D03*
X312420Y325120D02*
D03*
X282135Y304604D02*
D03*
X365760Y320040D02*
D03*
X144780Y248920D02*
D03*
X678060Y420504D02*
D03*
D140*
X481330Y99060D02*
D03*
X240030Y471170D02*
D03*
X617220Y478790D02*
D03*
X97790Y184150D02*
D03*
X156210Y344170D02*
D03*
X40640Y435610D02*
D03*
X95250Y77470D02*
D03*
X108370Y105410D02*
D03*
X245110Y144780D02*
D03*
X100330Y433070D02*
D03*
X215900Y273050D02*
D03*
X275590Y125730D02*
D03*
Y171450D02*
D03*
X229870Y344170D02*
D03*
X400050Y472440D02*
D03*
X491490Y443230D02*
D03*
X688340Y227330D02*
D03*
X612140Y162560D02*
D03*
X645664Y283210D02*
D03*
D141*
X366170Y413160D02*
D03*
X355170D02*
D03*
X344170D02*
D03*
X333170D02*
D03*
X366170Y402160D02*
D03*
Y391160D02*
D03*
X355170Y402160D02*
D03*
X344170Y391160D02*
D03*
Y402160D02*
D03*
X355170Y391160D02*
D03*
Y380160D02*
D03*
X366170D02*
D03*
X344170D02*
D03*
X333170D02*
D03*
X322170Y402160D02*
D03*
X333170D02*
D03*
Y391160D02*
D03*
X322170D02*
D03*
Y413160D02*
D03*
Y380160D02*
D03*
X366170Y369160D02*
D03*
X333170D02*
D03*
X344170D02*
D03*
X322170D02*
D03*
X355170D02*
D03*
M02*
