M48
;Layer_Color=9474304
;FILE_FORMAT=4:4
METRIC,LZ
;TYPE=PLATED
T01F00S00C0.2000
T02F00S00C0.3000
T05F00S00C0.7112
T06F00S00C0.8890
T07F00S00C0.9144
T08F00S00C1.0668
T09F00S00C1.1430
T10F00S00C2.0000
T11F00S00C4.0000
%
T01
X0046167Y0022031
X0047117Y0021456
X0048067Y0022031
X0047117Y0022606
X0036617Y0036916
Y0038016
X0035517
Y0036916
X0034417
Y0038016
Y0039116
Y0040216
Y0041316
X0035517
X0036617
Y0040216
X0035517
Y0039116
X0036617
X0033317
X0032217
Y0040216
X0033317
Y0041316
X0032217
Y0038016
X0033317
Y0036916
X0032217
T02
X0007493Y0018415
X0008509Y0020574
X002286Y0019685
X0061595Y0021209
X0067806Y00420504
X0062738Y0049149
X0053721Y0042672
Y0041275
X0048006Y0039878
X0046736
X0043688Y003937
X0042926Y0039878
X0042164Y0042545
X0037973Y0045466
X0032258Y0045212
X0029464Y004445
X002921Y00431042
X0030353Y0033274
X0031242Y0032512
X00282135Y00304604
X0024765Y003302
X0036576Y0032004
X0044958Y0037465
X0022606Y0036068
X0018288
X001778Y00377658
X0014351Y0037592
X0011684Y0035306
X0004445Y0037592
X0003302Y0047244
X0014478Y0024892
X0023114Y0022987
T05
X0009525Y0007747
X0010837Y0010541
X0009779Y0018415
X0024511Y0014478
X0027559Y0012573
Y0017145
X0048133Y0009906
X0061214Y0016256
X0068834Y0022733
X00645664Y0028321
X0061722Y0047879
X0049149Y0044323
X0040005Y0047244
X0024003Y0047117
X0022987Y0034417
X0015621
X002159Y0027305
X0010033Y0043307
X0004064Y0043561
T06
X0076962Y0009525
Y0011557
Y0013589
T07
X0038862Y0017399
X00414274
X0065278Y005588
X0067818
X0070358
X0062738
X0060198
X0057658
X0053213Y00559562
X0050673
X00481584
X00481203Y00534289
X00506476Y00533908
X00531876
X00455676
X0045593Y0056007
X0038608
X0036068
Y0053467
X00385826
X0033528
Y0056007
X0024003Y005588
X0057277Y0045212
Y0042672
Y0040132
Y0037592
Y0035052
X0021463Y005588
X0018923
X0016383
X0013843
X0011303
T08
X0035052Y0004318
X0037592
X0040132
X0042672
X0045212
X0047752
X0050292
T09
X0076962Y0006985
Y0016129
T10
X0076835Y0028448
X0076708Y0032004
T11
X000508Y0003683
X0075184Y0003302
X0075311Y0055626
X0005461Y0056007
M30
