G04*
G04 #@! TF.GenerationSoftware,Altium Limited,Altium Designer,25.8.1 (18)*
G04*
G04 Layer_Color=65535*
%FSLAX44Y44*%
%MOMM*%
G71*
G04*
G04 #@! TF.SameCoordinates,12DB3855-E36A-4628-87B7-A21181006D5C*
G04*
G04*
G04 #@! TF.FilePolarity,Positive*
G04*
G01*
G75*
%ADD10C,0.2000*%
%ADD11C,0.2500*%
%ADD12C,0.0000*%
%ADD13C,0.3000*%
%ADD14C,0.1270*%
%ADD15C,0.1778*%
%ADD16C,0.1750*%
%ADD17C,0.2540*%
%ADD18C,0.3810*%
%ADD19C,0.3048*%
G36*
X502920Y62230D02*
X509270Y68580D01*
X496570D01*
X502920Y62230D01*
D02*
G37*
G36*
X414274Y188214D02*
X420624Y194564D01*
X407924D01*
X414274Y188214D01*
D02*
G37*
G36*
X553466Y452120D02*
X547116Y458470D01*
Y445770D01*
X553466Y452120D01*
D02*
G37*
G36*
X239776Y577596D02*
X246126Y583946D01*
X233426D01*
X239776Y577596D01*
D02*
G37*
G36*
X335280Y517906D02*
X328930Y511556D01*
X341630D01*
X335280Y517906D01*
D02*
G37*
G36*
X532003Y574929D02*
X538353Y581279D01*
X525653D01*
X532003Y574929D01*
D02*
G37*
G36*
X576834Y540004D02*
X570484Y533654D01*
X583184D01*
X576834Y540004D01*
D02*
G37*
D10*
X460170Y196360D02*
G03*
X460170Y196360I-1000J0D01*
G01*
X667270Y118770D02*
G03*
X667270Y118770I-1000J0D01*
G01*
X219630Y215180D02*
G03*
X219630Y215180I-1000J0D01*
G01*
X51800Y208220D02*
G03*
X51800Y208220I-1000J0D01*
G01*
X232630Y238760D02*
G03*
X232630Y238760I-1000J0D01*
G01*
X297110Y87050D02*
G03*
X297110Y87050I-1000J0D01*
G01*
X84850Y420860D02*
X86850D01*
Y418860D02*
Y420860D01*
X52850D02*
X54850D01*
X52850Y418860D02*
Y420860D01*
Y386860D02*
Y388860D01*
Y386860D02*
X54850D01*
X84850D02*
X86850D01*
Y388860D01*
X307170Y423910D02*
Y428160D01*
X311420D01*
X376920D02*
X381170D01*
Y423910D02*
Y428160D01*
Y354160D02*
Y358410D01*
X376920Y354160D02*
X381170D01*
X307170D02*
Y358410D01*
Y354160D02*
X311420D01*
X459600Y412240D02*
X505600D01*
Y380240D02*
Y412240D01*
X459600Y385240D02*
Y412240D01*
Y385240D02*
X464600Y380240D01*
X505600D01*
X195050Y304920D02*
Y319920D01*
X170050D02*
X195050D01*
X170050Y304920D02*
Y319920D01*
Y304920D02*
X195050D01*
X208050Y429799D02*
X220357D01*
Y420870D02*
Y429799D01*
X15807Y278656D02*
X13308Y281155D01*
X8309D01*
X5810Y278656D01*
Y276157D01*
X8309Y273658D01*
X13308D01*
X15807Y271158D01*
Y268659D01*
X13308Y266160D01*
X8309D01*
X5810Y268659D01*
X20805Y281155D02*
X30802D01*
X25803D01*
Y266160D01*
X35800D02*
Y281155D01*
X40799Y276157D01*
X45797Y281155D01*
Y266160D01*
X50795Y278656D02*
X53295Y281155D01*
X58293D01*
X60792Y278656D01*
Y276157D01*
X58293Y273658D01*
X55794D01*
X58293D01*
X60792Y271158D01*
Y268659D01*
X58293Y266160D01*
X53295D01*
X50795Y268659D01*
X75787Y266160D02*
X65791D01*
X75787Y276157D01*
Y278656D01*
X73288Y281155D01*
X68290D01*
X65791Y278656D01*
X95781Y266160D02*
Y281155D01*
X105778Y266160D01*
Y281155D01*
X110776Y266160D02*
Y276157D01*
X115774Y281155D01*
X120773Y276157D01*
Y266160D01*
Y273658D01*
X110776D01*
X125771Y281155D02*
Y271158D01*
X130770Y266160D01*
X135768Y271158D01*
Y281155D01*
X140766D02*
X145765D01*
X143265D01*
Y266160D01*
X140766D01*
X145765D01*
X163259Y278656D02*
X160760Y281155D01*
X155761D01*
X153262Y278656D01*
Y268659D01*
X155761Y266160D01*
X160760D01*
X163259Y268659D01*
Y273658D01*
X158261D01*
X168257Y266160D02*
Y276157D01*
X173256Y281155D01*
X178254Y276157D01*
Y266160D01*
Y273658D01*
X168257D01*
X183253Y281155D02*
X193249D01*
X188251D01*
Y266160D01*
X198248Y281155D02*
X203246D01*
X200747D01*
Y266160D01*
X198248D01*
X203246D01*
X218241Y281155D02*
X213243D01*
X210744Y278656D01*
Y268659D01*
X213243Y266160D01*
X218241D01*
X220740Y268659D01*
Y278656D01*
X218241Y281155D01*
X225739Y266160D02*
Y281155D01*
X235735Y266160D01*
Y281155D01*
X255729Y266160D02*
Y281155D01*
X260728Y276157D01*
X265726Y281155D01*
Y266160D01*
X278222Y281155D02*
X273223D01*
X270724Y278656D01*
Y268659D01*
X273223Y266160D01*
X278222D01*
X280721Y268659D01*
Y278656D01*
X278222Y281155D01*
X285719D02*
Y266160D01*
X293217D01*
X295716Y268659D01*
Y278656D01*
X293217Y281155D01*
X285719D01*
X300714D02*
Y268659D01*
X303214Y266160D01*
X308212D01*
X310711Y268659D01*
Y281155D01*
X315710D02*
Y266160D01*
X325706D01*
X340702Y281155D02*
X330705D01*
Y266160D01*
X340702D01*
X330705Y273658D02*
X335703D01*
X688064Y485248D02*
X676068D01*
X680067Y489247D01*
X676068Y493245D01*
X688064D01*
X676068Y503242D02*
Y499243D01*
X678068Y497244D01*
X686065D01*
X688064Y499243D01*
Y503242D01*
X686065Y505241D01*
X678068D01*
X676068Y503242D01*
X678068Y517238D02*
X676068Y515238D01*
Y511240D01*
X678068Y509240D01*
X680067D01*
X682066Y511240D01*
Y515238D01*
X684066Y517238D01*
X686065D01*
X688064Y515238D01*
Y511240D01*
X686065Y509240D01*
X676068Y521236D02*
Y525235D01*
Y523236D01*
X688064D01*
Y521236D01*
Y525235D01*
X678068Y531233D02*
X676068Y533232D01*
Y537231D01*
X678068Y539230D01*
X680067D01*
X682066Y537231D01*
Y535232D01*
Y537231D01*
X684066Y539230D01*
X686065D01*
X688064Y537231D01*
Y533232D01*
X686065Y531233D01*
X713465Y483978D02*
X701468D01*
X705467Y487977D01*
X701468Y491975D01*
X713465D01*
X701468Y495974D02*
Y499973D01*
Y497973D01*
X713465D01*
Y495974D01*
Y499973D01*
X703468Y513968D02*
X701468Y511969D01*
Y507970D01*
X703468Y505971D01*
X705467D01*
X707467Y507970D01*
Y511969D01*
X709466Y513968D01*
X711465D01*
X713465Y511969D01*
Y507970D01*
X711465Y505971D01*
X701468Y523965D02*
Y519966D01*
X703468Y517967D01*
X711465D01*
X713465Y519966D01*
Y523965D01*
X711465Y525964D01*
X703468D01*
X701468Y523965D01*
X703468Y529963D02*
X701468Y531962D01*
Y535961D01*
X703468Y537961D01*
X705467D01*
X707467Y535961D01*
Y533962D01*
Y535961D01*
X709466Y537961D01*
X711465D01*
X713465Y535961D01*
Y531962D01*
X711465Y529963D01*
X158724Y492220D02*
X170720D01*
Y498218D01*
X168721Y500217D01*
X166721D01*
X164722Y498218D01*
Y492220D01*
Y498218D01*
X162723Y500217D01*
X160723D01*
X158724Y498218D01*
Y492220D01*
Y504216D02*
Y512214D01*
Y508215D01*
X170720D01*
Y516212D02*
X158724D01*
X170720Y524210D01*
X158724D01*
X170720Y528208D02*
Y532207D01*
Y530208D01*
X158724D01*
X160723Y528208D01*
X384243Y114763D02*
X382244Y116763D01*
Y120762D01*
X384243Y122761D01*
X386243D01*
X388242Y120762D01*
Y118762D01*
Y120762D01*
X390241Y122761D01*
X392241D01*
X394240Y120762D01*
Y116763D01*
X392241Y114763D01*
X394240Y126760D02*
X392241D01*
Y128759D01*
X394240D01*
Y126760D01*
X384243Y136756D02*
X382244Y138756D01*
Y142754D01*
X384243Y144754D01*
X386243D01*
X388242Y142754D01*
Y140755D01*
Y142754D01*
X390241Y144754D01*
X392241D01*
X394240Y142754D01*
Y138756D01*
X392241Y136756D01*
X382244Y148753D02*
X390241D01*
X394240Y152751D01*
X390241Y156750D01*
X382244D01*
X409643Y132758D02*
X407644Y130758D01*
Y126760D01*
X409643Y124760D01*
X417641D01*
X419640Y126760D01*
Y130758D01*
X417641Y132758D01*
X413642D01*
Y128759D01*
X419640Y136756D02*
X407644D01*
X419640Y144754D01*
X407644D01*
Y148753D02*
X419640D01*
Y154751D01*
X417641Y156750D01*
X409643D01*
X407644Y154751D01*
Y148753D01*
X660943Y201390D02*
X671100D01*
X660943Y229328D02*
X671100D01*
X666022Y234407D02*
Y224250D01*
X688898Y291555D02*
Y276320D01*
X696516D01*
X699055Y278859D01*
Y281398D01*
X696516Y283937D01*
X688898D01*
X696516D01*
X699055Y286477D01*
Y289016D01*
X696516Y291555D01*
X688898D01*
X704133Y276320D02*
Y286477D01*
X709212Y291555D01*
X714290Y286477D01*
Y276320D01*
Y283937D01*
X704133D01*
X719368Y291555D02*
X729525D01*
X724447D01*
Y276320D01*
X734603Y283937D02*
X744760D01*
X688898Y327115D02*
Y311880D01*
X696516D01*
X699055Y314419D01*
Y316958D01*
X696516Y319498D01*
X688898D01*
X696516D01*
X699055Y322037D01*
Y324576D01*
X696516Y327115D01*
X688898D01*
X704133Y311880D02*
Y322037D01*
X709212Y327115D01*
X714290Y322037D01*
Y311880D01*
Y319498D01*
X704133D01*
X719368Y327115D02*
X729525D01*
X724447D01*
Y311880D01*
X734603Y319498D02*
X744760D01*
X739682Y324576D02*
Y314419D01*
X716825Y55184D02*
Y50106D01*
X719364Y47567D01*
X729521D01*
X732060Y50106D01*
Y55184D01*
X729521Y57724D01*
X719364D01*
X716825Y55184D01*
Y72959D02*
Y62802D01*
X724443D01*
Y67880D01*
Y62802D01*
X732060D01*
X716825Y88194D02*
Y78037D01*
X724443D01*
Y83116D01*
Y78037D01*
X732060D01*
Y100890D02*
X724443Y93272D01*
X716825Y100890D01*
X724443Y108507D02*
Y118664D01*
X732060Y123742D02*
X724443Y131360D01*
X716825Y123742D01*
Y144056D02*
Y138977D01*
X719364Y136438D01*
X729521D01*
X732060Y138977D01*
Y144056D01*
X729521Y146595D01*
X719364D01*
X716825Y144056D01*
X732060Y151673D02*
X716825D01*
X732060Y161830D01*
X716825D01*
X649673Y503032D02*
X647674Y501032D01*
Y497034D01*
X649673Y495034D01*
X651673D01*
X653672Y497034D01*
Y501032D01*
X655671Y503032D01*
X657671D01*
X659670Y501032D01*
Y497034D01*
X657671Y495034D01*
X649673Y515028D02*
X647674Y513028D01*
Y509030D01*
X649673Y507030D01*
X657671D01*
X659670Y509030D01*
Y513028D01*
X657671Y515028D01*
X647674Y519026D02*
X659670D01*
X655671D01*
X647674Y527024D01*
X653672Y521026D01*
X659670Y527024D01*
X649673Y531023D02*
X647674Y533022D01*
Y537021D01*
X649673Y539020D01*
X651673D01*
X653672Y537021D01*
Y535021D01*
Y537021D01*
X655671Y539020D01*
X657671D01*
X659670Y537021D01*
Y533022D01*
X657671Y531023D01*
X626813Y503598D02*
X624814Y501598D01*
Y497600D01*
X626813Y495600D01*
X634811D01*
X636810Y497600D01*
Y501598D01*
X634811Y503598D01*
X626813Y515594D02*
X624814Y513595D01*
Y509596D01*
X626813Y507597D01*
X628813D01*
X630812Y509596D01*
Y513595D01*
X632811Y515594D01*
X634811D01*
X636810Y513595D01*
Y509596D01*
X634811Y507597D01*
X626813Y519593D02*
X624814Y521592D01*
Y525591D01*
X626813Y527590D01*
X628813D01*
X630812Y525591D01*
Y523591D01*
Y525591D01*
X632811Y527590D01*
X634811D01*
X636810Y525591D01*
Y521592D01*
X634811Y519593D01*
X600143Y503598D02*
X598144Y501598D01*
Y497600D01*
X600143Y495600D01*
X608141D01*
X610140Y497600D01*
Y501598D01*
X608141Y503598D01*
X604142D01*
Y499599D01*
X610140Y507596D02*
X598144D01*
X610140Y515594D01*
X598144D01*
Y519593D02*
X610140D01*
Y525591D01*
X608141Y527590D01*
X600143D01*
X598144Y525591D01*
Y519593D01*
X576013Y486874D02*
X574014Y488873D01*
Y492872D01*
X576013Y494871D01*
X578013D01*
X580012Y492872D01*
Y490872D01*
Y492872D01*
X582011Y494871D01*
X584011D01*
X586010Y492872D01*
Y488873D01*
X584011Y486874D01*
X586010Y498870D02*
X584011D01*
Y500869D01*
X586010D01*
Y498870D01*
X576013Y508867D02*
X574014Y510866D01*
Y514865D01*
X576013Y516864D01*
X578013D01*
X580012Y514865D01*
Y512865D01*
Y514865D01*
X582011Y516864D01*
X584011D01*
X586010Y514865D01*
Y510866D01*
X584011Y508867D01*
X574014Y520863D02*
X582011D01*
X586010Y524861D01*
X582011Y528860D01*
X574014D01*
X594120Y343630D02*
Y351627D01*
X598118Y355626D01*
X602117Y351627D01*
Y343630D01*
Y349628D01*
X594120D01*
X606116Y343630D02*
X610115D01*
X608115D01*
Y355626D01*
X606116Y353627D01*
X616113D02*
X618112Y355626D01*
X622111D01*
X624110Y353627D01*
Y345629D01*
X622111Y343630D01*
X618112D01*
X616113Y345629D01*
Y353627D01*
X602658Y377757D02*
X600658Y379756D01*
X596660D01*
X594660Y377757D01*
Y369759D01*
X596660Y367760D01*
X600658D01*
X602658Y369759D01*
Y373758D01*
X598659D01*
X606656Y367760D02*
Y379756D01*
X614654Y367760D01*
Y379756D01*
X618653D02*
Y367760D01*
X624651D01*
X626650Y369759D01*
Y377757D01*
X624651Y379756D01*
X618653D01*
X602658Y405697D02*
X600658Y407696D01*
X596660D01*
X594660Y405697D01*
Y397699D01*
X596660Y395700D01*
X600658D01*
X602658Y397699D01*
X606656Y407696D02*
Y395700D01*
X614654D01*
X618653Y407696D02*
Y395700D01*
Y399699D01*
X626650Y407696D01*
X620652Y401698D01*
X626650Y395700D01*
X594120Y433096D02*
Y421100D01*
X600118D01*
X602117Y423099D01*
Y431097D01*
X600118Y433096D01*
X594120D01*
X606116D02*
X610115D01*
X608115D01*
Y421100D01*
X606116D01*
X610115D01*
X622111Y433096D02*
X618112D01*
X616113Y431097D01*
Y423099D01*
X618112Y421100D01*
X622111D01*
X624110Y423099D01*
Y431097D01*
X622111Y433096D01*
X593554Y455227D02*
X595553Y457226D01*
X599552D01*
X601551Y455227D01*
Y453227D01*
X599552Y451228D01*
X597552D01*
X599552D01*
X601551Y449229D01*
Y447229D01*
X599552Y445230D01*
X595553D01*
X593554Y447229D01*
X605550Y445230D02*
Y447229D01*
X607549D01*
Y445230D01*
X605550D01*
X615546Y455227D02*
X617546Y457226D01*
X621544D01*
X623544Y455227D01*
Y453227D01*
X621544Y451228D01*
X619545D01*
X621544D01*
X623544Y449229D01*
Y447229D01*
X621544Y445230D01*
X617546D01*
X615546Y447229D01*
X627543Y457226D02*
Y449229D01*
X631541Y445230D01*
X635540Y449229D01*
Y457226D01*
X531563Y478902D02*
X529564Y476902D01*
Y472904D01*
X531563Y470904D01*
X533563D01*
X535562Y472904D01*
Y476902D01*
X537561Y478902D01*
X539561D01*
X541560Y476902D01*
Y472904D01*
X539561Y470904D01*
X531563Y490898D02*
X529564Y488898D01*
Y484900D01*
X531563Y482900D01*
X539561D01*
X541560Y484900D01*
Y488898D01*
X539561Y490898D01*
X529564Y494896D02*
X541560D01*
Y502894D01*
X531563Y506893D02*
X529564Y508892D01*
Y512891D01*
X531563Y514890D01*
X533563D01*
X535562Y512891D01*
Y510891D01*
Y512891D01*
X537561Y514890D01*
X539561D01*
X541560Y512891D01*
Y508892D01*
X539561Y506893D01*
X504893Y478902D02*
X502894Y476902D01*
Y472904D01*
X504893Y470904D01*
X506893D01*
X508892Y472904D01*
Y476902D01*
X510891Y478902D01*
X512891D01*
X514890Y476902D01*
Y472904D01*
X512891Y470904D01*
X502894Y482900D02*
X514890D01*
Y488898D01*
X512891Y490898D01*
X504893D01*
X502894Y488898D01*
Y482900D01*
X514890Y494896D02*
X506893D01*
X502894Y498895D01*
X506893Y502894D01*
X514890D01*
X508892D01*
Y494896D01*
X504893Y506893D02*
X502894Y508892D01*
Y512891D01*
X504893Y514890D01*
X506893D01*
X508892Y512891D01*
Y510891D01*
Y512891D01*
X510891Y514890D01*
X512891D01*
X514890Y512891D01*
Y508892D01*
X512891Y506893D01*
X478223Y492168D02*
X476224Y490168D01*
Y486170D01*
X478223Y484170D01*
X486221D01*
X488220Y486170D01*
Y490168D01*
X486221Y492168D01*
X482222D01*
Y488169D01*
X488220Y496166D02*
X476224D01*
X488220Y504164D01*
X476224D01*
Y508163D02*
X488220D01*
Y514161D01*
X486221Y516160D01*
X478223D01*
X476224Y514161D01*
Y508163D01*
X452823Y474174D02*
X450824Y476173D01*
Y480172D01*
X452823Y482171D01*
X454823D01*
X456822Y480172D01*
Y478172D01*
Y480172D01*
X458821Y482171D01*
X460821D01*
X462820Y480172D01*
Y476173D01*
X460821Y474174D01*
X462820Y486170D02*
X460821D01*
Y488169D01*
X462820D01*
Y486170D01*
X452823Y496166D02*
X450824Y498166D01*
Y502164D01*
X452823Y504164D01*
X454823D01*
X456822Y502164D01*
Y500165D01*
Y502164D01*
X458821Y504164D01*
X460821D01*
X462820Y502164D01*
Y498166D01*
X460821Y496166D01*
X450824Y508163D02*
X458821D01*
X462820Y512161D01*
X458821Y516160D01*
X450824D01*
X381961Y481538D02*
X379962Y479539D01*
Y475540D01*
X381961Y473541D01*
X389958D01*
X391958Y475540D01*
Y479539D01*
X389958Y481538D01*
X385960D01*
Y477539D01*
X391958Y485537D02*
X379962D01*
X391958Y493534D01*
X379962D01*
Y497533D02*
X391958D01*
Y503531D01*
X389958Y505530D01*
X381961D01*
X379962Y503531D01*
Y497533D01*
X365904Y445227D02*
X355907D01*
Y450225D01*
X357573Y451892D01*
X360905D01*
X362572Y450225D01*
Y445227D01*
Y448559D02*
X365904Y451892D01*
X355907Y455224D02*
X365904Y461888D01*
X355907D02*
X365904Y455224D01*
Y471885D02*
Y465221D01*
X359239Y471885D01*
X357573D01*
X355907Y470219D01*
Y466887D01*
X357573Y465221D01*
X367570Y475217D02*
Y481882D01*
X365904Y485214D02*
X355907D01*
Y490213D01*
X357573Y491879D01*
X360905D01*
X362572Y490213D01*
Y485214D01*
Y488546D02*
X365904Y491879D01*
X355907Y495211D02*
X365904Y501875D01*
X355907D02*
X365904Y495211D01*
Y505208D02*
Y508540D01*
Y506874D01*
X355907D01*
X357573Y505208D01*
X330507Y443957D02*
Y450622D01*
Y447289D01*
X340504D01*
X330507Y453954D02*
X340504Y460618D01*
X330507D02*
X340504Y453954D01*
Y470615D02*
Y463951D01*
X333839Y470615D01*
X332173D01*
X330507Y468949D01*
Y465617D01*
X332173Y463951D01*
X342170Y473947D02*
Y480612D01*
X330507Y483944D02*
Y490609D01*
Y487276D01*
X340504D01*
X330507Y493941D02*
X340504Y500606D01*
X330507D02*
X340504Y493941D01*
Y503938D02*
Y507270D01*
Y505604D01*
X330507D01*
X332173Y503938D01*
X225330Y491790D02*
X213334D01*
Y497788D01*
X215333Y499788D01*
X219332D01*
X221331Y497788D01*
Y491790D01*
Y495789D02*
X225330Y499788D01*
X215333Y511784D02*
X213334Y509785D01*
Y505786D01*
X215333Y503786D01*
X217333D01*
X219332Y505786D01*
Y509785D01*
X221331Y511784D01*
X223331D01*
X225330Y509785D01*
Y505786D01*
X223331Y503786D01*
X213334Y515783D02*
Y523780D01*
Y519781D01*
X225330D01*
X238193Y492126D02*
X236194Y494126D01*
Y498124D01*
X238193Y500124D01*
X240193D01*
X242192Y498124D01*
Y496125D01*
Y498124D01*
X244191Y500124D01*
X246191D01*
X248190Y498124D01*
Y494126D01*
X246191Y492126D01*
X248190Y504122D02*
X246191D01*
Y506122D01*
X248190D01*
Y504122D01*
X238193Y514119D02*
X236194Y516119D01*
Y520117D01*
X238193Y522117D01*
X240193D01*
X242192Y520117D01*
Y518118D01*
Y520117D01*
X244191Y522117D01*
X246191D01*
X248190Y520117D01*
Y516119D01*
X246191Y514119D01*
X236194Y526115D02*
X244191D01*
X248190Y530114D01*
X244191Y534113D01*
X236194D01*
X184124Y490950D02*
X196120D01*
Y496948D01*
X194121Y498947D01*
X192121D01*
X190122Y496948D01*
Y490950D01*
Y496948D01*
X188123Y498947D01*
X186123D01*
X184124Y496948D01*
Y490950D01*
Y502946D02*
Y510943D01*
Y506945D01*
X196120D01*
Y514942D02*
X184124D01*
X196120Y522940D01*
X184124D01*
X186123Y526938D02*
X184124Y528938D01*
Y532936D01*
X186123Y534936D01*
X194121D01*
X196120Y532936D01*
Y528938D01*
X194121Y526938D01*
X186123D01*
X134594Y492220D02*
X146590D01*
Y498218D01*
X144591Y500217D01*
X142591D01*
X140592Y498218D01*
Y492220D01*
Y498218D01*
X138593Y500217D01*
X136593D01*
X134594Y498218D01*
Y492220D01*
Y504216D02*
Y512214D01*
Y508215D01*
X146590D01*
Y516212D02*
X134594D01*
X146590Y524210D01*
X134594D01*
X146590Y536206D02*
Y528208D01*
X138593Y536206D01*
X136593D01*
X134594Y534206D01*
Y530208D01*
X136593Y528208D01*
X106654Y493490D02*
X118650D01*
Y499488D01*
X116651Y501487D01*
X114651D01*
X112652Y499488D01*
Y493490D01*
Y499488D01*
X110653Y501487D01*
X108653D01*
X106654Y499488D01*
Y493490D01*
Y505486D02*
Y513484D01*
Y509485D01*
X118650D01*
Y517482D02*
X106654D01*
X118650Y525480D01*
X106654D01*
X108653Y529478D02*
X106654Y531478D01*
Y535476D01*
X108653Y537476D01*
X110653D01*
X112652Y535476D01*
Y533477D01*
Y535476D01*
X114651Y537476D01*
X116651D01*
X118650Y535476D01*
Y531478D01*
X116651Y529478D01*
D11*
X94600Y388360D02*
G03*
X94600Y388360I-1250J0D01*
G01*
X301920Y426660D02*
G03*
X301920Y426660I-1250J0D01*
G01*
X456300Y368990D02*
G03*
X456300Y368990I-1250J0D01*
G01*
D12*
X705010Y199920D02*
G03*
X705010Y199920I-1270J0D01*
G01*
D13*
X734080Y470020D02*
G03*
X730080Y466020I0J-4000D01*
G01*
Y362020D02*
G03*
X734080Y358020I4000J0D01*
G01*
X730080Y453020D02*
Y466020D01*
Y362020D02*
Y375020D01*
X760080Y470020D02*
X772080D01*
X760080Y358020D02*
X772080D01*
D14*
X87340Y133350D02*
G03*
X87340Y133350I-34000J0D01*
G01*
X486170Y227260D02*
Y235310D01*
X456170Y227260D02*
Y235310D01*
X486170Y205310D02*
Y213360D01*
X456170Y205310D02*
Y213360D01*
X639770Y113770D02*
X648570D01*
X639770Y135470D02*
Y142770D01*
Y113770D02*
Y121070D01*
Y142770D02*
X648570D01*
X120130Y177380D02*
Y184480D01*
X221130Y111880D02*
Y118980D01*
Y177380D02*
Y184480D01*
X120130Y111880D02*
Y118980D01*
X34880Y184350D02*
X38880D01*
X36880Y182350D02*
Y186350D01*
X42300Y222720D02*
Y249720D01*
X59300Y222720D02*
Y249720D01*
X250130Y225960D02*
Y232560D01*
X256080Y243860D02*
X263130D01*
Y214660D02*
Y223060D01*
Y235460D02*
Y243860D01*
X256080Y214660D02*
X263130D01*
X581380Y129520D02*
X596880Y114020D01*
X530880D02*
X546380Y129520D01*
X530880Y63520D02*
Y114020D01*
X596880Y63520D02*
Y114020D01*
X530880Y63520D02*
X553880D01*
X573880D02*
X596880D01*
X573880Y129520D02*
X581380D01*
X546380D02*
X553880D01*
X292910Y45450D02*
X298910D01*
Y47950D01*
X302910D01*
X288910D02*
X292910D01*
Y45450D02*
Y47950D01*
D15*
X402844Y161544D02*
Y186690D01*
X376174Y161290D02*
Y186690D01*
Y161290D02*
X426974D01*
Y186690D01*
X376174D02*
X426974D01*
X588010Y335026D02*
Y466598D01*
X557022Y335026D02*
Y466598D01*
X588010D01*
X557022Y335026D02*
X588010D01*
X557530Y439674D02*
X587502D01*
X347472Y521970D02*
Y547116D01*
X322580Y521970D02*
X399542D01*
X322580D02*
Y547370D01*
Y572770D01*
X399542D01*
Y521970D02*
Y572770D01*
X489966Y27940D02*
Y57912D01*
X335788Y27940D02*
X517398D01*
X335788Y58928D02*
X517398D01*
Y27940D02*
Y58928D01*
X335788Y27940D02*
Y58928D01*
X748030Y69850D02*
Y161290D01*
X791210Y69850D02*
Y161290D01*
X748030D02*
X758190D01*
X781050D02*
X791210D01*
X781050Y69850D02*
X791210D01*
X748030D02*
X758190D01*
X227076Y544576D02*
Y573278D01*
X98806Y544068D02*
X252730D01*
X98806Y573278D02*
X252730D01*
Y544068D02*
Y573278D01*
X98806Y544068D02*
Y573278D01*
X589534Y544322D02*
Y573024D01*
X563880Y573532D02*
X717804D01*
X563880Y544322D02*
X717804D01*
X563880D02*
Y573532D01*
X717804Y544322D02*
Y573532D01*
X442976Y521462D02*
Y572262D01*
Y521462D02*
X544830D01*
Y546862D01*
Y572262D01*
X442976D02*
X544830D01*
X519303Y547243D02*
Y572135D01*
D16*
X564270Y296610D02*
X573270D01*
X564270D02*
Y320610D01*
X573270D01*
X237270Y211390D02*
X246270D01*
X237270Y187390D02*
Y211390D01*
Y187390D02*
X246270D01*
X465870Y295340D02*
X474870D01*
X465870D02*
Y319340D01*
X474870D01*
X620640Y98070D02*
Y116570D01*
X603640Y98070D02*
Y116570D01*
Y98070D02*
X620640D01*
D17*
X778510Y105410D02*
X788670D01*
X783590Y100330D02*
X788670Y105410D01*
X778510D02*
X783590Y100330D01*
Y130810D02*
X788670Y125730D01*
X778510D02*
X783590Y130810D01*
X778510Y125730D02*
X788670D01*
X382270Y22782D02*
X390934D01*
X386602D01*
Y9786D01*
X403930Y22782D02*
X395266D01*
Y16284D01*
X399598D01*
X395266D01*
Y9786D01*
X408262Y22782D02*
X416926D01*
X412594D01*
Y9786D01*
X421257Y7620D02*
X429921D01*
X434253Y22782D02*
Y9786D01*
X442917D01*
X455913Y20616D02*
X453747Y22782D01*
X449415D01*
X447249Y20616D01*
Y11952D01*
X449415Y9786D01*
X453747D01*
X455913Y11952D01*
X460245Y22782D02*
Y9786D01*
X466743D01*
X468909Y11952D01*
Y20616D01*
X466743Y22782D01*
X460245D01*
X496004Y73660D02*
X508000D01*
Y79658D01*
X506001Y81657D01*
X504001D01*
X502002Y79658D01*
Y73660D01*
Y79658D01*
X500003Y81657D01*
X498003D01*
X496004Y79658D01*
Y73660D01*
X508000Y93653D02*
Y85656D01*
X500003Y93653D01*
X498003D01*
X496004Y91654D01*
Y87655D01*
X498003Y85656D01*
X471874Y72390D02*
X483870D01*
Y78388D01*
X481871Y80387D01*
X479871D01*
X477872Y78388D01*
Y72390D01*
Y78388D01*
X475873Y80387D01*
X473873D01*
X471874Y78388D01*
Y72390D01*
X483870Y84386D02*
Y88385D01*
Y86385D01*
X471874D01*
X473873Y84386D01*
X446474Y72390D02*
X458470D01*
Y78388D01*
X456471Y80387D01*
X454471D01*
X452472Y78388D01*
Y72390D01*
Y78388D01*
X450473Y80387D01*
X448473D01*
X446474Y78388D01*
Y72390D01*
X448473Y84386D02*
X446474Y86385D01*
Y90384D01*
X448473Y92383D01*
X456471D01*
X458470Y90384D01*
Y86385D01*
X456471Y84386D01*
X448473D01*
X431800Y64770D02*
X419804D01*
X423803Y68769D01*
X419804Y72767D01*
X431800D01*
X419804Y82764D02*
Y78766D01*
X421803Y76766D01*
X429801D01*
X431800Y78766D01*
Y82764D01*
X429801Y84763D01*
X421803D01*
X419804Y82764D01*
X421803Y96760D02*
X419804Y94760D01*
Y90762D01*
X421803Y88762D01*
X423803D01*
X425802Y90762D01*
Y94760D01*
X427801Y96760D01*
X429801D01*
X431800Y94760D01*
Y90762D01*
X429801Y88762D01*
X419804Y100758D02*
Y104757D01*
Y102758D01*
X431800D01*
Y100758D01*
Y104757D01*
X372114Y76197D02*
X369575Y73657D01*
Y68579D01*
X372114Y66040D01*
X374653D01*
X377192Y68579D01*
Y73657D01*
X379732Y76197D01*
X382271D01*
X384810Y73657D01*
Y68579D01*
X382271Y66040D01*
X372114Y91432D02*
X369575Y88893D01*
Y83814D01*
X372114Y81275D01*
X382271D01*
X384810Y83814D01*
Y88893D01*
X382271Y91432D01*
X369575Y96510D02*
X384810D01*
X379732D01*
X369575Y106667D01*
X377192Y99049D01*
X384810Y106667D01*
X406400Y64770D02*
X394404D01*
X398403Y68769D01*
X394404Y72767D01*
X406400D01*
X394404Y76766D02*
Y80765D01*
Y78766D01*
X406400D01*
Y76766D01*
Y80765D01*
X396403Y94760D02*
X394404Y92761D01*
Y88762D01*
X396403Y86763D01*
X398403D01*
X400402Y88762D01*
Y92761D01*
X402401Y94760D01*
X404401D01*
X406400Y92761D01*
Y88762D01*
X404401Y86763D01*
X394404Y104757D02*
Y100758D01*
X396403Y98759D01*
X404401D01*
X406400Y100758D01*
Y104757D01*
X404401Y106756D01*
X396403D01*
X394404Y104757D01*
X344174Y74927D02*
X341635Y72387D01*
Y67309D01*
X344174Y64770D01*
X354331D01*
X356870Y67309D01*
Y72387D01*
X354331Y74927D01*
X344174Y90162D02*
X341635Y87623D01*
Y82544D01*
X344174Y80005D01*
X346713D01*
X349253Y82544D01*
Y87623D01*
X351792Y90162D01*
X354331D01*
X356870Y87623D01*
Y82544D01*
X354331Y80005D01*
X453898Y262885D02*
Y250189D01*
X456437Y247650D01*
X461516D01*
X464055Y250189D01*
Y262885D01*
X479290D02*
X469133D01*
Y255268D01*
X474211Y257807D01*
X476751D01*
X479290Y255268D01*
Y250189D01*
X476751Y247650D01*
X471672D01*
X469133Y250189D01*
D18*
X783590Y102870D02*
Y128270D01*
D19*
X444980Y167280D02*
Y174780D01*
X504980D01*
Y167280D02*
Y174780D01*
X444980Y114780D02*
Y122280D01*
Y114780D02*
X504980D01*
Y122280D01*
M02*
