M48
;Layer_Color=9474304
;FILE_FORMAT=4:3
METRIC,LZ
;TYPE=PLATED
T01F00S00C0.300
T02F00S00C0.400
T04F00S00C1.016
T05F00S00C1.100
T06F00S00C3.200
;TYPE=NON_PLATED
T07F00S00C0.650
%
T01
X0019825Y0011675
X00189Y001745
Y002385
Y0028244
Y0029006
X0019662Y0028625
X0018138
X0016375Y00313
X00138Y00329
Y0039575
X0017825Y003635
X0029049Y0036524
X00312Y00355
X003175Y003495
X00324Y003455
X00342Y0034325
X003575Y00357
X0036332Y0036133
X0036075Y0038525
X0034975
Y0039625
X0036075
X0033875
Y0038525
X0032775
Y0039625
X0031675
Y0038525
X0032025Y0024825
X0028725Y00237
X002779Y002029
X0027Y0019925
X0025625Y0020675
X002465Y0021225
X0028675Y0016974
X0028725Y001585
X002995Y001805
X0034325Y00179
X0036325Y0018675
X003925Y00178
X00363Y0025025
X0033825Y00123
X00055Y00395
X0041475Y0036725
X004405Y00389
X0044075Y0033225
X00441Y00316
X0043975Y0030475
X0039811Y0033361
X00401Y0026025
X0041Y0024525
X0040475Y0021875
X00447Y001405
X00551Y002215
X0060125Y00184
X00614
X0064775Y0006025
X0050075Y00286
X0051625Y003215
X004405Y00404
X0043925Y0041175
X004405Y0041925
X0043325Y0040625
X0043Y0039925
X004005Y0047475
X00493Y0046625
X0037825Y0044925
X0036075Y0042925
Y0041825
X0034975
Y0042925
X0033875
Y0041825
Y0040725
X0034975
X0036075
X0032775
Y0041825
Y0042925
X0031675
Y0041825
Y0040725
X0026175Y0040975
X0025875Y00417
X0025575Y00424
X0025602Y0043099
X002555Y0043801
X002555Y0044575
X002425Y0044725
X002435Y0040575
X0022375Y0041125
X001845Y004205
X0015275Y0042275
X0010825Y0041475
Y00432
X0011875Y00465
X00141Y0046775
X001575Y00492
X002375Y0049675
X0028697Y0049672
X002895Y0050325
X00344Y0049475
X0036
X00367Y00497
X00354Y004745
X0034557Y0047484
X0033325Y00477
X0033407Y0046893
X0020925Y00457
X000705
X0006275Y00451
T02
X00151Y0014275
T04
X0038675Y0005085
X0038675Y0007625
T05
X000546Y000952
X0008
Y001206
Y00146
X000546
Y001714
Y001968
X0008
Y001714
X000546Y001206
X006676Y0018975
X00693
Y0021515
X006676
X00656Y005266
Y00552
X006306
Y005266
X006052
X005798
X005544
Y00552
X00529
Y005266
X005036
Y00552
X004782
X004528
X004274
X00402
Y005266
X004274
X004528
X004782
X005798Y00552
X006052
X003766
Y005266
X003512
Y00552
X003258
X003004
X00275
Y005266
X002496
Y00552
X002242
X001988
X001734
Y005266
X00148
X001226
Y00552
X00148
X001988Y005266
X002242
X003004
X003258
T06
X000675Y0004625
X007045
Y0058
X000675
T07
X001892Y00085
X00247
M30
