G04*
G04 #@! TF.GenerationSoftware,Altium Limited,Altium Designer,26.4.1 (12)*
G04*
G04 Layer_Color=65535*
%FSLAX44Y44*%
%MOMM*%
G71*
G04*
G04 #@! TF.SameCoordinates,3AE0F54F-63E5-4411-9AB1-E5B601F0B1DE*
G04*
G04*
G04 #@! TF.FilePolarity,Positive*
G04*
G01*
G75*
%ADD10C,0.2500*%
%ADD11C,0.2000*%
%ADD12C,0.0000*%
%ADD13C,0.1270*%
%ADD14C,0.1000*%
%ADD15C,0.1016*%
%ADD16C,0.3048*%
%ADD17C,0.2032*%
%ADD18C,0.2200*%
%ADD19C,0.2540*%
D10*
X304500Y363750D02*
G03*
X304500Y363750I-1250J0D01*
G01*
D11*
X178000Y262300D02*
G03*
X178000Y262300I-1000J0D01*
G01*
X48350Y435000D02*
G03*
X48350Y435000I-1000J0D01*
G01*
X639900Y91950D02*
G03*
X639900Y91950I-1000J0D01*
G01*
X600750Y254000D02*
G03*
X600750Y254000I-1000J0D01*
G01*
X678500Y477760D02*
G03*
X678500Y477760I-1000J0D01*
G01*
X185600Y109900D02*
G03*
X185600Y109900I-1000J0D01*
G01*
X425111Y55000D02*
G03*
X425111Y55000I-361J0D01*
G01*
X325500Y127000D02*
G03*
X325500Y127000I-1000J0D01*
G01*
X633000Y223500D02*
G03*
X633000Y223500I-1000J0D01*
G01*
X192750Y429450D02*
G03*
X192750Y429450I-1000J0D01*
G01*
X508000Y151800D02*
G03*
X508000Y151800I-1000J0D01*
G01*
X375750Y370250D02*
Y374500D01*
X371500Y370250D02*
X375750D01*
Y440000D02*
Y444250D01*
X371500D02*
X375750D01*
X301750D02*
X306000D01*
X301750Y440000D02*
Y444250D01*
Y370250D02*
Y374500D01*
Y370250D02*
X306000D01*
X396999Y312809D02*
Y313809D01*
X404999Y312809D02*
Y313809D01*
X197000Y380500D02*
Y381500D01*
X205000Y380500D02*
Y381500D01*
X547000Y243000D02*
Y244000D01*
X539000Y243000D02*
Y244000D01*
X129000Y386250D02*
X130000D01*
X129000Y378250D02*
X130000D01*
X290500Y134750D02*
Y135750D01*
X298500Y134750D02*
Y135750D01*
X268500Y374250D02*
X269500D01*
X268500Y366250D02*
X269500D01*
X531000Y243000D02*
Y244000D01*
X523000Y243000D02*
Y244000D01*
X591250Y68750D02*
Y69750D01*
X583250Y68750D02*
Y69750D01*
X625250Y68750D02*
Y69750D01*
X617250Y68750D02*
Y69750D01*
X92700Y82500D02*
Y209500D01*
X41900D02*
X92700D01*
X41900Y133300D02*
Y209500D01*
Y82500D02*
Y133300D01*
Y82500D02*
X92700D01*
X67300D02*
Y107900D01*
X92700D01*
X304500Y454000D02*
X305500D01*
X304500Y462000D02*
X305500D01*
X507000Y68500D02*
Y69500D01*
X515000Y68500D02*
Y69500D01*
X326500Y325750D02*
Y326750D01*
X318500Y325750D02*
Y326750D01*
X259180Y231750D02*
Y241750D01*
X264180Y233750D02*
Y239750D01*
X265180Y231750D02*
Y241750D01*
X260180Y236750D02*
X265180Y231750D01*
X260180Y236750D02*
X265180Y241750D01*
X262680Y235250D02*
Y238250D01*
X463500Y439250D02*
X464500D01*
X463500Y431250D02*
X464500D01*
X680300Y177050D02*
Y202450D01*
X654900D02*
X680300D01*
X654900Y177050D02*
Y227850D01*
X705700D01*
Y177050D02*
Y227850D01*
X654900Y177050D02*
X705700D01*
X109900Y564700D02*
X668700D01*
X109900Y513900D02*
Y564700D01*
Y513900D02*
X668700D01*
Y564700D01*
X643300Y539300D02*
X668700D01*
X643300D02*
Y564700D01*
X50000Y373500D02*
Y374500D01*
X58000Y373500D02*
Y374500D01*
X515000Y243000D02*
Y244000D01*
X507000Y243000D02*
Y244000D01*
X387500Y442250D02*
Y443250D01*
X395500Y442250D02*
Y443250D01*
X334571Y328807D02*
X343500D01*
X334571Y316500D02*
Y328807D01*
X366250Y341750D02*
X367250D01*
X366250Y349750D02*
X367250D01*
X563000Y243000D02*
Y244000D01*
X555000Y243000D02*
Y244000D01*
X126500Y443000D02*
X127500D01*
X126500Y451000D02*
X127500D01*
X91000Y373500D02*
Y374500D01*
X83000Y373500D02*
Y374500D01*
X608250Y68750D02*
Y69750D01*
X600250Y68750D02*
Y69750D01*
X178750Y329000D02*
Y330000D01*
X186750Y329000D02*
Y330000D01*
X544500Y68750D02*
Y69750D01*
X536500Y68750D02*
Y69750D01*
X358750Y209750D02*
Y210750D01*
X366750Y209750D02*
Y210750D01*
X300000Y325750D02*
Y326750D01*
X308000Y325750D02*
Y326750D01*
X353250Y271000D02*
X354250D01*
X353250Y279000D02*
X354250D01*
X280002Y414753D02*
X289999D01*
X291998Y416753D01*
Y420751D01*
X289999Y422751D01*
X280002D01*
X291998Y434747D02*
Y426749D01*
X284001Y434747D01*
X282001D01*
X280002Y432747D01*
Y428749D01*
X282001Y426749D01*
X385164Y33081D02*
X383498Y34747D01*
X380166D01*
X378500Y33081D01*
Y31414D01*
X380166Y29748D01*
X383498D01*
X385164Y28082D01*
Y26416D01*
X383498Y24750D01*
X380166D01*
X378500Y26416D01*
X388497Y34747D02*
Y24750D01*
X391829Y28082D01*
X395161Y24750D01*
Y34747D01*
X397918Y274914D02*
X396252Y273248D01*
Y269916D01*
X397918Y268250D01*
X404582D01*
X406248Y269916D01*
Y273248D01*
X404582Y274914D01*
X406248Y284911D02*
Y278247D01*
X399584Y284911D01*
X397918D01*
X396252Y283245D01*
Y279913D01*
X397918Y278247D01*
X406248Y294908D02*
Y288244D01*
X399584Y294908D01*
X397918D01*
X396252Y293242D01*
Y289910D01*
X397918Y288244D01*
X530498Y25087D02*
X520502D01*
Y30085D01*
X522168Y31752D01*
X525500D01*
X527166Y30085D01*
Y25087D01*
Y28419D02*
X530498Y31752D01*
Y40082D02*
X520502D01*
X525500Y35084D01*
Y41748D01*
X530498Y45081D02*
Y48413D01*
Y46747D01*
X520502D01*
X522168Y45081D01*
X181418Y375164D02*
X179752Y373498D01*
Y370166D01*
X181418Y368500D01*
X188082D01*
X189748Y370166D01*
Y373498D01*
X188082Y375164D01*
X181418Y378497D02*
X179752Y380163D01*
Y383495D01*
X181418Y385161D01*
X183084D01*
X184750Y383495D01*
Y381829D01*
Y383495D01*
X186416Y385161D01*
X188082D01*
X189748Y383495D01*
Y380163D01*
X188082Y378497D01*
X189748Y395158D02*
Y388493D01*
X183084Y395158D01*
X181418D01*
X179752Y393492D01*
Y390160D01*
X181418Y388493D01*
X408668Y404919D02*
X407001Y403252D01*
Y399920D01*
X408668Y398254D01*
X415332D01*
X416998Y399920D01*
Y403252D01*
X415332Y404919D01*
X416998Y408251D02*
Y411583D01*
Y409917D01*
X407001D01*
X408668Y408251D01*
X415332Y416581D02*
X416998Y418248D01*
Y421580D01*
X415332Y423246D01*
X408668D01*
X407001Y421580D01*
Y418248D01*
X408668Y416581D01*
X410334D01*
X412000Y418248D01*
Y423246D01*
X540418Y268085D02*
X538752Y266419D01*
Y263087D01*
X540418Y261421D01*
X547082D01*
X548748Y263087D01*
Y266419D01*
X547082Y268085D01*
X540418Y271418D02*
X538752Y273084D01*
Y276416D01*
X540418Y278082D01*
X542084D01*
X543750Y276416D01*
Y274750D01*
Y276416D01*
X545416Y278082D01*
X547082D01*
X548748Y276416D01*
Y273084D01*
X547082Y271418D01*
X540418Y281415D02*
X538752Y283081D01*
Y286413D01*
X540418Y288079D01*
X542084D01*
X543750Y286413D01*
X545416Y288079D01*
X547082D01*
X548748Y286413D01*
Y283081D01*
X547082Y281415D01*
X545416D01*
X543750Y283081D01*
X542084Y281415D01*
X540418D01*
X543750Y283081D02*
Y286413D01*
X154586Y386082D02*
X152919Y387748D01*
X149587D01*
X147921Y386082D01*
Y379418D01*
X149587Y377752D01*
X152919D01*
X154586Y379418D01*
X164582Y377752D02*
X157918D01*
X164582Y384416D01*
Y386082D01*
X162916Y387748D01*
X159584D01*
X157918Y386082D01*
X167915Y387748D02*
X174579D01*
Y386082D01*
X167915Y379418D01*
Y377752D01*
X256748Y152919D02*
X246752D01*
Y157918D01*
X248418Y159584D01*
X251750D01*
X253416Y157918D01*
Y152919D01*
Y156252D02*
X256748Y159584D01*
Y169581D02*
Y162916D01*
X250084Y169581D01*
X248418D01*
X246752Y167915D01*
Y164582D01*
X248418Y162916D01*
X560498Y23171D02*
X550502D01*
Y28169D01*
X552168Y29836D01*
X555500D01*
X557166Y28169D01*
Y23171D01*
Y26503D02*
X560498Y29836D01*
X552168Y33168D02*
X550502Y34834D01*
Y38166D01*
X552168Y39832D01*
X553834D01*
X555500Y38166D01*
Y36500D01*
Y38166D01*
X557166Y39832D01*
X558832D01*
X560498Y38166D01*
Y34834D01*
X558832Y33168D01*
Y43165D02*
X560498Y44831D01*
Y48163D01*
X558832Y49829D01*
X552168D01*
X550502Y48163D01*
Y44831D01*
X552168Y43165D01*
X553834D01*
X555500Y44831D01*
Y49829D01*
X291834Y158917D02*
X290501Y157584D01*
Y154918D01*
X291834Y153586D01*
X297166D01*
X298499Y154918D01*
Y157584D01*
X297166Y158917D01*
Y161583D02*
X298499Y162916D01*
Y165582D01*
X297166Y166915D01*
X291834D01*
X290501Y165582D01*
Y162916D01*
X291834Y161583D01*
X293167D01*
X294500Y162916D01*
Y166915D01*
X231173Y373082D02*
X229506Y374748D01*
X226174D01*
X224508Y373082D01*
Y366418D01*
X226174Y364752D01*
X229506D01*
X231173Y366418D01*
X234505Y364752D02*
X237837D01*
X236171D01*
Y374748D01*
X234505Y373082D01*
X247834Y364752D02*
Y374748D01*
X242836Y369750D01*
X249500D01*
X397498Y228171D02*
X387502D01*
Y233169D01*
X389168Y234835D01*
X392500D01*
X394166Y233169D01*
Y228171D01*
Y231503D02*
X397498Y234835D01*
Y244832D02*
Y238168D01*
X390834Y244832D01*
X389168D01*
X387502Y243166D01*
Y239834D01*
X389168Y238168D01*
X395832Y248165D02*
X397498Y249831D01*
Y253163D01*
X395832Y254829D01*
X389168D01*
X387502Y253163D01*
Y249831D01*
X389168Y248165D01*
X390834D01*
X392500Y249831D01*
Y254829D01*
X644507Y271002D02*
X648505D01*
X646506D01*
Y282998D01*
X644507Y280999D01*
X654504Y271002D02*
Y282998D01*
X660502D01*
X662501Y280999D01*
Y277000D01*
X660502Y275001D01*
X654504D01*
X666500Y271002D02*
Y282998D01*
X672498D01*
X674497Y280999D01*
Y277000D01*
X672498Y275001D01*
X666500D01*
X686493Y280999D02*
X684494Y282998D01*
X680495D01*
X678496Y280999D01*
Y278999D01*
X680495Y277000D01*
X684494D01*
X686493Y275001D01*
Y273001D01*
X684494Y271002D01*
X680495D01*
X678496Y273001D01*
X371669Y174252D02*
Y184248D01*
X376668D01*
X378334Y182582D01*
Y179250D01*
X376668Y177584D01*
X371669D01*
X375002D02*
X378334Y174252D01*
X381666Y184248D02*
X388331D01*
Y182582D01*
X381666Y175918D01*
Y174252D01*
X523668Y267915D02*
X522002Y266248D01*
Y262916D01*
X523668Y261250D01*
X530332D01*
X531998Y262916D01*
Y266248D01*
X530332Y267915D01*
X531998Y277911D02*
Y271247D01*
X525334Y277911D01*
X523668D01*
X522002Y276245D01*
Y272913D01*
X523668Y271247D01*
X531998Y286242D02*
X522002D01*
X527000Y281244D01*
Y287908D01*
X583668Y29836D02*
X582002Y28169D01*
Y24837D01*
X583668Y23171D01*
X590332D01*
X591998Y24837D01*
Y28169D01*
X590332Y29836D01*
X591998Y39832D02*
Y33168D01*
X585334Y39832D01*
X583668D01*
X582002Y38166D01*
Y34834D01*
X583668Y33168D01*
X590332Y43165D02*
X591998Y44831D01*
Y48163D01*
X590332Y49829D01*
X583668D01*
X582002Y48163D01*
Y44831D01*
X583668Y43165D01*
X585334D01*
X587000Y44831D01*
Y49829D01*
X95168Y502502D02*
X93502Y500835D01*
Y497503D01*
X95168Y495837D01*
X101832D01*
X103498Y497503D01*
Y500835D01*
X101832Y502502D01*
X103498Y512498D02*
Y505834D01*
X96834Y512498D01*
X95168D01*
X93502Y510832D01*
Y507500D01*
X95168Y505834D01*
X103498Y515831D02*
Y519163D01*
Y517497D01*
X93502D01*
X95168Y515831D01*
X242252Y184086D02*
X252248D01*
Y190750D01*
Y194082D02*
Y197414D01*
Y195748D01*
X242252D01*
X243918Y194082D01*
X270998Y152754D02*
X261002D01*
Y157753D01*
X262668Y159419D01*
X266000D01*
X267666Y157753D01*
Y152754D01*
Y156086D02*
X270998Y159419D01*
Y162751D02*
Y166083D01*
Y164417D01*
X261002D01*
X262668Y162751D01*
X270998Y177746D02*
Y171082D01*
X264334Y177746D01*
X262668D01*
X261002Y176080D01*
Y172748D01*
X262668Y171082D01*
X75748Y327421D02*
X65752D01*
Y332419D01*
X67418Y334086D01*
X70750D01*
X72416Y332419D01*
Y327421D01*
Y330753D02*
X75748Y334086D01*
X67418Y337418D02*
X65752Y339084D01*
Y342416D01*
X67418Y344082D01*
X69084D01*
X70750Y342416D01*
Y340750D01*
Y342416D01*
X72416Y344082D01*
X74082D01*
X75748Y342416D01*
Y339084D01*
X74082Y337418D01*
X67418Y347415D02*
X65752Y349081D01*
Y352413D01*
X67418Y354079D01*
X69084D01*
X70750Y352413D01*
Y350747D01*
Y352413D01*
X72416Y354079D01*
X74082D01*
X75748Y352413D01*
Y349081D01*
X74082Y347415D01*
X219168Y302414D02*
X217502Y300748D01*
Y297416D01*
X219168Y295750D01*
X225832D01*
X227498Y297416D01*
Y300748D01*
X225832Y302414D01*
X227498Y310745D02*
X217502D01*
X222500Y305747D01*
Y312411D01*
X144754Y426002D02*
Y435998D01*
X149752D01*
X151419Y434332D01*
Y431000D01*
X149752Y429334D01*
X144754D01*
X148086D02*
X151419Y426002D01*
X154751D02*
X158083D01*
X156417D01*
Y435998D01*
X154751Y434332D01*
X169746Y435998D02*
X166414Y434332D01*
X163081Y431000D01*
Y427668D01*
X164748Y426002D01*
X168080D01*
X169746Y427668D01*
Y429334D01*
X168080Y431000D01*
X163081D01*
X325498Y227919D02*
X315502D01*
Y232918D01*
X317168Y234584D01*
X320500D01*
X322166Y232918D01*
Y227919D01*
Y231252D02*
X325498Y234584D01*
Y242915D02*
X315502D01*
X320500Y237916D01*
Y244581D01*
X618168Y31502D02*
X616502Y29836D01*
Y26503D01*
X618168Y24837D01*
X624832D01*
X626498Y26503D01*
Y29836D01*
X624832Y31502D01*
X618168Y34834D02*
X616502Y36500D01*
Y39832D01*
X618168Y41498D01*
X619834D01*
X621500Y39832D01*
Y38166D01*
Y39832D01*
X623166Y41498D01*
X624832D01*
X626498Y39832D01*
Y36500D01*
X624832Y34834D01*
X626498Y44831D02*
Y48163D01*
Y46497D01*
X616502D01*
X618168Y44831D01*
X484189Y413753D02*
Y423750D01*
X489187D01*
X490854Y422083D01*
Y418751D01*
X489187Y417085D01*
X484189D01*
X487521D02*
X490854Y413753D01*
X500850D02*
X494186D01*
X500850Y420417D01*
Y422083D01*
X499184Y423750D01*
X495852D01*
X494186Y422083D01*
X510847Y423750D02*
X507515Y422083D01*
X504183Y418751D01*
Y415419D01*
X505849Y413753D01*
X509181D01*
X510847Y415419D01*
Y417085D01*
X509181Y418751D01*
X504183D01*
X184252Y250336D02*
X192582D01*
X194248Y252002D01*
Y255334D01*
X192582Y257000D01*
X184252D01*
X194248Y260332D02*
Y263664D01*
Y261998D01*
X184252D01*
X185918Y260332D01*
X145671Y344752D02*
Y354748D01*
X150669D01*
X152336Y353082D01*
Y349750D01*
X150669Y348084D01*
X145671D01*
X149003D02*
X152336Y344752D01*
X160666D02*
Y354748D01*
X155668Y349750D01*
X162332D01*
X165665Y353082D02*
X167331Y354748D01*
X170663D01*
X172329Y353082D01*
Y346418D01*
X170663Y344752D01*
X167331D01*
X165665Y346418D01*
Y353082D01*
X188748Y152419D02*
X178752D01*
Y157418D01*
X180418Y159084D01*
X183750D01*
X185416Y157418D01*
Y152419D01*
Y155752D02*
X188748Y159084D01*
X180418Y162416D02*
X178752Y164082D01*
Y167414D01*
X180418Y169081D01*
X182084D01*
X183750Y167414D01*
X185416Y169081D01*
X187082D01*
X188748Y167414D01*
Y164082D01*
X187082Y162416D01*
X185416D01*
X183750Y164082D01*
X182084Y162416D01*
X180418D01*
X183750Y164082D02*
Y167414D01*
X219168Y257084D02*
X217502Y255418D01*
Y252085D01*
X219168Y250419D01*
X225832D01*
X227498Y252085D01*
Y255418D01*
X225832Y257084D01*
X227498Y267081D02*
Y260416D01*
X220834Y267081D01*
X219168D01*
X217502Y265415D01*
Y262082D01*
X219168Y260416D01*
X352498Y227754D02*
X342502D01*
Y232752D01*
X344168Y234419D01*
X347500D01*
X349166Y232752D01*
Y227754D01*
Y231086D02*
X352498Y234419D01*
Y237751D02*
Y241083D01*
Y239417D01*
X342502D01*
X344168Y237751D01*
X342502Y252746D02*
Y246081D01*
X347500D01*
X345834Y249414D01*
Y251080D01*
X347500Y252746D01*
X350832D01*
X352498Y251080D01*
Y247748D01*
X350832Y246081D01*
X282085Y106752D02*
Y116748D01*
X287084D01*
X288750Y115082D01*
Y111750D01*
X287084Y110084D01*
X282085D01*
X292082Y106752D02*
X295415D01*
X293748D01*
Y116748D01*
X292082Y115082D01*
X50417Y76916D02*
X49084Y78249D01*
X46418D01*
X45086Y76916D01*
Y71584D01*
X46418Y70251D01*
X49084D01*
X50417Y71584D01*
X53083Y76916D02*
X54416Y78249D01*
X57082D01*
X58415Y76916D01*
Y75583D01*
X57082Y74250D01*
X58415Y72917D01*
Y71584D01*
X57082Y70251D01*
X54416D01*
X53083Y71584D01*
Y72917D01*
X54416Y74250D01*
X53083Y75583D01*
Y76916D01*
X54416Y74250D02*
X57082D01*
X42002Y410169D02*
X50332D01*
X51998Y411836D01*
Y415168D01*
X50332Y416834D01*
X42002D01*
X43668Y420166D02*
X42002Y421832D01*
Y425164D01*
X43668Y426831D01*
X45334D01*
X47000Y425164D01*
Y423498D01*
Y425164D01*
X48666Y426831D01*
X50332D01*
X51998Y425164D01*
Y421832D01*
X50332Y420166D01*
X86748Y492671D02*
X76752D01*
Y497669D01*
X78418Y499335D01*
X81750D01*
X83416Y497669D01*
Y492671D01*
Y496003D02*
X86748Y499335D01*
X78418Y502668D02*
X76752Y504334D01*
Y507666D01*
X78418Y509332D01*
X80084D01*
X81750Y507666D01*
Y506000D01*
Y507666D01*
X83416Y509332D01*
X85082D01*
X86748Y507666D01*
Y504334D01*
X85082Y502668D01*
X86748Y517663D02*
X76752D01*
X81750Y512664D01*
Y519329D01*
X642998Y23421D02*
X633002D01*
Y28419D01*
X634668Y30085D01*
X638000D01*
X639666Y28419D01*
Y23421D01*
Y26753D02*
X642998Y30085D01*
X634668Y33418D02*
X633002Y35084D01*
Y38416D01*
X634668Y40082D01*
X636334D01*
X638000Y38416D01*
Y36750D01*
Y38416D01*
X639666Y40082D01*
X641332D01*
X642998Y38416D01*
Y35084D01*
X641332Y33418D01*
X633002Y50079D02*
X634668Y46747D01*
X638000Y43415D01*
X641332D01*
X642998Y45081D01*
Y48413D01*
X641332Y50079D01*
X639666D01*
X638000Y48413D01*
Y43415D01*
X272335Y459666D02*
X271002Y460999D01*
X268336D01*
X267003Y459666D01*
Y454334D01*
X268336Y453001D01*
X271002D01*
X272335Y454334D01*
X275001Y453001D02*
X277666D01*
X276334D01*
Y460999D01*
X275001Y459666D01*
X281665D02*
X282998Y460999D01*
X285664D01*
X286997Y459666D01*
Y458333D01*
X285664Y457000D01*
X284331D01*
X285664D01*
X286997Y455667D01*
Y454334D01*
X285664Y453001D01*
X282998D01*
X281665Y454334D01*
X507418Y30085D02*
X505752Y28419D01*
Y25087D01*
X507418Y23421D01*
X514082D01*
X515748Y25087D01*
Y28419D01*
X514082Y30085D01*
X507418Y33418D02*
X505752Y35084D01*
Y38416D01*
X507418Y40082D01*
X509084D01*
X510750Y38416D01*
Y36750D01*
Y38416D01*
X512416Y40082D01*
X514082D01*
X515748Y38416D01*
Y35084D01*
X514082Y33418D01*
X515748Y48413D02*
X505752D01*
X510750Y43415D01*
Y50079D01*
X319418Y289423D02*
X317752Y287757D01*
Y284424D01*
X319418Y282758D01*
X326082D01*
X327748Y284424D01*
Y287757D01*
X326082Y289423D01*
X327748Y292755D02*
Y296087D01*
Y294421D01*
X317752D01*
X319418Y292755D01*
X317752Y301085D02*
Y307750D01*
X319418D01*
X326082Y301085D01*
X327748D01*
X216498Y152419D02*
X205502D01*
Y157917D01*
X207334Y159750D01*
X211000D01*
X212833Y157917D01*
Y152419D01*
Y156084D02*
X216498Y159750D01*
Y163416D02*
Y167081D01*
Y165248D01*
X205502D01*
X207334Y163416D01*
X483689Y355003D02*
Y365000D01*
X488687D01*
X490354Y363333D01*
Y360001D01*
X488687Y358335D01*
X483689D01*
X487021D02*
X490354Y355003D01*
X500350D02*
X493686D01*
X500350Y361667D01*
Y363333D01*
X498684Y365000D01*
X495352D01*
X493686Y363333D01*
X510347Y355003D02*
X503683D01*
X510347Y361667D01*
Y363333D01*
X508681Y365000D01*
X505349D01*
X503683Y363333D01*
X564502Y24169D02*
X574498D01*
Y30834D01*
Y40831D02*
Y34166D01*
X567834Y40831D01*
X566168D01*
X564502Y39165D01*
Y35832D01*
X566168Y34166D01*
X251672Y222748D02*
Y212752D01*
X256670D01*
X258336Y214418D01*
Y221082D01*
X256670Y222748D01*
X251672D01*
X261669D02*
X265001D01*
X263335D01*
Y212752D01*
X261669D01*
X265001D01*
X274998Y222748D02*
X271665D01*
X269999Y221082D01*
Y214418D01*
X271665Y212752D01*
X274998D01*
X276664Y214418D01*
Y221082D01*
X274998Y222748D01*
X279996Y212752D02*
X283328D01*
X281662D01*
Y222748D01*
X279996Y221082D01*
X422748Y270337D02*
X412752D01*
Y275336D01*
X414418Y277002D01*
X417750D01*
X419416Y275336D01*
Y270337D01*
Y273669D02*
X422748Y277002D01*
X414418Y280334D02*
X412752Y282000D01*
Y285332D01*
X414418Y286998D01*
X416084D01*
X417750Y285332D01*
Y283666D01*
Y285332D01*
X419416Y286998D01*
X421082D01*
X422748Y285332D01*
Y282000D01*
X421082Y280334D01*
X422748Y290331D02*
Y293663D01*
Y291997D01*
X412752D01*
X414418Y290331D01*
X482171Y295752D02*
Y305748D01*
X487169D01*
X488835Y304082D01*
Y300750D01*
X487169Y299084D01*
X482171D01*
X485503D02*
X488835Y295752D01*
X492168Y304082D02*
X493834Y305748D01*
X497166D01*
X498832Y304082D01*
Y302416D01*
X497166Y300750D01*
X495500D01*
X497166D01*
X498832Y299084D01*
Y297418D01*
X497166Y295752D01*
X493834D01*
X492168Y297418D01*
X502164Y304082D02*
X503831Y305748D01*
X507163D01*
X508829Y304082D01*
Y297418D01*
X507163Y295752D01*
X503831D01*
X502164Y297418D01*
Y304082D01*
X108498Y327921D02*
X98502D01*
Y332919D01*
X100168Y334585D01*
X103500D01*
X105166Y332919D01*
Y327921D01*
Y331253D02*
X108498Y334585D01*
X100168Y337918D02*
X98502Y339584D01*
Y342916D01*
X100168Y344582D01*
X101834D01*
X103500Y342916D01*
Y341250D01*
Y342916D01*
X105166Y344582D01*
X106832D01*
X108498Y342916D01*
Y339584D01*
X106832Y337918D01*
X108498Y354579D02*
Y347915D01*
X101834Y354579D01*
X100168D01*
X98502Y352913D01*
Y349581D01*
X100168Y347915D01*
X219168Y279914D02*
X217502Y278248D01*
Y274916D01*
X219168Y273250D01*
X225832D01*
X227498Y274916D01*
Y278248D01*
X225832Y279914D01*
X219168Y283247D02*
X217502Y284913D01*
Y288245D01*
X219168Y289911D01*
X220834D01*
X222500Y288245D01*
Y286579D01*
Y288245D01*
X224166Y289911D01*
X225832D01*
X227498Y288245D01*
Y284913D01*
X225832Y283247D01*
X490835Y438082D02*
X489169Y439748D01*
X485837D01*
X484171Y438082D01*
Y431418D01*
X485837Y429752D01*
X489169D01*
X490835Y431418D01*
X494168Y438082D02*
X495834Y439748D01*
X499166D01*
X500832Y438082D01*
Y436416D01*
X499166Y434750D01*
X497500D01*
X499166D01*
X500832Y433084D01*
Y431418D01*
X499166Y429752D01*
X495834D01*
X494168Y431418D01*
X504165Y439748D02*
X510829D01*
Y438082D01*
X504165Y431418D01*
Y429752D01*
X642668Y200336D02*
X641002Y198669D01*
Y195337D01*
X642668Y193671D01*
X649332D01*
X650998Y195337D01*
Y198669D01*
X649332Y200336D01*
X642668Y203668D02*
X641002Y205334D01*
Y208666D01*
X642668Y210332D01*
X644334D01*
X646000Y208666D01*
Y207000D01*
Y208666D01*
X647666Y210332D01*
X649332D01*
X650998Y208666D01*
Y205334D01*
X649332Y203668D01*
X641002Y220329D02*
Y213664D01*
X646000D01*
X644334Y216997D01*
Y218663D01*
X646000Y220329D01*
X649332D01*
X650998Y218663D01*
Y215331D01*
X649332Y213664D01*
X674584Y530168D02*
X673251Y528835D01*
Y526170D01*
X674584Y524837D01*
X679916D01*
X681249Y526170D01*
Y528835D01*
X679916Y530168D01*
X681249Y538166D02*
Y532834D01*
X675917Y538166D01*
X674584D01*
X673251Y536833D01*
Y534167D01*
X674584Y532834D01*
Y540832D02*
X673251Y542164D01*
Y544830D01*
X674584Y546163D01*
X679916D01*
X681249Y544830D01*
Y542164D01*
X679916Y540832D01*
X674584D01*
X229748Y152669D02*
X219752D01*
Y157668D01*
X221418Y159334D01*
X224750D01*
X226416Y157668D01*
Y152669D01*
Y156002D02*
X229748Y159334D01*
X219752Y169331D02*
X221418Y165998D01*
X224750Y162666D01*
X228082D01*
X229748Y164332D01*
Y167665D01*
X228082Y169331D01*
X226416D01*
X224750Y167665D01*
Y162666D01*
X579998Y261671D02*
X570002D01*
Y266669D01*
X571668Y268335D01*
X575000D01*
X576666Y266669D01*
Y261671D01*
Y265003D02*
X579998Y268335D01*
Y276666D02*
X570002D01*
X575000Y271668D01*
Y278332D01*
X571668Y281665D02*
X570002Y283331D01*
Y286663D01*
X571668Y288329D01*
X573334D01*
X575000Y286663D01*
Y284997D01*
Y286663D01*
X576666Y288329D01*
X578332D01*
X579998Y286663D01*
Y283331D01*
X578332Y281665D01*
X145921Y361002D02*
Y370998D01*
X150919D01*
X152585Y369332D01*
Y366000D01*
X150919Y364334D01*
X145921D01*
X149253D02*
X152585Y361002D01*
X155918Y369332D02*
X157584Y370998D01*
X160916D01*
X162582Y369332D01*
Y367666D01*
X160916Y366000D01*
X159250D01*
X160916D01*
X162582Y364334D01*
Y362668D01*
X160916Y361002D01*
X157584D01*
X155918Y362668D01*
X165914Y369332D02*
X167581Y370998D01*
X170913D01*
X172579Y369332D01*
Y367666D01*
X170913Y366000D01*
X172579Y364334D01*
Y362668D01*
X170913Y361002D01*
X167581D01*
X165914Y362668D01*
Y364334D01*
X167581Y366000D01*
X165914Y367666D01*
Y369332D01*
X167581Y366000D02*
X170913D01*
X662334Y66748D02*
X659002D01*
X660668D01*
Y58418D01*
X659002Y56752D01*
X657336D01*
X655669Y58418D01*
X672331Y56752D02*
X665666D01*
X672331Y63416D01*
Y65082D01*
X670665Y66748D01*
X667332D01*
X665666Y65082D01*
X50918Y333835D02*
X49252Y332169D01*
Y328837D01*
X50918Y327171D01*
X57582D01*
X59248Y328837D01*
Y332169D01*
X57582Y333835D01*
X59248Y343832D02*
Y337168D01*
X52584Y343832D01*
X50918D01*
X49252Y342166D01*
Y338834D01*
X50918Y337168D01*
Y347165D02*
X49252Y348831D01*
Y352163D01*
X50918Y353829D01*
X52584D01*
X54250Y352163D01*
X55916Y353829D01*
X57582D01*
X59248Y352163D01*
Y348831D01*
X57582Y347165D01*
X55916D01*
X54250Y348831D01*
X52584Y347165D01*
X50918D01*
X54250Y348831D02*
Y352163D01*
X507168Y267915D02*
X505502Y266248D01*
Y262916D01*
X507168Y261250D01*
X513832D01*
X515498Y262916D01*
Y266248D01*
X513832Y267915D01*
X515498Y277911D02*
Y271247D01*
X508834Y277911D01*
X507168D01*
X505502Y276245D01*
Y272913D01*
X507168Y271247D01*
Y281244D02*
X505502Y282910D01*
Y286242D01*
X507168Y287908D01*
X508834D01*
X510500Y286242D01*
Y284576D01*
Y286242D01*
X512166Y287908D01*
X513832D01*
X515498Y286242D01*
Y282910D01*
X513832Y281244D01*
X613832Y269584D02*
X607168D01*
X605502Y267918D01*
Y264585D01*
X607168Y262919D01*
X613832D01*
X615498Y264585D01*
Y267918D01*
X612166Y266252D02*
X615498Y269584D01*
Y267918D02*
X613832Y269584D01*
X615498Y279581D02*
Y272916D01*
X608834Y279581D01*
X607168D01*
X605502Y277915D01*
Y274582D01*
X607168Y272916D01*
X58497Y492939D02*
X48500D01*
Y497937D01*
X50167Y499603D01*
X53499D01*
X55165Y497937D01*
Y492939D01*
Y496271D02*
X58497Y499603D01*
X50167Y502936D02*
X48500Y504602D01*
Y507934D01*
X50167Y509600D01*
X51833D01*
X53499Y507934D01*
Y506268D01*
Y507934D01*
X55165Y509600D01*
X56831D01*
X58497Y507934D01*
Y504602D01*
X56831Y502936D01*
X48500Y512933D02*
Y519597D01*
X50167D01*
X56831Y512933D01*
X58497D01*
X389084Y409585D02*
X387751Y408252D01*
Y405586D01*
X389084Y404253D01*
X394416D01*
X395749Y405586D01*
Y408252D01*
X394416Y409585D01*
X395749Y412251D02*
Y414916D01*
Y413584D01*
X387751D01*
X389084Y412251D01*
X395749Y424247D02*
Y418915D01*
X390417Y424247D01*
X389084D01*
X387751Y422914D01*
Y420248D01*
X389084Y418915D01*
X335586Y342248D02*
X342250Y332252D01*
Y342248D02*
X335586Y332252D01*
X345582D02*
X348914D01*
X347248D01*
Y342248D01*
X345582Y340582D01*
X391669Y348832D02*
X390002Y350498D01*
X386670D01*
X385004Y348832D01*
Y342168D01*
X386670Y340502D01*
X390002D01*
X391669Y342168D01*
X395001Y340502D02*
X398333D01*
X396667D01*
Y350498D01*
X395001Y348832D01*
X409996Y350498D02*
X406664Y348832D01*
X403331Y345500D01*
Y342168D01*
X404998Y340502D01*
X408330D01*
X409996Y342168D01*
Y343834D01*
X408330Y345500D01*
X403331D01*
X284248Y152754D02*
X274251D01*
Y157752D01*
X275918Y159419D01*
X279250D01*
X280916Y157752D01*
Y152754D01*
Y156086D02*
X284248Y159419D01*
Y162751D02*
Y166083D01*
Y164417D01*
X274251D01*
X275918Y162751D01*
X284248Y176080D02*
X274251D01*
X279250Y171082D01*
Y177746D01*
X252418Y337585D02*
X250752Y335919D01*
Y332586D01*
X252418Y330920D01*
X259082D01*
X260748Y332586D01*
Y335919D01*
X259082Y337585D01*
X260748Y340917D02*
Y344249D01*
Y342583D01*
X250752D01*
X252418Y340917D01*
X260748Y349248D02*
Y352580D01*
Y350914D01*
X250752D01*
X252418Y349248D01*
X555668Y267836D02*
X554002Y266169D01*
Y262837D01*
X555668Y261171D01*
X562332D01*
X563998Y262837D01*
Y266169D01*
X562332Y267836D01*
X555668Y271168D02*
X554002Y272834D01*
Y276166D01*
X555668Y277832D01*
X557334D01*
X559000Y276166D01*
Y274500D01*
Y276166D01*
X560666Y277832D01*
X562332D01*
X563998Y276166D01*
Y272834D01*
X562332Y271168D01*
Y281164D02*
X563998Y282831D01*
Y286163D01*
X562332Y287829D01*
X555668D01*
X554002Y286163D01*
Y282831D01*
X555668Y281164D01*
X557334D01*
X559000Y282831D01*
Y287829D01*
X151834Y295832D02*
X150501Y294499D01*
Y291833D01*
X151834Y290500D01*
X157166D01*
X158499Y291833D01*
Y294499D01*
X157166Y295832D01*
X150501Y303829D02*
X151834Y301163D01*
X154500Y298497D01*
X157166D01*
X158499Y299830D01*
Y302496D01*
X157166Y303829D01*
X155833D01*
X154500Y302496D01*
Y298497D01*
X152168Y449166D02*
X150836Y450499D01*
X148170D01*
X146837Y449166D01*
Y443834D01*
X148170Y442501D01*
X150836D01*
X152168Y443834D01*
X160166Y442501D02*
X154834D01*
X160166Y447833D01*
Y449166D01*
X158833Y450499D01*
X156167D01*
X154834Y449166D01*
X168163Y450499D02*
X165497Y449166D01*
X162832Y446500D01*
Y443834D01*
X164165Y442501D01*
X166830D01*
X168163Y443834D01*
Y445167D01*
X166830Y446500D01*
X162832D01*
X701752Y307169D02*
X710082D01*
X711748Y308836D01*
Y312168D01*
X710082Y313834D01*
X701752D01*
Y323831D02*
X703418Y320498D01*
X706750Y317166D01*
X710082D01*
X711748Y318832D01*
Y322164D01*
X710082Y323831D01*
X708416D01*
X706750Y322164D01*
Y317166D01*
X311498Y227669D02*
X301502D01*
Y232668D01*
X303168Y234334D01*
X306500D01*
X308166Y232668D01*
Y227669D01*
Y231002D02*
X311498Y234334D01*
X303168Y237666D02*
X301502Y239332D01*
Y242665D01*
X303168Y244331D01*
X304834D01*
X306500Y242665D01*
Y240998D01*
Y242665D01*
X308166Y244331D01*
X309832D01*
X311498Y242665D01*
Y239332D01*
X309832Y237666D01*
X385750Y104582D02*
X384084Y106248D01*
X380752D01*
X379086Y104582D01*
Y97918D01*
X380752Y96252D01*
X384084D01*
X385750Y97918D01*
X389082Y96252D02*
X392415D01*
X390748D01*
Y106248D01*
X389082Y104582D01*
X383748Y228171D02*
X373752D01*
Y233169D01*
X375418Y234835D01*
X378750D01*
X380416Y233169D01*
Y228171D01*
Y231503D02*
X383748Y234835D01*
Y244832D02*
Y238168D01*
X377084Y244832D01*
X375418D01*
X373752Y243166D01*
Y239834D01*
X375418Y238168D01*
Y248165D02*
X373752Y249831D01*
Y253163D01*
X375418Y254829D01*
X377084D01*
X378750Y253163D01*
X380416Y254829D01*
X382082D01*
X383748Y253163D01*
Y249831D01*
X382082Y248165D01*
X380416D01*
X378750Y249831D01*
X377084Y248165D01*
X375418D01*
X378750Y249831D02*
Y253163D01*
X83168Y334664D02*
X81502Y332998D01*
Y329666D01*
X83168Y328000D01*
X89832D01*
X91498Y329666D01*
Y332998D01*
X89832Y334664D01*
X91498Y344661D02*
Y337997D01*
X84834Y344661D01*
X83168D01*
X81502Y342995D01*
Y339663D01*
X83168Y337997D01*
X81502Y354658D02*
Y347994D01*
X86500D01*
X84834Y351326D01*
Y352992D01*
X86500Y354658D01*
X89832D01*
X91498Y352992D01*
Y349660D01*
X89832Y347994D01*
X602168Y29915D02*
X600502Y28248D01*
Y24916D01*
X602168Y23250D01*
X608832D01*
X610498Y24916D01*
Y28248D01*
X608832Y29915D01*
X602168Y33247D02*
X600502Y34913D01*
Y38245D01*
X602168Y39911D01*
X603834D01*
X605500Y38245D01*
Y36579D01*
Y38245D01*
X607166Y39911D01*
X608832D01*
X610498Y38245D01*
Y34913D01*
X608832Y33247D01*
X602168Y43244D02*
X600502Y44910D01*
Y48242D01*
X602168Y49908D01*
X608832D01*
X610498Y48242D01*
Y44910D01*
X608832Y43244D01*
X602168D01*
X484171Y399252D02*
Y409248D01*
X489169D01*
X490835Y407582D01*
Y404250D01*
X489169Y402584D01*
X484171D01*
X487503D02*
X490835Y399252D01*
X500832D02*
X494168D01*
X500832Y405916D01*
Y407582D01*
X499166Y409248D01*
X495834D01*
X494168Y407582D01*
X510829Y409248D02*
X504165D01*
Y404250D01*
X507497Y405916D01*
X509163D01*
X510829Y404250D01*
Y400918D01*
X509163Y399252D01*
X505831D01*
X504165Y400918D01*
X175748Y153670D02*
X165752D01*
Y158668D01*
X167418Y160335D01*
X170750D01*
X172416Y158668D01*
Y153670D01*
Y157002D02*
X175748Y160335D01*
Y163667D02*
Y166999D01*
Y165333D01*
X165752D01*
X167418Y163667D01*
X175748Y171998D02*
Y175330D01*
Y173664D01*
X165752D01*
X167418Y171998D01*
X485319Y340250D02*
Y350247D01*
X490317D01*
X491984Y348581D01*
Y345249D01*
X490317Y343583D01*
X485319D01*
X488651D02*
X491984Y340250D01*
X501980D02*
X495316D01*
X501980Y346915D01*
Y348581D01*
X500314Y350247D01*
X496982D01*
X495316Y348581D01*
X505313Y340250D02*
X508645D01*
X506979D01*
Y350247D01*
X505313Y348581D01*
X338998Y227754D02*
X329002D01*
Y232752D01*
X330668Y234419D01*
X334000D01*
X335666Y232752D01*
Y227754D01*
Y231086D02*
X338998Y234419D01*
Y237751D02*
Y241083D01*
Y239417D01*
X329002D01*
X330668Y237751D01*
Y246081D02*
X329002Y247748D01*
Y251080D01*
X330668Y252746D01*
X332334D01*
X334000Y251080D01*
Y249414D01*
Y251080D01*
X335666Y252746D01*
X337332D01*
X338998Y251080D01*
Y247748D01*
X337332Y246081D01*
X162668Y328414D02*
X161002Y326748D01*
Y323416D01*
X162668Y321750D01*
X169332D01*
X170998Y323416D01*
Y326748D01*
X169332Y328414D01*
X161002Y331747D02*
Y338411D01*
X162668D01*
X169332Y331747D01*
X170998D01*
X593498Y261421D02*
X583502D01*
Y266419D01*
X585168Y268085D01*
X588500D01*
X590166Y266419D01*
Y261421D01*
Y264753D02*
X593498Y268085D01*
Y276416D02*
X583502D01*
X588500Y271418D01*
Y278082D01*
X593498Y288079D02*
Y281415D01*
X586834Y288079D01*
X585168D01*
X583502Y286413D01*
Y283081D01*
X585168Y281415D01*
X537168Y30085D02*
X535502Y28419D01*
Y25087D01*
X537168Y23421D01*
X543832D01*
X545498Y25087D01*
Y28419D01*
X543832Y30085D01*
X537168Y33418D02*
X535502Y35084D01*
Y38416D01*
X537168Y40082D01*
X538834D01*
X540500Y38416D01*
Y36750D01*
Y38416D01*
X542166Y40082D01*
X543832D01*
X545498Y38416D01*
Y35084D01*
X543832Y33418D01*
X537168Y43415D02*
X535502Y45081D01*
Y48413D01*
X537168Y50079D01*
X538834D01*
X540500Y48413D01*
Y46747D01*
Y48413D01*
X542166Y50079D01*
X543832D01*
X545498Y48413D01*
Y45081D01*
X543832Y43415D01*
X173500Y115248D02*
X170168D01*
X171834D01*
Y106918D01*
X170168Y105252D01*
X168502D01*
X166835Y106918D01*
X176832Y105252D02*
X180165D01*
X178498D01*
Y115248D01*
X176832Y113582D01*
X481921Y384502D02*
Y394498D01*
X486919D01*
X488586Y392832D01*
Y389500D01*
X486919Y387834D01*
X481921D01*
X485253D02*
X488586Y384502D01*
X498582D02*
X491918D01*
X498582Y391166D01*
Y392832D01*
X496916Y394498D01*
X493584D01*
X491918Y392832D01*
X501914D02*
X503581Y394498D01*
X506913D01*
X508579Y392832D01*
Y386168D01*
X506913Y384502D01*
X503581D01*
X501914Y386168D01*
Y392832D01*
X72998Y493171D02*
X63002D01*
Y498169D01*
X64668Y499836D01*
X68000D01*
X69666Y498169D01*
Y493171D01*
Y496503D02*
X72998Y499836D01*
X64668Y503168D02*
X63002Y504834D01*
Y508166D01*
X64668Y509832D01*
X66334D01*
X68000Y508166D01*
Y506500D01*
Y508166D01*
X69666Y509832D01*
X71332D01*
X72998Y508166D01*
Y504834D01*
X71332Y503168D01*
X63002Y519829D02*
Y513164D01*
X68000D01*
X66334Y516497D01*
Y518163D01*
X68000Y519829D01*
X71332D01*
X72998Y518163D01*
Y514831D01*
X71332Y513164D01*
X446421Y26502D02*
Y36498D01*
X451419D01*
X453086Y34832D01*
Y31500D01*
X451419Y29834D01*
X446421D01*
X449753D02*
X453086Y26502D01*
X463082Y34832D02*
X461416Y36498D01*
X458084D01*
X456418Y34832D01*
Y33166D01*
X458084Y31500D01*
X461416D01*
X463082Y29834D01*
Y28168D01*
X461416Y26502D01*
X458084D01*
X456418Y28168D01*
X466414Y36498D02*
X473079D01*
X469747D01*
Y26502D01*
X359418Y234914D02*
X357752Y233248D01*
Y229916D01*
X359418Y228250D01*
X366082D01*
X367748Y229916D01*
Y233248D01*
X366082Y234914D01*
X367748Y238247D02*
Y241579D01*
Y239913D01*
X357752D01*
X359418Y238247D01*
Y246577D02*
X357752Y248244D01*
Y251576D01*
X359418Y253242D01*
X366082D01*
X367748Y251576D01*
Y248244D01*
X366082Y246577D01*
X359418D01*
X389748Y267921D02*
X379752D01*
Y272919D01*
X381418Y274585D01*
X384750D01*
X386416Y272919D01*
Y267921D01*
Y271253D02*
X389748Y274585D01*
Y284582D02*
Y277918D01*
X383084Y284582D01*
X381418D01*
X379752Y282916D01*
Y279584D01*
X381418Y277918D01*
X379752Y287915D02*
Y294579D01*
X381418D01*
X388082Y287915D01*
X389748D01*
X483754Y310502D02*
Y320498D01*
X488752D01*
X490419Y318832D01*
Y315500D01*
X488752Y313834D01*
X483754D01*
X487086D02*
X490419Y310502D01*
X493751D02*
X497083D01*
X495417D01*
Y320498D01*
X493751Y318832D01*
X502081D02*
X503748Y320498D01*
X507080D01*
X508746Y318832D01*
Y317166D01*
X507080Y315500D01*
X508746Y313834D01*
Y312168D01*
X507080Y310502D01*
X503748D01*
X502081Y312168D01*
Y313834D01*
X503748Y315500D01*
X502081Y317166D01*
Y318832D01*
X503748Y315500D02*
X507080D01*
X300668Y289168D02*
X299002Y287502D01*
Y284170D01*
X300668Y282504D01*
X307332D01*
X308998Y284170D01*
Y287502D01*
X307332Y289168D01*
X308998Y292501D02*
Y295833D01*
Y294167D01*
X299002D01*
X300668Y292501D01*
X299002Y307496D02*
Y300831D01*
X304000D01*
X302334Y304164D01*
Y305830D01*
X304000Y307496D01*
X307332D01*
X308998Y305830D01*
Y302498D01*
X307332Y300831D01*
X201998Y152419D02*
X192002D01*
Y157418D01*
X193668Y159084D01*
X197000D01*
X198666Y157418D01*
Y152419D01*
Y155752D02*
X201998Y159084D01*
X200332Y162416D02*
X201998Y164082D01*
Y167414D01*
X200332Y169081D01*
X193668D01*
X192002Y167414D01*
Y164082D01*
X193668Y162416D01*
X195334D01*
X197000Y164082D01*
Y169081D01*
X152084Y271832D02*
X150751Y270499D01*
Y267833D01*
X152084Y266500D01*
X157416D01*
X158749Y267833D01*
Y270499D01*
X157416Y271832D01*
X150751Y279829D02*
Y274497D01*
X154750D01*
X153417Y277163D01*
Y278496D01*
X154750Y279829D01*
X157416D01*
X158749Y278496D01*
Y275830D01*
X157416Y274497D01*
X334000Y170334D02*
Y175666D01*
X332667Y176999D01*
X330001D01*
X328668Y175666D01*
Y170334D01*
X330001Y169001D01*
X332667D01*
X331334Y171667D02*
X334000Y169001D01*
X332667D02*
X334000Y170334D01*
X336666Y169001D02*
X339332D01*
X337999D01*
Y176999D01*
X336666Y175666D01*
X218748Y317254D02*
X208752D01*
Y322252D01*
X210418Y323918D01*
X213750D01*
X215416Y322252D01*
Y317254D01*
Y320586D02*
X218748Y323918D01*
Y327251D02*
Y330583D01*
Y328917D01*
X208752D01*
X210418Y327251D01*
Y335581D02*
X208752Y337248D01*
Y340580D01*
X210418Y342246D01*
X217082D01*
X218748Y340580D01*
Y337248D01*
X217082Y335581D01*
X210418D01*
X514752Y115419D02*
X523082D01*
X524748Y117086D01*
Y120418D01*
X523082Y122084D01*
X514752D01*
X524748Y130414D02*
X514752D01*
X519750Y125416D01*
Y132081D01*
X490835Y458082D02*
X489169Y459748D01*
X485837D01*
X484171Y458082D01*
Y451418D01*
X485837Y449752D01*
X489169D01*
X490835Y451418D01*
X494168Y458082D02*
X495834Y459748D01*
X499166D01*
X500832Y458082D01*
Y456416D01*
X499166Y454750D01*
X497500D01*
X499166D01*
X500832Y453084D01*
Y451418D01*
X499166Y449752D01*
X495834D01*
X494168Y451418D01*
X510829Y459748D02*
X507497Y458082D01*
X504165Y454750D01*
Y451418D01*
X505831Y449752D01*
X509163D01*
X510829Y451418D01*
Y453084D01*
X509163Y454750D01*
X504165D01*
X444170Y220499D02*
Y212501D01*
X448168D01*
X449501Y213834D01*
Y215167D01*
X448168Y216500D01*
X444170D01*
X448168D01*
X449501Y217833D01*
Y219166D01*
X448168Y220499D01*
X444170D01*
X452167D02*
X457499D01*
X454833D01*
Y212501D01*
X460164D02*
X462830D01*
X461497D01*
Y220499D01*
X460164Y219166D01*
X143895Y410502D02*
Y420498D01*
X148893D01*
X150559Y418832D01*
Y415500D01*
X148893Y413834D01*
X143895D01*
X147227D02*
X150559Y410502D01*
X153892D02*
X157224D01*
X155558D01*
Y420498D01*
X153892Y418832D01*
X162222Y420498D02*
X168887D01*
Y418832D01*
X162222Y412168D01*
Y410502D01*
X200669Y439998D02*
Y431668D01*
X202335Y430002D01*
X205668D01*
X207334Y431668D01*
Y439998D01*
X217331D02*
X210666D01*
Y435000D01*
X213998Y436666D01*
X215665D01*
X217331Y435000D01*
Y431668D01*
X215665Y430002D01*
X212332D01*
X210666Y431668D01*
X317418Y277582D02*
X315752Y279248D01*
X312420D01*
X310754Y277582D01*
Y270918D01*
X312420Y269252D01*
X315752D01*
X317418Y270918D01*
X320751Y269252D02*
X324083D01*
X322417D01*
Y279248D01*
X320751Y277582D01*
X329081D02*
X330748Y279248D01*
X334080D01*
X335746Y277582D01*
Y275916D01*
X334080Y274250D01*
X335746Y272584D01*
Y270918D01*
X334080Y269252D01*
X330748D01*
X329081Y270918D01*
Y272584D01*
X330748Y274250D01*
X329081Y275916D01*
Y277582D01*
X330748Y274250D02*
X334080D01*
X502501Y209802D02*
X511498D01*
Y214300D01*
X509999Y215800D01*
X504001D01*
X502501Y214300D01*
Y209802D01*
X511498Y218799D02*
Y221798D01*
Y220299D01*
X502501D01*
X504001Y218799D01*
X242998Y152919D02*
X233002D01*
Y157918D01*
X234668Y159584D01*
X238000D01*
X239666Y157918D01*
Y152919D01*
Y156252D02*
X242998Y159584D01*
X233002Y169581D02*
Y162916D01*
X238000D01*
X236334Y166248D01*
Y167915D01*
X238000Y169581D01*
X241332D01*
X242998Y167915D01*
Y164582D01*
X241332Y162916D01*
X483439Y369003D02*
Y378999D01*
X488437D01*
X490103Y377333D01*
Y374001D01*
X488437Y372335D01*
X483439D01*
X486771D02*
X490103Y369003D01*
X500100D02*
X493436D01*
X500100Y375667D01*
Y377333D01*
X498434Y378999D01*
X495102D01*
X493436Y377333D01*
X508431Y369003D02*
Y378999D01*
X503433Y374001D01*
X510097D01*
X224171Y391752D02*
Y401748D01*
X229169D01*
X230835Y400082D01*
Y396750D01*
X229169Y395084D01*
X224171D01*
X227503D02*
X230835Y391752D01*
X240832D02*
X234168D01*
X240832Y398416D01*
Y400082D01*
X239166Y401748D01*
X235834D01*
X234168Y400082D01*
X244165D02*
X245831Y401748D01*
X249163D01*
X250829Y400082D01*
Y398416D01*
X249163Y396750D01*
X247497D01*
X249163D01*
X250829Y395084D01*
Y393418D01*
X249163Y391752D01*
X245831D01*
X244165Y393418D01*
X484504Y325252D02*
Y335248D01*
X489502D01*
X491169Y333582D01*
Y330250D01*
X489502Y328584D01*
X484504D01*
X487836D02*
X491169Y325252D01*
X494501D02*
X497833D01*
X496167D01*
Y335248D01*
X494501Y333582D01*
X502831Y326918D02*
X504498Y325252D01*
X507830D01*
X509496Y326918D01*
Y333582D01*
X507830Y335248D01*
X504498D01*
X502831Y333582D01*
Y331916D01*
X504498Y330250D01*
X509496D01*
X96750Y139000D02*
Y145665D01*
X100082Y148997D01*
X103414Y145665D01*
Y139000D01*
Y143998D01*
X96750D01*
X106747Y148997D02*
Y139000D01*
X111745D01*
X113411Y140666D01*
Y147331D01*
X111745Y148997D01*
X106747D01*
X123408Y147331D02*
X121742Y148997D01*
X118410D01*
X116744Y147331D01*
Y140666D01*
X118410Y139000D01*
X121742D01*
X123408Y140666D01*
X170003Y485247D02*
X168004Y483248D01*
Y479249D01*
X170003Y477250D01*
X178001D01*
X180000Y479249D01*
Y483248D01*
X178001Y485247D01*
X174002D01*
Y481249D01*
X180000Y489246D02*
X168004D01*
X180000Y497243D01*
X168004D01*
Y501242D02*
X180000D01*
Y507240D01*
X178001Y509240D01*
X170003D01*
X168004Y507240D01*
Y501242D01*
X652503Y480750D02*
X650504Y482749D01*
Y486748D01*
X652503Y488747D01*
X654503D01*
X656502Y486748D01*
Y484749D01*
Y486748D01*
X658501Y488747D01*
X660501D01*
X662500Y486748D01*
Y482749D01*
X660501Y480750D01*
X662500Y492746D02*
X660501D01*
Y494745D01*
X662500D01*
Y492746D01*
X652503Y502743D02*
X650504Y504742D01*
Y508741D01*
X652503Y510740D01*
X654503D01*
X656502Y508741D01*
Y506742D01*
Y508741D01*
X658501Y510740D01*
X660501D01*
X662500Y508741D01*
Y504742D01*
X660501Y502743D01*
X142164Y179581D02*
X140498Y181247D01*
X137166D01*
X135500Y179581D01*
Y172916D01*
X137166Y171250D01*
X140498D01*
X142164Y172916D01*
X152161Y179581D02*
X150495Y181247D01*
X147163D01*
X145497Y179581D01*
Y172916D01*
X147163Y171250D01*
X150495D01*
X152161Y172916D01*
X136250Y125997D02*
Y116000D01*
X141248D01*
X142914Y117666D01*
Y124331D01*
X141248Y125997D01*
X136250D01*
X146247Y116000D02*
Y125997D01*
X151245D01*
X152911Y124331D01*
Y120998D01*
X151245Y119332D01*
X146247D01*
X370254Y482500D02*
Y490497D01*
Y486499D01*
X382250D01*
X370254Y494496D02*
X382250Y502494D01*
X370254D02*
X382250Y494496D01*
Y506492D02*
Y510491D01*
Y508492D01*
X370254D01*
X372253Y506492D01*
X331250Y570000D02*
X321253D01*
Y574998D01*
X322919Y576665D01*
X326252D01*
X327918Y574998D01*
Y570000D01*
X321253Y579997D02*
X331250D01*
Y584995D01*
X329584Y586661D01*
X327918D01*
X326252Y584995D01*
Y579997D01*
Y584995D01*
X324585Y586661D01*
X322919D01*
X321253Y584995D01*
Y579997D01*
X331250Y589994D02*
Y593326D01*
Y591660D01*
X321253D01*
X322919Y589994D01*
Y598324D02*
X321253Y599990D01*
Y603323D01*
X322919Y604989D01*
X329584D01*
X331250Y603323D01*
Y599990D01*
X329584Y598324D01*
X322919D01*
X627003Y486747D02*
X625004Y484748D01*
Y480749D01*
X627003Y478750D01*
X635001D01*
X637000Y480749D01*
Y484748D01*
X635001Y486747D01*
X631002D01*
Y482749D01*
X637000Y490746D02*
X625004D01*
X637000Y498744D01*
X625004D01*
Y502742D02*
X637000D01*
Y508740D01*
X635001Y510740D01*
X627003D01*
X625004Y508740D01*
Y502742D01*
X474669Y576665D02*
X473003Y574998D01*
Y571666D01*
X474669Y570000D01*
X476335D01*
X478002Y571666D01*
Y574998D01*
X479668Y576665D01*
X481334D01*
X483000Y574998D01*
Y571666D01*
X481334Y570000D01*
X474669Y586661D02*
X473003Y584995D01*
Y581663D01*
X474669Y579997D01*
X481334D01*
X483000Y581663D01*
Y584995D01*
X481334Y586661D01*
X473003Y589994D02*
X483000D01*
X479668D01*
X473003Y596658D01*
X478002Y591660D01*
X483000Y596658D01*
X474669Y599990D02*
X473003Y601656D01*
Y604989D01*
X474669Y606655D01*
X476335D01*
X478002Y604989D01*
Y603322D01*
Y604989D01*
X479668Y606655D01*
X481334D01*
X483000Y604989D01*
Y601656D01*
X481334Y599990D01*
X642250Y164247D02*
Y154250D01*
X648914D01*
X658911Y164247D02*
X652247D01*
Y154250D01*
X658911D01*
X652247Y159248D02*
X655579D01*
X662244Y164247D02*
Y154250D01*
X667242D01*
X668908Y155916D01*
Y162581D01*
X667242Y164247D01*
X662244D01*
X672240Y159248D02*
X678905D01*
X675573Y162581D02*
Y155916D01*
X625003Y580247D02*
X623004Y578248D01*
Y574249D01*
X625003Y572250D01*
X633001D01*
X635000Y574249D01*
Y578248D01*
X633001Y580247D01*
X629002D01*
Y576249D01*
X635000Y584246D02*
X623004D01*
X635000Y592243D01*
X623004D01*
Y596242D02*
X635000D01*
Y602240D01*
X633001Y604240D01*
X625003D01*
X623004Y602240D01*
Y596242D01*
X154250Y572250D02*
X142254D01*
Y578248D01*
X144253Y580247D01*
X148252D01*
X150251Y578248D01*
Y572250D01*
Y576249D02*
X154250Y580247D01*
X144253Y592243D02*
X142254Y590244D01*
Y586245D01*
X144253Y584246D01*
X146253D01*
X148252Y586245D01*
Y590244D01*
X150251Y592243D01*
X152251D01*
X154250Y590244D01*
Y586245D01*
X152251Y584246D01*
X142254Y596242D02*
Y604240D01*
Y600241D01*
X154250D01*
X696915Y86831D02*
X695248Y88497D01*
X691916D01*
X690250Y86831D01*
Y80166D01*
X691916Y78500D01*
X695248D01*
X696915Y80166D01*
Y83498D01*
X693582D01*
X700247Y78500D02*
Y88497D01*
X705245D01*
X706911Y86831D01*
Y83498D01*
X705245Y81832D01*
X700247D01*
X716908Y86831D02*
X715242Y88497D01*
X711910D01*
X710244Y86831D01*
Y85164D01*
X711910Y83498D01*
X715242D01*
X716908Y81832D01*
Y80166D01*
X715242Y78500D01*
X711910D01*
X710244Y80166D01*
X408500Y572000D02*
X396504D01*
Y577998D01*
X398503Y579997D01*
X402502D01*
X404501Y577998D01*
Y572000D01*
X396504Y583996D02*
X408500D01*
Y589994D01*
X406501Y591993D01*
X404501D01*
X402502Y589994D01*
Y583996D01*
Y589994D01*
X400503Y591993D01*
X398503D01*
X396504Y589994D01*
Y583996D01*
X398503Y595992D02*
X396504Y597992D01*
Y601990D01*
X398503Y603990D01*
X406501D01*
X408500Y601990D01*
Y597992D01*
X406501Y595992D01*
X398503D01*
X686250Y164247D02*
Y154250D01*
X692915D01*
X702911Y164247D02*
X696247D01*
Y154250D01*
X702911D01*
X696247Y159248D02*
X699579D01*
X706244Y164247D02*
Y154250D01*
X711242D01*
X712908Y155916D01*
Y162581D01*
X711242Y164247D01*
X706244D01*
X716240Y159248D02*
X722905D01*
X219503Y570000D02*
X229500D01*
Y574998D01*
X227834Y576665D01*
X226168D01*
X224502Y574998D01*
Y570000D01*
Y574998D01*
X222835Y576665D01*
X221169D01*
X219503Y574998D01*
Y570000D01*
Y579997D02*
Y586661D01*
Y583329D01*
X229500D01*
Y589994D02*
X219503D01*
X229500Y596658D01*
X219503D01*
X229500Y606655D02*
Y599990D01*
X222835Y606655D01*
X221169D01*
X219503Y604989D01*
Y601656D01*
X221169Y599990D01*
X119664Y201081D02*
X117998Y202747D01*
X114666D01*
X113000Y201081D01*
Y194416D01*
X114666Y192750D01*
X117998D01*
X119664Y194416D01*
Y197748D01*
X116332D01*
X122997Y192750D02*
Y202747D01*
X129661Y192750D01*
Y202747D01*
X132994D02*
Y192750D01*
X137992D01*
X139658Y194416D01*
Y201081D01*
X137992Y202747D01*
X132994D01*
X697414Y139081D02*
X695748Y140747D01*
X692416D01*
X690750Y139081D01*
Y132416D01*
X692416Y130750D01*
X695748D01*
X697414Y132416D01*
Y135748D01*
X694082D01*
X700747Y130750D02*
Y140747D01*
X707411Y130750D01*
Y140747D01*
X710744D02*
Y130750D01*
X715742D01*
X717408Y132416D01*
Y139081D01*
X715742Y140747D01*
X710744D01*
X270003Y570250D02*
X280000D01*
Y575248D01*
X278334Y576914D01*
X276668D01*
X275002Y575248D01*
Y570250D01*
Y575248D01*
X273335Y576914D01*
X271669D01*
X270003Y575248D01*
Y570250D01*
Y580247D02*
Y586911D01*
Y583579D01*
X280000D01*
Y590244D02*
X270003D01*
X280000Y596908D01*
X270003D01*
X271669Y600240D02*
X270003Y601907D01*
Y605239D01*
X271669Y606905D01*
X278334D01*
X280000Y605239D01*
Y601907D01*
X278334Y600240D01*
X271669D01*
X573919Y577915D02*
X572253Y576248D01*
Y572916D01*
X573919Y571250D01*
X575586D01*
X577252Y572916D01*
Y576248D01*
X578918Y577915D01*
X580584D01*
X582250Y576248D01*
Y572916D01*
X580584Y571250D01*
X572253Y581247D02*
X582250D01*
Y586245D01*
X580584Y587911D01*
X573919D01*
X572253Y586245D01*
Y581247D01*
X582250Y591244D02*
X575586D01*
X572253Y594576D01*
X575586Y597908D01*
X582250D01*
X577252D01*
Y591244D01*
X582250Y601240D02*
Y604573D01*
Y602906D01*
X572253D01*
X573919Y601240D01*
X550503Y480750D02*
X548504Y482749D01*
Y486748D01*
X550503Y488747D01*
X552503D01*
X554502Y486748D01*
Y484749D01*
Y486748D01*
X556501Y488747D01*
X558501D01*
X560500Y486748D01*
Y482749D01*
X558501Y480750D01*
X560500Y492746D02*
X558501D01*
Y494745D01*
X560500D01*
Y492746D01*
X550503Y502743D02*
X548504Y504742D01*
Y508741D01*
X550503Y510740D01*
X552503D01*
X554502Y508741D01*
Y506742D01*
Y508741D01*
X556501Y510740D01*
X558501D01*
X560500Y508741D01*
Y504742D01*
X558501Y502743D01*
X475669Y480664D02*
X474003Y478998D01*
Y475666D01*
X475669Y474000D01*
X477336D01*
X479002Y475666D01*
Y478998D01*
X480668Y480664D01*
X482334D01*
X484000Y478998D01*
Y475666D01*
X482334Y474000D01*
X475669Y490661D02*
X474003Y488995D01*
Y485663D01*
X475669Y483997D01*
X482334D01*
X484000Y485663D01*
Y488995D01*
X482334Y490661D01*
X474003Y493994D02*
X484000D01*
X480668D01*
X474003Y500658D01*
X479002Y495660D01*
X484000Y500658D01*
Y510655D02*
Y503990D01*
X477336Y510655D01*
X475669D01*
X474003Y508989D01*
Y505657D01*
X475669Y503990D01*
X526503Y486497D02*
X524504Y484498D01*
Y480499D01*
X526503Y478500D01*
X534501D01*
X536500Y480499D01*
Y484498D01*
X534501Y486497D01*
X530502D01*
Y482499D01*
X536500Y490496D02*
X524504D01*
X536500Y498493D01*
X524504D01*
Y502492D02*
X536500D01*
Y508490D01*
X534501Y510490D01*
X526503D01*
X524504Y508490D01*
Y502492D01*
X525546Y580405D02*
X523547Y578405D01*
Y574407D01*
X525546Y572407D01*
X533544D01*
X535543Y574407D01*
Y578405D01*
X533544Y580405D01*
X529545D01*
Y576406D01*
X535543Y584404D02*
X523547D01*
X535543Y592401D01*
X523547D01*
Y596400D02*
X535543D01*
Y602398D01*
X533544Y604397D01*
X525546D01*
X523547Y602398D01*
Y596400D01*
X358250Y572000D02*
X346254D01*
Y577998D01*
X348253Y579997D01*
X352252D01*
X354251Y577998D01*
Y572000D01*
X346254Y583996D02*
X358250D01*
Y589994D01*
X356251Y591993D01*
X354251D01*
X352252Y589994D01*
Y583996D01*
Y589994D01*
X350253Y591993D01*
X348253D01*
X346254Y589994D01*
Y583996D01*
X358250Y603990D02*
Y595992D01*
X350253Y603990D01*
X348253D01*
X346254Y601990D01*
Y597992D01*
X348253Y595992D01*
X96500Y162497D02*
Y152500D01*
X101498D01*
X103165Y154166D01*
Y155832D01*
X101498Y157498D01*
X96500D01*
X101498D01*
X103165Y159164D01*
Y160831D01*
X101498Y162497D01*
X96500D01*
X106497Y152500D02*
Y159164D01*
X109829Y162497D01*
X113161Y159164D01*
Y152500D01*
Y157498D01*
X106497D01*
X116494Y162497D02*
X123158D01*
X119826D01*
Y152500D01*
X449503Y486747D02*
X447504Y484748D01*
Y480749D01*
X449503Y478750D01*
X451503D01*
X453502Y480749D01*
Y484748D01*
X455501Y486747D01*
X457501D01*
X459500Y484748D01*
Y480749D01*
X457501Y478750D01*
X447504Y496744D02*
Y492746D01*
X449503Y490746D01*
X457501D01*
X459500Y492746D01*
Y496744D01*
X457501Y498744D01*
X449503D01*
X447504Y496744D01*
X459500Y510740D02*
Y502742D01*
X451503Y510740D01*
X449503D01*
X447504Y508740D01*
Y504742D01*
X449503Y502742D01*
X347253Y486497D02*
X345254Y484498D01*
Y480499D01*
X347253Y478500D01*
X355251D01*
X357250Y480499D01*
Y484498D01*
X355251Y486497D01*
X351252D01*
Y482499D01*
X357250Y490496D02*
X345254D01*
X357250Y498493D01*
X345254D01*
Y502492D02*
X357250D01*
Y508490D01*
X355251Y510490D01*
X347253D01*
X345254Y508490D01*
Y502492D01*
X117753Y580747D02*
X115754Y578748D01*
Y574749D01*
X117753Y572750D01*
X125751D01*
X127750Y574749D01*
Y578748D01*
X125751Y580747D01*
X121752D01*
Y576749D01*
X127750Y584746D02*
X115754D01*
X127750Y592743D01*
X115754D01*
Y596742D02*
X127750D01*
Y602740D01*
X125751Y604740D01*
X117753D01*
X115754Y602740D01*
Y596742D01*
X447753Y580497D02*
X445754Y578498D01*
Y574499D01*
X447753Y572500D01*
X449753D01*
X451752Y574499D01*
Y578498D01*
X453751Y580497D01*
X455751D01*
X457750Y578498D01*
Y574499D01*
X455751Y572500D01*
X445754Y584496D02*
Y588495D01*
Y586495D01*
X457750D01*
Y584496D01*
Y588495D01*
X447753Y594493D02*
X445754Y596492D01*
Y600491D01*
X447753Y602490D01*
X449753D01*
X451752Y600491D01*
Y598492D01*
Y600491D01*
X453751Y602490D01*
X455751D01*
X457750Y600491D01*
Y596492D01*
X455751Y594493D01*
X295503Y572500D02*
X293504Y574499D01*
Y578498D01*
X295503Y580497D01*
X297503D01*
X299502Y578498D01*
Y576499D01*
Y578498D01*
X301501Y580497D01*
X303501D01*
X305500Y578498D01*
Y574499D01*
X303501Y572500D01*
X305500Y584496D02*
X303501D01*
Y586496D01*
X305500D01*
Y584496D01*
X295503Y594493D02*
X293504Y596492D01*
Y600491D01*
X295503Y602490D01*
X297503D01*
X299502Y600491D01*
Y598492D01*
Y600491D01*
X301501Y602490D01*
X303501D01*
X305500Y600491D01*
Y596492D01*
X303501Y594493D01*
X195003Y474247D02*
X193004Y472248D01*
Y468249D01*
X195003Y466250D01*
X197003D01*
X199002Y468249D01*
Y472248D01*
X201001Y474247D01*
X203001D01*
X205000Y472248D01*
Y468249D01*
X203001Y466250D01*
X195003Y486244D02*
X193004Y484244D01*
Y480245D01*
X195003Y478246D01*
X203001D01*
X205000Y480245D01*
Y484244D01*
X203001Y486244D01*
X193004Y490242D02*
X205000D01*
Y498240D01*
X193004Y502238D02*
X205000D01*
X201001D01*
X193004Y510236D01*
X199002Y504238D01*
X205000Y510236D01*
X271503Y486497D02*
X269504Y484498D01*
Y480499D01*
X271503Y478500D01*
X279501D01*
X281500Y480499D01*
Y484498D01*
X279501Y486497D01*
X275502D01*
Y482499D01*
X281500Y490496D02*
X269504D01*
X281500Y498493D01*
X269504D01*
Y502492D02*
X281500D01*
Y508490D01*
X279501Y510490D01*
X271503D01*
X269504Y508490D01*
Y502492D01*
X96500Y97747D02*
Y87750D01*
X101498D01*
X103165Y89416D01*
Y91082D01*
X101498Y92748D01*
X96500D01*
X101498D01*
X103165Y94415D01*
Y96081D01*
X101498Y97747D01*
X96500D01*
X106497Y87750D02*
Y94415D01*
X109829Y97747D01*
X113161Y94415D01*
Y87750D01*
Y92748D01*
X106497D01*
X116494Y97747D02*
X123158D01*
X119826D01*
Y87750D01*
X245390Y480086D02*
X243391Y482086D01*
Y486084D01*
X245390Y488084D01*
X247390D01*
X249389Y486084D01*
Y484085D01*
Y486084D01*
X251388Y488084D01*
X253388D01*
X255387Y486084D01*
Y482086D01*
X253388Y480086D01*
X255387Y492082D02*
X253388D01*
Y494082D01*
X255387D01*
Y492082D01*
X245390Y502079D02*
X243391Y504078D01*
Y508077D01*
X245390Y510077D01*
X247390D01*
X249389Y508077D01*
Y506078D01*
Y508077D01*
X251388Y510077D01*
X253388D01*
X255387Y508077D01*
Y504078D01*
X253388Y502079D01*
X322003Y486747D02*
X320004Y484748D01*
Y480749D01*
X322003Y478750D01*
X330001D01*
X332000Y480749D01*
Y484748D01*
X330001Y486747D01*
X326002D01*
Y482749D01*
X320004Y490746D02*
Y498744D01*
Y494745D01*
X332000D01*
X320004Y502742D02*
X332000Y510740D01*
X320004D02*
X332000Y502742D01*
X118253Y484997D02*
X116254Y482998D01*
Y478999D01*
X118253Y477000D01*
X126251D01*
X128250Y478999D01*
Y482998D01*
X126251Y484997D01*
X122252D01*
Y480999D01*
X128250Y488996D02*
X116254D01*
X128250Y496993D01*
X116254D01*
Y500992D02*
X128250D01*
Y506990D01*
X126251Y508990D01*
X118253D01*
X116254Y506990D01*
Y500992D01*
X407500Y482750D02*
X395504D01*
Y488748D01*
X397503Y490747D01*
X401502D01*
X403501Y488748D01*
Y482750D01*
Y486749D02*
X407500Y490747D01*
X395504Y494746D02*
X407500Y502743D01*
X395504D02*
X407500Y494746D01*
Y506742D02*
Y510741D01*
Y508742D01*
X395504D01*
X397503Y506742D01*
X135750Y159497D02*
Y149500D01*
X140748D01*
X142415Y151166D01*
Y157831D01*
X140748Y159497D01*
X135750D01*
X145747Y149500D02*
Y159497D01*
X152411Y149500D01*
Y159497D01*
X423253Y580497D02*
X421254Y578498D01*
Y574499D01*
X423253Y572500D01*
X425253D01*
X427252Y574499D01*
Y578498D01*
X429251Y580497D01*
X431251D01*
X433250Y578498D01*
Y574499D01*
X431251Y572500D01*
X421254Y590494D02*
Y586495D01*
X423253Y584496D01*
X431251D01*
X433250Y586495D01*
Y590494D01*
X431251Y592494D01*
X423253D01*
X421254Y590494D01*
X423253Y596492D02*
X421254Y598492D01*
Y602490D01*
X423253Y604490D01*
X425253D01*
X427252Y602490D01*
Y600491D01*
Y602490D01*
X429251Y604490D01*
X431251D01*
X433250Y602490D01*
Y598492D01*
X431251Y596492D01*
X196253Y570000D02*
X206250D01*
Y574998D01*
X204584Y576665D01*
X202918D01*
X201252Y574998D01*
Y570000D01*
Y574998D01*
X199585Y576665D01*
X197919D01*
X196253Y574998D01*
Y570000D01*
Y579997D02*
Y586661D01*
Y583329D01*
X206250D01*
Y589994D02*
X196253D01*
X206250Y596658D01*
X196253D01*
X197919Y599990D02*
X196253Y601656D01*
Y604989D01*
X197919Y606655D01*
X199585D01*
X201252Y604989D01*
Y603323D01*
Y604989D01*
X202918Y606655D01*
X204584D01*
X206250Y604989D01*
Y601656D01*
X204584Y599990D01*
X130500Y97747D02*
Y87750D01*
X135498D01*
X137164Y89416D01*
Y91082D01*
X135498Y92748D01*
X130500D01*
X135498D01*
X137164Y94415D01*
Y96081D01*
X135498Y97747D01*
X130500D01*
X140497D02*
Y89416D01*
X142163Y87750D01*
X145495D01*
X147161Y89416D01*
Y97747D01*
X157158Y96081D02*
X155492Y97747D01*
X152160D01*
X150494Y96081D01*
Y94415D01*
X152160Y92748D01*
X155492D01*
X157158Y91082D01*
Y89416D01*
X155492Y87750D01*
X152160D01*
X150494Y89416D01*
X423503Y488747D02*
X421504Y486748D01*
Y482749D01*
X423503Y480750D01*
X425503D01*
X427502Y482749D01*
Y486748D01*
X429501Y488747D01*
X431501D01*
X433500Y486748D01*
Y482749D01*
X431501Y480750D01*
X421504Y492746D02*
Y496745D01*
Y494745D01*
X433500D01*
Y492746D01*
Y496745D01*
Y510740D02*
Y502743D01*
X425503Y510740D01*
X423503D01*
X421504Y508741D01*
Y504742D01*
X423503Y502743D01*
X96500Y179081D02*
X98166Y180747D01*
X101498D01*
X103165Y179081D01*
Y177414D01*
X101498Y175748D01*
X99832D01*
X101498D01*
X103165Y174082D01*
Y172416D01*
X101498Y170750D01*
X98166D01*
X96500Y172416D01*
X106497Y170750D02*
Y172416D01*
X108163D01*
Y170750D01*
X106497D01*
X114827Y179081D02*
X116494Y180747D01*
X119826D01*
X121492Y179081D01*
Y177414D01*
X119826Y175748D01*
X118160D01*
X119826D01*
X121492Y174082D01*
Y172416D01*
X119826Y170750D01*
X116494D01*
X114827Y172416D01*
X549003Y572500D02*
X547004Y574499D01*
Y578498D01*
X549003Y580497D01*
X551003D01*
X553002Y578498D01*
Y576499D01*
Y578498D01*
X555001Y580497D01*
X557001D01*
X559000Y578498D01*
Y574499D01*
X557001Y572500D01*
X559000Y584496D02*
X557001D01*
Y586496D01*
X559000D01*
Y584496D01*
X549003Y594493D02*
X547004Y596492D01*
Y600491D01*
X549003Y602490D01*
X551003D01*
X553002Y600491D01*
Y598492D01*
Y600491D01*
X555001Y602490D01*
X557001D01*
X559000Y600491D01*
Y596492D01*
X557001Y594493D01*
X220753Y476497D02*
X218754Y474498D01*
Y470499D01*
X220753Y468500D01*
X222753D01*
X224752Y470499D01*
Y474498D01*
X226751Y476497D01*
X228751D01*
X230750Y474498D01*
Y470499D01*
X228751Y468500D01*
X218754Y480496D02*
X230750D01*
Y486494D01*
X228751Y488493D01*
X220753D01*
X218754Y486494D01*
Y480496D01*
Y492492D02*
Y496491D01*
Y494492D01*
X230750D01*
Y492492D01*
Y496491D01*
X218754Y508487D02*
Y504488D01*
X220753Y502489D01*
X228751D01*
X230750Y504488D01*
Y508487D01*
X228751Y510486D01*
X220753D01*
X218754Y508487D01*
X143253Y484997D02*
X141254Y482998D01*
Y478999D01*
X143253Y477000D01*
X151251D01*
X153250Y478999D01*
Y482998D01*
X151251Y484997D01*
X147252D01*
Y480999D01*
X153250Y488996D02*
X141254D01*
X153250Y496993D01*
X141254D01*
Y500992D02*
X153250D01*
Y506990D01*
X151251Y508990D01*
X143253D01*
X141254Y506990D01*
Y500992D01*
X168503Y570250D02*
X178500D01*
Y575248D01*
X176834Y576914D01*
X175168D01*
X173502Y575248D01*
Y570250D01*
Y575248D01*
X171835Y576914D01*
X170169D01*
X168503Y575248D01*
Y570250D01*
Y580247D02*
Y586911D01*
Y583579D01*
X178500D01*
Y590243D02*
X168503D01*
X178500Y596908D01*
X168503D01*
X178500Y605239D02*
X168503D01*
X173502Y600240D01*
Y606905D01*
X103414Y116331D02*
X101748Y117997D01*
X98416D01*
X96750Y116331D01*
Y114664D01*
X98416Y112998D01*
X101748D01*
X103414Y111332D01*
Y109666D01*
X101748Y108000D01*
X98416D01*
X96750Y109666D01*
X113411Y117997D02*
X106747D01*
Y108000D01*
X113411D01*
X106747Y112998D02*
X110079D01*
X116744Y108000D02*
Y117997D01*
X123408Y108000D01*
Y117997D01*
X652003Y572250D02*
X650004Y574249D01*
Y578248D01*
X652003Y580247D01*
X654003D01*
X656002Y578248D01*
Y576249D01*
Y578248D01*
X658001Y580247D01*
X660001D01*
X662000Y578248D01*
Y574249D01*
X660001Y572250D01*
X662000Y584246D02*
X660001D01*
Y586245D01*
X662000D01*
Y584246D01*
X652003Y594243D02*
X650004Y596242D01*
Y600241D01*
X652003Y602240D01*
X654003D01*
X656002Y600241D01*
Y598242D01*
Y600241D01*
X658001Y602240D01*
X660001D01*
X662000Y600241D01*
Y596242D01*
X660001Y594243D01*
X690000Y95750D02*
Y102415D01*
X693332Y105747D01*
X696665Y102415D01*
Y95750D01*
Y100748D01*
X690000D01*
X699997Y105747D02*
X706661D01*
X703329D01*
Y95750D01*
X709994D02*
Y105747D01*
X716658Y95750D01*
Y105747D01*
X599669Y578914D02*
X598003Y577248D01*
Y573916D01*
X599669Y572250D01*
X601335D01*
X603002Y573916D01*
Y577248D01*
X604668Y578914D01*
X606334D01*
X608000Y577248D01*
Y573916D01*
X606334Y572250D01*
X599669Y588911D02*
X598003Y587245D01*
Y583913D01*
X599669Y582247D01*
X606334D01*
X608000Y583913D01*
Y587245D01*
X606334Y588911D01*
X598003Y592243D02*
X608000D01*
Y598908D01*
Y602240D02*
Y605573D01*
Y603906D01*
X598003D01*
X599669Y602240D01*
X702254Y399000D02*
X714250D01*
Y406997D01*
X702254Y416994D02*
Y412995D01*
X704253Y410996D01*
X712251D01*
X714250Y412995D01*
Y416994D01*
X712251Y418993D01*
X704253D01*
X702254Y416994D01*
X714250Y422992D02*
X702254D01*
Y428990D01*
X704253Y430990D01*
X708252D01*
X710251Y428990D01*
Y422992D01*
Y426991D02*
X714250Y430990D01*
Y434988D02*
X706253D01*
X702254Y438987D01*
X706253Y442986D01*
X714250D01*
X708252D01*
Y434988D01*
X714250Y458980D02*
X706253D01*
X702254Y462979D01*
X706253Y466978D01*
X714250D01*
X708252D01*
Y458980D01*
X702254Y470977D02*
Y478974D01*
Y474975D01*
X714250D01*
Y482973D02*
X702254D01*
X714250Y490970D01*
X702254D01*
X97250Y131497D02*
Y121500D01*
X102248D01*
X103914Y123166D01*
Y124832D01*
X102248Y126498D01*
X97250D01*
X102248D01*
X103914Y128165D01*
Y129831D01*
X102248Y131497D01*
X97250D01*
X107247D02*
Y123166D01*
X108913Y121500D01*
X112245D01*
X113911Y123166D01*
Y131497D01*
X123908Y129831D02*
X122242Y131497D01*
X118910D01*
X117244Y129831D01*
Y128165D01*
X118910Y126498D01*
X122242D01*
X123908Y124832D01*
Y123166D01*
X122242Y121500D01*
X118910D01*
X117244Y123166D01*
X500753Y486497D02*
X498754Y484498D01*
Y480499D01*
X500753Y478500D01*
X508751D01*
X510750Y480499D01*
Y484498D01*
X508751Y486497D01*
X500753Y498493D02*
X498754Y496494D01*
Y492495D01*
X500753Y490496D01*
X502753D01*
X504752Y492495D01*
Y496494D01*
X506751Y498493D01*
X508751D01*
X510750Y496494D01*
Y492495D01*
X508751Y490496D01*
X510750Y510490D02*
Y502492D01*
X502753Y510490D01*
X500753D01*
X498754Y508490D01*
Y504492D01*
X500753Y502492D01*
X577169Y484165D02*
X575503Y482498D01*
Y479166D01*
X577169Y477500D01*
X578835D01*
X580502Y479166D01*
Y482498D01*
X582168Y484165D01*
X583834D01*
X585500Y482498D01*
Y479166D01*
X583834Y477500D01*
X575503Y487497D02*
X585500D01*
Y492495D01*
X583834Y494161D01*
X577169D01*
X575503Y492495D01*
Y487497D01*
X585500Y497494D02*
X578835D01*
X575503Y500826D01*
X578835Y504158D01*
X585500D01*
X580502D01*
Y497494D01*
X585500Y507490D02*
Y510823D01*
Y509156D01*
X575503D01*
X577169Y507490D01*
X382373Y572092D02*
X370376D01*
Y578090D01*
X372376Y580089D01*
X376375D01*
X378374Y578090D01*
Y572092D01*
X370376Y584088D02*
X382373D01*
Y590086D01*
X380373Y592085D01*
X378374D01*
X376375Y590086D01*
Y584088D01*
Y590086D01*
X374375Y592085D01*
X372376D01*
X370376Y590086D01*
Y584088D01*
X382373Y596084D02*
Y600083D01*
Y598083D01*
X370376D01*
X372376Y596084D01*
X642500Y131250D02*
X645832D01*
X644166D01*
Y141247D01*
X642500Y139581D01*
X650831Y131250D02*
Y141247D01*
X655829D01*
X657495Y139581D01*
Y136248D01*
X655829Y134582D01*
X650831D01*
X660827Y131250D02*
Y141247D01*
X665826D01*
X667492Y139581D01*
Y136248D01*
X665826Y134582D01*
X660827D01*
X677489Y139581D02*
X675823Y141247D01*
X672490D01*
X670824Y139581D01*
Y137914D01*
X672490Y136248D01*
X675823D01*
X677489Y134582D01*
Y132916D01*
X675823Y131250D01*
X672490D01*
X670824Y132916D01*
X245003Y570000D02*
X255000D01*
Y574998D01*
X253334Y576665D01*
X251668D01*
X250002Y574998D01*
Y570000D01*
Y574998D01*
X248335Y576665D01*
X246669D01*
X245003Y574998D01*
Y570000D01*
Y579997D02*
Y586661D01*
Y583329D01*
X255000D01*
Y589994D02*
X245003D01*
X255000Y596658D01*
X245003D01*
X255000Y599990D02*
Y603323D01*
Y601656D01*
X245003D01*
X246669Y599990D01*
X296503Y486747D02*
X294504Y484748D01*
Y480749D01*
X296503Y478750D01*
X304501D01*
X306500Y480749D01*
Y484748D01*
X304501Y486747D01*
X300502D01*
Y482749D01*
X306500Y490746D02*
X294504D01*
Y496744D01*
X296503Y498744D01*
X300502D01*
X302501Y496744D01*
Y490746D01*
Y494745D02*
X306500Y498744D01*
X294504Y502742D02*
X306500Y510740D01*
X294504D02*
X306500Y502742D01*
X601419Y483914D02*
X599753Y482248D01*
Y478916D01*
X601419Y477250D01*
X603086D01*
X604752Y478916D01*
Y482248D01*
X606418Y483914D01*
X608084D01*
X609750Y482248D01*
Y478916D01*
X608084Y477250D01*
X601419Y493911D02*
X599753Y492245D01*
Y488913D01*
X601419Y487247D01*
X608084D01*
X609750Y488913D01*
Y492245D01*
X608084Y493911D01*
X599753Y497243D02*
X609750D01*
Y503908D01*
Y507240D02*
Y510573D01*
Y508906D01*
X599753D01*
X601419Y507240D01*
X499347Y580444D02*
X497348Y578445D01*
Y574446D01*
X499347Y572447D01*
X507345D01*
X509344Y574446D01*
Y578445D01*
X507345Y580444D01*
X499347Y592440D02*
X497348Y590441D01*
Y586442D01*
X499347Y584443D01*
X501347D01*
X503346Y586442D01*
Y590441D01*
X505345Y592440D01*
X507345D01*
X509344Y590441D01*
Y586442D01*
X507345Y584443D01*
X499347Y596439D02*
X497348Y598438D01*
Y602437D01*
X499347Y604436D01*
X501347D01*
X503346Y602437D01*
Y600438D01*
Y602437D01*
X505345Y604436D01*
X507345D01*
X509344Y602437D01*
Y598438D01*
X507345Y596439D01*
D12*
X300270Y116000D02*
G03*
X300270Y116000I-1270J0D01*
G01*
D13*
X487500Y218500D02*
G03*
X487500Y218500I-34000J0D01*
G01*
X392499Y298309D02*
X409499D01*
Y328309D01*
X392499Y298309D02*
Y328309D01*
X409499D01*
X192500Y366000D02*
X209500D01*
Y396000D01*
X192500Y366000D02*
Y396000D01*
X209500D01*
X402000Y463750D02*
X421000D01*
Y427750D02*
Y463750D01*
X402000Y427750D02*
X421000D01*
X402000D02*
Y463750D01*
X534500Y258500D02*
X551500D01*
X534500Y228500D02*
Y258500D01*
X551500Y228500D02*
Y258500D01*
X534500Y228500D02*
X551500D01*
X114500Y373750D02*
Y390750D01*
Y373750D02*
X144500D01*
X114500Y390750D02*
X144500D01*
Y373750D02*
Y390750D01*
X286000Y120250D02*
X303000D01*
Y150250D01*
X286000Y120250D02*
Y150250D01*
X303000D01*
X254000Y361750D02*
Y378750D01*
Y361750D02*
X284000D01*
X254000Y378750D02*
X284000D01*
Y361750D02*
Y378750D01*
X352500Y170250D02*
X405750D01*
X352500Y148750D02*
Y170250D01*
Y148750D02*
X405750D01*
Y170250D01*
X518500Y258500D02*
X535500D01*
X518500Y228500D02*
Y258500D01*
X535500Y228500D02*
Y258500D01*
X518500Y228500D02*
X535500D01*
X578750Y84250D02*
X595750D01*
X578750Y54250D02*
Y84250D01*
X595750Y54250D02*
Y84250D01*
X578750Y54250D02*
X595750D01*
X90250Y456750D02*
Y492750D01*
Y456750D02*
X109250D01*
Y492750D01*
X90250D02*
X109250D01*
X230750Y314250D02*
X283750D01*
X230750Y292750D02*
Y314250D01*
Y292750D02*
X283750D01*
Y314250D01*
X612750Y84250D02*
X629750D01*
X612750Y54250D02*
Y84250D01*
X629750Y54250D02*
Y84250D01*
X612750Y54250D02*
X629750D01*
X174000Y271250D02*
Y279300D01*
X204000Y271250D02*
Y279300D01*
X174000Y293200D02*
Y301250D01*
X204000Y293200D02*
Y301250D01*
X283750Y247750D02*
Y269250D01*
X230500Y247750D02*
X283750D01*
X230500D02*
Y269250D01*
X283750D01*
X61000Y410000D02*
Y410700D01*
Y439300D02*
Y440000D01*
X90300Y410000D02*
X91000D01*
X61000D02*
X61700D01*
X91000D02*
Y410700D01*
Y439300D02*
Y440000D01*
X90300D02*
X91000D01*
X61000D02*
X61700D01*
X320000Y449500D02*
Y466500D01*
X290000D02*
X320000D01*
X290000Y449500D02*
X320000D01*
X290000D02*
Y466500D01*
X503500Y54000D02*
X518500D01*
X503500Y84000D02*
X518500D01*
Y54000D02*
Y84000D01*
X503500Y54000D02*
Y84000D01*
X314000Y341250D02*
X331000D01*
X314000Y311250D02*
Y341250D01*
X331000Y311250D02*
Y341250D01*
X314000Y311250D02*
X331000D01*
X230750Y291750D02*
X283750D01*
X230750Y270250D02*
Y291750D01*
Y270250D02*
X283750D01*
Y291750D01*
X449000Y426750D02*
Y443750D01*
Y426750D02*
X479000D01*
X449000Y443750D02*
X479000D01*
Y426750D02*
Y443750D01*
X678000Y88750D02*
X680500D01*
X678000Y84750D02*
Y88750D01*
Y94750D02*
Y98750D01*
Y94750D02*
X680500D01*
Y88750D02*
Y94750D01*
X45500Y359000D02*
X62500D01*
Y389000D01*
X45500Y359000D02*
Y389000D01*
X62500D01*
X502500Y258500D02*
X519500D01*
X502500Y228500D02*
Y258500D01*
X519500Y228500D02*
Y258500D01*
X502500Y228500D02*
X519500D01*
X624200Y229900D02*
X631250D01*
Y250700D02*
Y259100D01*
Y229900D02*
Y238300D01*
X624200Y259100D02*
X631250D01*
X618250Y241200D02*
Y247800D01*
X383000Y427750D02*
X400000D01*
Y457750D01*
X383000Y427750D02*
Y457750D01*
X400000D01*
X381750Y337250D02*
Y354250D01*
X351750D02*
X381750D01*
X351750Y337250D02*
X381750D01*
X351750D02*
Y354250D01*
X284000Y324500D02*
Y360500D01*
X265000D02*
X284000D01*
X265000Y324500D02*
Y360500D01*
Y324500D02*
X284000D01*
X550500Y258500D02*
X567500D01*
X550500Y228500D02*
Y258500D01*
X567500Y228500D02*
Y258500D01*
X550500Y228500D02*
X567500D01*
X94750Y286250D02*
X147750D01*
Y307750D01*
X94750D02*
X147750D01*
X94750Y286250D02*
Y307750D01*
X142000Y438500D02*
Y455500D01*
X112000D02*
X142000D01*
X112000Y438500D02*
X142000D01*
X112000D02*
Y455500D01*
X522500Y302000D02*
Y462000D01*
X692500Y302000D02*
Y462000D01*
X78500Y389000D02*
X95500D01*
X78500Y359000D02*
Y389000D01*
X95500Y359000D02*
Y389000D01*
X78500Y359000D02*
X95500D01*
X595750Y84250D02*
X612750D01*
X595750Y54250D02*
Y84250D01*
X612750Y54250D02*
Y84250D01*
X595750Y54250D02*
X612750D01*
X174250Y314500D02*
X191250D01*
Y344500D01*
X174250Y314500D02*
Y344500D01*
X191250D01*
X533000Y84250D02*
X548000D01*
X533000Y54250D02*
X548000D01*
X533000D02*
Y84250D01*
X548000Y54250D02*
Y84250D01*
X262800Y22200D02*
Y34900D01*
X173400Y22200D02*
X262800D01*
X173400D02*
Y34900D01*
X262800Y60900D02*
Y75900D01*
X173400Y60900D02*
Y75900D01*
X426885Y61000D02*
Y114000D01*
Y61000D02*
X487615D01*
Y114000D01*
X426885D02*
X487615D01*
X354250Y195250D02*
X371250D01*
Y225250D01*
X354250Y195250D02*
Y225250D01*
X371250D01*
X295500Y311250D02*
X312500D01*
Y341250D01*
X295500Y311250D02*
Y341250D01*
X312500D01*
X94750Y262250D02*
X147750D01*
Y283750D01*
X94750D02*
X147750D01*
X94750Y262250D02*
Y283750D01*
X319500Y144700D02*
Y153500D01*
X341200D02*
X348500D01*
X319500D02*
X326800D01*
X348500Y144700D02*
Y153500D01*
X533500Y120200D02*
Y127300D01*
X634500Y185700D02*
Y192800D01*
Y120200D02*
Y127300D01*
X533500Y185700D02*
Y192800D01*
X426750Y466750D02*
X479750D01*
X426750Y445250D02*
Y466750D01*
Y445250D02*
X479750D01*
Y466750D01*
X469960Y165500D02*
Y169500D01*
X467960Y167500D02*
X471960D01*
X217750Y402500D02*
Y422500D01*
X188750Y402500D02*
Y422500D01*
X368750Y266500D02*
Y283500D01*
X338750D02*
X368750D01*
X338750Y266500D02*
X368750D01*
X338750D02*
Y283500D01*
X515500Y166300D02*
Y193300D01*
X498500Y166300D02*
Y193300D01*
D14*
X520671Y65171D02*
X530831D01*
Y72791D01*
X520671D02*
X530831D01*
X520671Y65171D02*
Y72791D01*
X519001Y54732D02*
Y83482D01*
Y54732D02*
X532551D01*
Y83482D01*
X519001D02*
X532551D01*
X246919Y138829D02*
X257079D01*
X246919Y131209D02*
Y138829D01*
Y131209D02*
X257079D01*
Y138829D01*
X258749Y120518D02*
Y149268D01*
X245199D02*
X258749D01*
X245199Y120518D02*
Y149268D01*
Y120518D02*
X258749D01*
X550170Y65189D02*
X560330D01*
Y72809D01*
X550170D02*
X560330D01*
X550170Y65189D02*
Y72809D01*
X548500Y54750D02*
Y83500D01*
Y54750D02*
X562050D01*
Y83500D01*
X548500D02*
X562050D01*
X388250Y214061D02*
X396250D01*
X388250Y206000D02*
Y214061D01*
Y206000D02*
X396250D01*
Y214061D01*
X385500Y195750D02*
X399000D01*
X385500Y224500D02*
X399000D01*
Y195750D02*
Y224500D01*
X385500Y195750D02*
Y224500D01*
X260419Y138829D02*
X270579D01*
X260419Y131209D02*
Y138829D01*
Y131209D02*
X270579D01*
Y138829D01*
X272249Y120518D02*
Y149268D01*
X258699D02*
X272249D01*
X258699Y120518D02*
Y149268D01*
Y120518D02*
X272249D01*
X63699Y359518D02*
X77249D01*
X63699D02*
Y388268D01*
X77249D01*
Y359518D02*
Y388268D01*
X75579Y370209D02*
Y377829D01*
X65419Y370209D02*
X75579D01*
X65419D02*
Y377829D01*
X75579D01*
X112574Y423722D02*
Y437272D01*
X141324D01*
Y423722D02*
Y437272D01*
X112574Y423722D02*
X141324D01*
X123264Y425392D02*
X130884D01*
X123264D02*
Y435552D01*
X130884D01*
Y425392D02*
Y435552D01*
X314920Y206189D02*
X325080D01*
Y213809D01*
X314920D02*
X325080D01*
X314920Y206189D02*
Y213809D01*
X313250Y195750D02*
Y224500D01*
Y195750D02*
X326800D01*
Y224500D01*
X313250D02*
X326800D01*
X459939Y414750D02*
Y422750D01*
Y414750D02*
X468000D01*
Y422750D01*
X459939D02*
X468000D01*
X478250Y412000D02*
Y425500D01*
X449500Y412000D02*
Y425500D01*
X478250D01*
X449500Y412000D02*
X478250D01*
X132561Y344920D02*
Y355080D01*
X124941D02*
X132561D01*
X124941Y344920D02*
Y355080D01*
Y344920D02*
X132561D01*
X114250Y343250D02*
X143000D01*
Y356800D01*
X114250D02*
X143000D01*
X114250Y343250D02*
Y356800D01*
X179420Y138811D02*
X189580D01*
X179420Y131191D02*
Y138811D01*
Y131191D02*
X189580D01*
Y138811D01*
X191250Y120500D02*
Y149250D01*
X177700D02*
X191250D01*
X177700Y120500D02*
Y149250D01*
Y120500D02*
X191250D01*
X342170Y206189D02*
X352330D01*
Y213809D01*
X342170D02*
X352330D01*
X342170Y206189D02*
Y213809D01*
X340500Y195750D02*
Y224500D01*
Y195750D02*
X354050D01*
Y224500D01*
X340500D02*
X354050D01*
X75450Y460500D02*
X89000D01*
X75450D02*
Y489250D01*
X89000D01*
Y460500D02*
Y489250D01*
X87330Y471191D02*
Y478811D01*
X77170Y471191D02*
X87330D01*
X77170D02*
Y478811D01*
X87330D01*
X630250Y54750D02*
Y83500D01*
X643750Y54750D02*
Y83500D01*
X630250D02*
X643750D01*
X630250Y54750D02*
X643750D01*
X641000Y65000D02*
Y73061D01*
X633000Y65000D02*
X641000D01*
X633000D02*
Y73061D01*
X641000D01*
X206419Y138829D02*
X216579D01*
X206419Y131209D02*
Y138829D01*
Y131209D02*
X216579D01*
Y138829D01*
X218249Y120518D02*
Y149268D01*
X204699D02*
X218249D01*
X204699Y120518D02*
Y149268D01*
Y120518D02*
X218249D01*
X478250Y352950D02*
Y366500D01*
X449500Y352950D02*
X478250D01*
X449500D02*
Y366500D01*
X478250D01*
X459939Y364830D02*
X467559D01*
Y354670D02*
Y364830D01*
X459939Y354670D02*
X467559D01*
X459939D02*
Y364830D01*
X562250Y84250D02*
X578500D01*
Y54250D02*
Y84250D01*
X562250Y54250D02*
X578500D01*
X562250D02*
Y84250D01*
X410700Y298750D02*
X424250D01*
X410700D02*
Y327500D01*
X424250D01*
Y298750D02*
Y327500D01*
X422580Y309441D02*
Y317061D01*
X412420Y309441D02*
X422580D01*
X412420D02*
Y317061D01*
X422580D01*
X459939Y296750D02*
Y304750D01*
Y296750D02*
X468000D01*
Y304750D01*
X459939D02*
X468000D01*
X478250Y294000D02*
Y307500D01*
X449500Y294000D02*
Y307500D01*
X478250D01*
X449500Y294000D02*
X478250D01*
X96700Y359500D02*
X110250D01*
X96700D02*
Y388250D01*
X110250D01*
Y359500D02*
Y388250D01*
X108580Y370191D02*
Y377811D01*
X98420Y370191D02*
X108580D01*
X98420D02*
Y377811D01*
X108580D01*
X219919Y138829D02*
X230079D01*
X219919Y131209D02*
Y138829D01*
Y131209D02*
X230079D01*
Y138829D01*
X231749Y120518D02*
Y149268D01*
X218199D02*
X231749D01*
X218199Y120518D02*
Y149268D01*
Y120518D02*
X231749D01*
X567750Y258000D02*
X581300D01*
Y229250D02*
Y258000D01*
X567750Y229250D02*
X581300D01*
X567750D02*
Y258000D01*
X569420Y239689D02*
Y247309D01*
X579580D01*
Y239689D02*
Y247309D01*
X569420Y239689D02*
X579580D01*
X114500Y358500D02*
Y372050D01*
X143250D01*
Y358500D02*
Y372050D01*
X114500Y358500D02*
X143250D01*
X125191Y360170D02*
X132811D01*
X125191D02*
Y370330D01*
X132811D01*
Y360170D02*
Y370330D01*
X45949Y460268D02*
X59499D01*
X45949D02*
Y489018D01*
X59499D01*
Y460268D02*
Y489018D01*
X57829Y470959D02*
Y478579D01*
X47669Y470959D02*
X57829D01*
X47669D02*
Y478579D01*
X57829D01*
X273920Y130939D02*
X284080D01*
Y138559D01*
X273920D02*
X284080D01*
X273920Y130939D02*
Y138559D01*
X272250Y120500D02*
Y149250D01*
Y120500D02*
X285800D01*
Y149250D01*
X272250D02*
X285800D01*
X299750Y224500D02*
X313300D01*
Y195750D02*
Y224500D01*
X299750Y195750D02*
X313300D01*
X299750D02*
Y224500D01*
X301420Y206189D02*
Y213809D01*
X311580D01*
Y206189D02*
Y213809D01*
X301420Y206189D02*
X311580D01*
X373170Y214061D02*
X383330D01*
X373170Y206441D02*
Y214061D01*
Y206441D02*
X383330D01*
Y214061D01*
X385000Y195750D02*
Y224500D01*
X371450D02*
X385000D01*
X371450Y195750D02*
Y224500D01*
Y195750D02*
X385000D01*
X478250Y397200D02*
Y410750D01*
X449500Y397200D02*
X478250D01*
X449500D02*
Y410750D01*
X478250D01*
X459939Y409080D02*
X467559D01*
Y398920D02*
Y409080D01*
X459939Y398920D02*
X467559D01*
X459939D02*
Y409080D01*
X165920Y130939D02*
X176080D01*
Y138559D01*
X165920D02*
X176080D01*
X165920Y130939D02*
Y138559D01*
X164250Y120500D02*
Y149250D01*
Y120500D02*
X177800D01*
Y149250D01*
X164250D02*
X177800D01*
X478232Y338199D02*
Y351749D01*
X449482Y338199D02*
X478232D01*
X449482D02*
Y351749D01*
X478232D01*
X459921Y350079D02*
X467541D01*
Y339919D02*
Y350079D01*
X459921Y339919D02*
X467541D01*
X459921D02*
Y350079D01*
X328670Y214061D02*
X338830D01*
X328670Y206441D02*
Y214061D01*
Y206441D02*
X338830D01*
Y214061D01*
X340500Y195750D02*
Y224500D01*
X326950D02*
X340500D01*
X326950Y195750D02*
Y224500D01*
Y195750D02*
X340500D01*
X581500Y258000D02*
X595050D01*
Y229250D02*
Y258000D01*
X581500Y229250D02*
X595050D01*
X581500D02*
Y258000D01*
X583170Y239689D02*
Y247309D01*
X593330D01*
Y239689D02*
Y247309D01*
X583170Y239689D02*
X593330D01*
X478250Y382450D02*
Y396000D01*
X449500Y382450D02*
X478250D01*
X449500D02*
Y396000D01*
X478250D01*
X459939Y394330D02*
X467559D01*
Y384170D02*
Y394330D01*
X459939Y384170D02*
X467559D01*
X459939D02*
Y394330D01*
X60700Y460500D02*
X74250D01*
X60700D02*
Y489250D01*
X74250D01*
Y460500D02*
Y489250D01*
X72580Y471191D02*
Y478811D01*
X62420Y471191D02*
X72580D01*
X62420D02*
Y478811D01*
X72580D01*
X377750Y327500D02*
X391300D01*
Y298750D02*
Y327500D01*
X377750Y298750D02*
X391300D01*
X377750D02*
Y327500D01*
X379420Y309189D02*
Y316809D01*
X389580D01*
Y309189D02*
Y316809D01*
X379420Y309189D02*
X389580D01*
X478250Y308700D02*
Y322250D01*
X449500Y308700D02*
X478250D01*
X449500D02*
Y322250D01*
X478250D01*
X459939Y320580D02*
X467559D01*
Y310420D02*
Y320580D01*
X459939Y310420D02*
X467559D01*
X459939D02*
Y320580D01*
X192919Y138829D02*
X203079D01*
X192919Y131209D02*
Y138829D01*
Y131209D02*
X203079D01*
Y138829D01*
X204749Y120518D02*
Y149268D01*
X191199D02*
X204749D01*
X191199Y120518D02*
Y149268D01*
Y120518D02*
X204749D01*
X192501Y343732D02*
X206051D01*
Y314982D02*
Y343732D01*
X192501Y314982D02*
X206051D01*
X192501D02*
Y343732D01*
X194171Y325421D02*
Y333041D01*
X204331D01*
Y325421D02*
Y333041D01*
X194171Y325421D02*
X204331D01*
X112500Y409000D02*
Y422550D01*
X141250D01*
Y409000D02*
Y422550D01*
X112500Y409000D02*
X141250D01*
X123191Y410670D02*
X130811D01*
X123191D02*
Y420830D01*
X130811D01*
Y410670D02*
Y420830D01*
X233419Y138829D02*
X243579D01*
X233419Y131209D02*
Y138829D01*
Y131209D02*
X243579D01*
Y138829D01*
X245249Y120518D02*
Y149268D01*
X231699D02*
X245249D01*
X231699Y120518D02*
Y149268D01*
Y120518D02*
X245249D01*
X478250Y367700D02*
Y381250D01*
X449500Y367700D02*
X478250D01*
X449500D02*
Y381250D01*
X478250D01*
X459939Y379580D02*
X467559D01*
Y369420D02*
Y379580D01*
X459939Y369420D02*
X467559D01*
X459939D02*
Y379580D01*
X272311Y392170D02*
Y402330D01*
X264691D02*
X272311D01*
X264691Y392170D02*
Y402330D01*
Y392170D02*
X272311D01*
X254000Y390500D02*
X282750D01*
Y404050D01*
X254000D02*
X282750D01*
X254000Y390500D02*
Y404050D01*
X478232Y323449D02*
Y336999D01*
X449482Y323449D02*
X478232D01*
X449482D02*
Y336999D01*
X478232D01*
X459921Y335329D02*
X467541D01*
Y325169D02*
Y335329D01*
X459921Y325169D02*
X467541D01*
X459921D02*
Y335329D01*
D15*
X417750Y443500D02*
Y447500D01*
X405250Y443500D02*
Y447750D01*
X652640Y267750D02*
X675500D01*
X652890Y248750D02*
X675750D01*
X373000Y151750D02*
X385250D01*
X373000Y167000D02*
X385250D01*
X93500Y472500D02*
Y476750D01*
X106000Y472500D02*
Y476500D01*
X250750Y295750D02*
X263750D01*
X250750Y311500D02*
X263750D01*
X251000Y266000D02*
X263250D01*
X251000Y250750D02*
X263250D01*
X239750Y226590D02*
Y246910D01*
X283750D01*
Y226590D02*
Y246910D01*
X239750Y226590D02*
X283750D01*
X250750Y273250D02*
X263750D01*
X250750Y289000D02*
X263750D01*
X109140Y255640D02*
X114855D01*
X126285D02*
X132000D01*
X114855D02*
X126285D01*
X109250Y237000D02*
X132110D01*
X280750Y340500D02*
Y344750D01*
X268250Y340750D02*
Y344750D01*
X114750Y304750D02*
X127750D01*
X114750Y289000D02*
X127750D01*
X109500Y216000D02*
X132360D01*
X109250Y235000D02*
X132110D01*
X114750Y280750D02*
X127750D01*
X114750Y265000D02*
X127750D01*
X446750Y448250D02*
X459750D01*
X446750Y464000D02*
X459750D01*
D16*
X162500Y237750D02*
Y245250D01*
X222500D01*
Y237750D02*
Y245250D01*
X162500Y185250D02*
Y192750D01*
Y185250D02*
X222500D01*
Y192750D01*
D17*
X374050Y38150D02*
X374050Y82600D01*
X374050Y38150D02*
X399450D01*
X399450Y88950D02*
X399450Y38150D01*
X380400Y88950D02*
X399450Y88950D01*
X374050Y82600D02*
X380400Y88950D01*
D18*
X93401Y209250D02*
X144500D01*
X93000Y103500D02*
X160000D01*
X682500Y123750D02*
Y170250D01*
X92500Y82750D02*
X161000D01*
X93651Y188000D02*
X161000D01*
X127250Y82750D02*
Y187750D01*
X161000Y82750D02*
Y188000D01*
X639000Y170500D02*
X726250D01*
X726750Y123750D02*
Y170000D01*
X93421Y135020D02*
X161000Y135000D01*
X93421Y187770D02*
X93651Y188000D01*
X639000Y123750D02*
Y170500D01*
X639250Y123750D02*
X726750D01*
X726250Y170500D02*
X726500Y170250D01*
X92921Y166020D02*
X160250D01*
X639250Y147500D02*
X726500D01*
D19*
X53506Y254498D02*
Y242002D01*
X56006Y239502D01*
X61004D01*
X63503Y242002D01*
Y254498D01*
X78498Y251998D02*
X75999Y254498D01*
X71001D01*
X68502Y251998D01*
Y249499D01*
X71001Y247000D01*
X75999D01*
X78498Y244501D01*
Y242002D01*
X75999Y239502D01*
X71001D01*
X68502Y242002D01*
X83497Y254498D02*
Y239502D01*
X90994D01*
X93493Y242002D01*
Y244501D01*
X90994Y247000D01*
X83497D01*
X90994D01*
X93493Y249499D01*
Y251998D01*
X90994Y254498D01*
X83497D01*
X53257Y217252D02*
Y232248D01*
X60754D01*
X63253Y229748D01*
Y224750D01*
X60754Y222251D01*
X53257D01*
X68252Y232248D02*
Y217252D01*
X73250Y222251D01*
X78248Y217252D01*
Y232248D01*
X83247Y217252D02*
Y232248D01*
X90744D01*
X93244Y229748D01*
Y224750D01*
X90744Y222251D01*
X83247D01*
X88245D02*
X93244Y217252D01*
M02*
