G04*
G04 #@! TF.GenerationSoftware,Altium Limited,Altium Designer,26.4.1 (12)*
G04*
G04 Layer_Physical_Order=2*
G04 Layer_Color=16711680*
%FSLAX44Y44*%
%MOMM*%
G71*
G04*
G04 #@! TF.SameCoordinates,3AE0F54F-63E5-4411-9AB1-E5B601F0B1DE*
G04*
G04*
G04 #@! TF.FilePolarity,Positive*
G04*
G01*
G75*
%ADD10C,0.2500*%
%ADD11C,0.2000*%
%ADD56C,1.6000*%
%ADD57R,1.6000X1.6000*%
%ADD58R,1.6000X1.6000*%
%ADD59C,1.7780*%
%ADD60O,0.8000X1.6000*%
%ADD61O,1.0500X2.1000*%
%ADD62C,0.6500*%
%ADD63C,4.0000*%
%ADD64C,0.5000*%
%ADD65C,0.7000*%
%ADD66C,0.6000*%
%ADD67C,0.8000*%
%ADD68C,0.9000*%
%ADD70C,0.3000*%
%ADD71C,0.6000*%
%ADD72C,0.4000*%
%ADD73C,0.5000*%
G36*
X709478Y612162D02*
X709479Y612162D01*
X709479Y612162D01*
X711371D01*
X715081Y611424D01*
X718576Y609976D01*
X721722Y607874D01*
X724397Y605199D01*
X726499Y602053D01*
X727947Y598558D01*
X728685Y594847D01*
Y592956D01*
X728595Y39711D01*
X728595Y39711D01*
X728595Y39710D01*
Y37819D01*
X727857Y34108D01*
X726410Y30613D01*
X724308Y27467D01*
X721633Y24792D01*
X718487Y22690D01*
X714992Y21243D01*
X711281Y20505D01*
X709390D01*
X709389Y20505D01*
X709389Y20505D01*
X55764Y20340D01*
X53875Y20340D01*
X50171Y21077D01*
X46681Y22522D01*
X43540Y24621D01*
X40869Y27292D01*
X38771Y30433D01*
X37325Y33923D01*
X36588Y37627D01*
Y39516D01*
X36588Y39516D01*
X36588Y39517D01*
X36441Y593023D01*
Y594926D01*
X37184Y598660D01*
X38641Y602178D01*
X40756Y605344D01*
X43448Y608036D01*
X46614Y610151D01*
X50132Y611608D01*
X53866Y612351D01*
X55769D01*
X709478Y612162D01*
D02*
G37*
%LPC*%
G36*
X479950Y594618D02*
X331050D01*
X329684Y594347D01*
X328527Y593573D01*
X310977Y576023D01*
X310203Y574866D01*
X309931Y573500D01*
Y559296D01*
X309885Y559261D01*
X307931Y558611D01*
X306540Y560002D01*
X304260Y561319D01*
X301716Y562000D01*
X299083D01*
X297037Y561452D01*
X290744Y567744D01*
X289256Y568739D01*
X287500Y569088D01*
X243250D01*
X241494Y568739D01*
X240006Y567744D01*
X233856Y561594D01*
X232943Y560228D01*
X232787Y560089D01*
X230725Y559617D01*
X230340Y560002D01*
X228060Y561319D01*
X225516Y562000D01*
X222883D01*
X220340Y561319D01*
X218060Y560002D01*
X216198Y558140D01*
X214881Y555860D01*
X214200Y553316D01*
Y550684D01*
X214881Y548140D01*
X216198Y545860D01*
X218060Y543998D01*
X220340Y542682D01*
X222883Y542000D01*
X224711D01*
Y540220D01*
X224983Y538854D01*
X225153Y538600D01*
X224084Y536600D01*
X222883D01*
X220340Y535919D01*
X218060Y534602D01*
X216569Y533111D01*
X215029Y533514D01*
X214569Y533819D01*
Y539800D01*
X214297Y541166D01*
X213523Y542323D01*
X207968Y547879D01*
X208118Y548140D01*
X208800Y550684D01*
Y553316D01*
X208118Y555860D01*
X206802Y558140D01*
X204940Y560002D01*
X202660Y561319D01*
X200117Y562000D01*
X197484D01*
X194940Y561319D01*
X192660Y560002D01*
X190798Y558140D01*
X189482Y555860D01*
X188800Y553316D01*
Y550684D01*
X189482Y548140D01*
X190798Y545860D01*
X192660Y543998D01*
X194940Y542682D01*
X197484Y542000D01*
X200117D01*
X202660Y542682D01*
X202921Y542832D01*
X207431Y538322D01*
Y534939D01*
X205431Y534111D01*
X204940Y534602D01*
X202660Y535919D01*
X200117Y536600D01*
X197484D01*
X194940Y535919D01*
X192660Y534602D01*
X190798Y532740D01*
X190378Y532013D01*
X190320Y532009D01*
X188369Y532532D01*
Y538659D01*
X188097Y540025D01*
X187323Y541183D01*
X181857Y546649D01*
X182719Y548140D01*
X183400Y550684D01*
Y553316D01*
X182719Y555860D01*
X181402Y558140D01*
X179540Y560002D01*
X177260Y561319D01*
X174716Y562000D01*
X172083D01*
X169540Y561319D01*
X167260Y560002D01*
X165398Y558140D01*
X164081Y555860D01*
X163400Y553316D01*
Y550684D01*
X164081Y548140D01*
X165398Y545860D01*
X167260Y543998D01*
X169540Y542682D01*
X172083Y542000D01*
X174716D01*
X176054Y542358D01*
X181231Y537181D01*
Y531463D01*
X181331Y530961D01*
Y520878D01*
X167644Y507190D01*
X165080Y507216D01*
X163819Y508478D01*
Y534750D01*
X163547Y536116D01*
X162773Y537273D01*
X155094Y544952D01*
X156002Y545860D01*
X157318Y548140D01*
X158000Y550684D01*
Y553316D01*
X157318Y555860D01*
X156002Y558140D01*
X154140Y560002D01*
X151860Y561319D01*
X149317Y562000D01*
X146684D01*
X144140Y561319D01*
X141860Y560002D01*
X139998Y558140D01*
X138681Y555860D01*
X138000Y553316D01*
Y550684D01*
X138681Y548140D01*
X139998Y545860D01*
X141860Y543998D01*
X144140Y542682D01*
X146684Y542000D01*
X147957D01*
X147964Y541989D01*
X156681Y533272D01*
Y507000D01*
X156953Y505634D01*
X157727Y504477D01*
X159931Y502272D01*
Y497527D01*
X158395Y496500D01*
X156605D01*
X154951Y495815D01*
X153685Y494549D01*
X153000Y492895D01*
Y492147D01*
X150227Y489374D01*
X149453Y488216D01*
X149181Y486851D01*
Y425545D01*
X148935Y425299D01*
X148250Y423645D01*
Y421855D01*
X148935Y420201D01*
X150201Y418935D01*
X151855Y418250D01*
X153645D01*
X155299Y418935D01*
X156565Y420201D01*
X157250Y421855D01*
Y423645D01*
X156565Y425299D01*
X156319Y425545D01*
Y485372D01*
X157931Y486985D01*
X159931Y486206D01*
Y394537D01*
X160203Y393171D01*
X160977Y392014D01*
X217103Y335888D01*
X218260Y335114D01*
X219626Y334842D01*
X336940D01*
X338305Y335114D01*
X339463Y335888D01*
X342326Y338750D01*
X342895D01*
X342931Y338765D01*
X344931Y337429D01*
Y305228D01*
X292227Y252523D01*
X291453Y251366D01*
X291181Y250000D01*
Y243460D01*
X289181Y242153D01*
X288344Y242500D01*
X286156D01*
X285185Y242098D01*
X237250D01*
X235299Y241710D01*
X233645Y240605D01*
X194645Y201605D01*
X193540Y199951D01*
X193152Y198000D01*
Y179895D01*
X191152Y178825D01*
X190951Y178960D01*
X189000Y179348D01*
X165750D01*
X163799Y178960D01*
X162145Y177855D01*
X147395Y163105D01*
X146290Y161451D01*
X145902Y159500D01*
Y142750D01*
X146290Y140799D01*
X147395Y139145D01*
X149049Y138040D01*
X151000Y137652D01*
X152951Y138040D01*
X154605Y139145D01*
X155710Y140799D01*
X156098Y142750D01*
Y157388D01*
X167862Y169152D01*
X189000D01*
X190951Y169540D01*
X191152Y169674D01*
X193152Y168605D01*
Y118815D01*
X192750Y117844D01*
Y115656D01*
X193053Y114925D01*
X191716Y112925D01*
X127443D01*
X105744Y134623D01*
X104587Y135397D01*
X103221Y135669D01*
X86105D01*
X85569Y137669D01*
X86140Y137998D01*
X88002Y139860D01*
X89319Y142140D01*
X90000Y144684D01*
Y147317D01*
X89319Y149860D01*
X88002Y152140D01*
X86140Y154002D01*
X83860Y155318D01*
X81316Y156000D01*
X78684D01*
X76140Y155318D01*
X73860Y154002D01*
X71998Y152140D01*
X70682Y149860D01*
X70000Y147317D01*
Y145153D01*
X68802Y144411D01*
X68079Y144246D01*
X66289Y146036D01*
X65131Y146810D01*
X64600Y146915D01*
Y147317D01*
X63918Y149860D01*
X62602Y152140D01*
X60740Y154002D01*
X58460Y155318D01*
X55917Y156000D01*
X53284D01*
X50740Y155318D01*
X48460Y154002D01*
X46598Y152140D01*
X45282Y149860D01*
X44600Y147317D01*
Y144684D01*
X45282Y142140D01*
X46598Y139860D01*
X48460Y137998D01*
X50740Y136681D01*
X53284Y136000D01*
X55917D01*
X58460Y136681D01*
X60740Y137998D01*
X62487Y139745D01*
X72655Y129577D01*
X72519Y127262D01*
X71998Y126740D01*
X70682Y124460D01*
X70000Y121917D01*
Y119284D01*
X70682Y116740D01*
X71998Y114460D01*
X72389Y114069D01*
X71561Y112069D01*
X68178D01*
X63768Y116479D01*
X63918Y116740D01*
X64600Y119284D01*
Y121917D01*
X63918Y124460D01*
X62602Y126740D01*
X60740Y128602D01*
X58460Y129918D01*
X55917Y130600D01*
X53284D01*
X50740Y129918D01*
X48460Y128602D01*
X46598Y126740D01*
X45282Y124460D01*
X44600Y121917D01*
Y119284D01*
X45282Y116740D01*
X46598Y114460D01*
X48460Y112598D01*
X50740Y111281D01*
X53284Y110600D01*
X55917D01*
X58460Y111281D01*
X58721Y111432D01*
X64177Y105977D01*
X65334Y105203D01*
X66700Y104931D01*
X70000D01*
Y85200D01*
X90000D01*
Y104931D01*
X118272D01*
X121370Y101833D01*
X122528Y101060D01*
X123893Y100788D01*
X222357D01*
X223722Y101060D01*
X224880Y101833D01*
X256885Y133839D01*
X257659Y134996D01*
X257808Y135748D01*
X280152Y158091D01*
X282152Y157263D01*
Y123312D01*
X257695Y98855D01*
X256590Y97201D01*
X256202Y95250D01*
Y88079D01*
X254228Y86105D01*
X254228Y86105D01*
X254098Y85975D01*
X251983Y86689D01*
X251451Y87974D01*
X249974Y89451D01*
X248044Y90250D01*
X245956D01*
X244026Y89451D01*
X242549Y87974D01*
X241750Y86044D01*
Y83956D01*
X242549Y82026D01*
X244026Y80549D01*
X244705Y78169D01*
X244101Y77348D01*
X187969D01*
X187592Y77902D01*
X187710Y78288D01*
X188754Y79750D01*
X190244D01*
X192174Y80549D01*
X193651Y82026D01*
X194450Y83956D01*
Y86044D01*
X193651Y87974D01*
X192174Y89451D01*
X190244Y90250D01*
X188156D01*
X186226Y89451D01*
X184749Y87974D01*
X183950Y86044D01*
Y83956D01*
X184270Y83182D01*
X182575Y82050D01*
X180859Y83765D01*
Y89139D01*
X180471Y91090D01*
X179366Y92744D01*
X178505Y93605D01*
X176851Y94710D01*
X174900Y95098D01*
X172949Y94710D01*
X171295Y93605D01*
X170190Y91951D01*
X169802Y90000D01*
X170190Y88049D01*
X170663Y87341D01*
Y81654D01*
X171051Y79703D01*
X172156Y78049D01*
X179009Y71196D01*
X178244Y69348D01*
X152862D01*
X141855Y80355D01*
X140201Y81460D01*
X138250Y81848D01*
X63480D01*
X60452Y84876D01*
Y87032D01*
X60740Y87198D01*
X62602Y89060D01*
X63918Y91340D01*
X64600Y93883D01*
Y96517D01*
X63918Y99060D01*
X62602Y101340D01*
X60740Y103202D01*
X58460Y104518D01*
X55917Y105200D01*
X53284D01*
X50740Y104518D01*
X48460Y103202D01*
X46598Y101340D01*
X45282Y99060D01*
X44600Y96517D01*
Y93883D01*
X45282Y91340D01*
X46598Y89060D01*
X48460Y87198D01*
X50256Y86161D01*
Y82765D01*
X50644Y80814D01*
X51749Y79160D01*
X57764Y73145D01*
X59418Y72040D01*
X61369Y71652D01*
X136138D01*
X147145Y60645D01*
X148799Y59540D01*
X150750Y59152D01*
X256432D01*
X258383Y59540D01*
X260037Y60645D01*
X317293Y117902D01*
X336185D01*
X337156Y117500D01*
X339344D01*
X341366Y118337D01*
X342913Y119885D01*
X343750Y121906D01*
Y124094D01*
X342913Y126116D01*
X341366Y127663D01*
X339344Y128500D01*
X337156D01*
X336185Y128098D01*
X315182D01*
X313231Y127710D01*
X311577Y126605D01*
X267260Y82288D01*
X265707Y83563D01*
X266010Y84017D01*
X266398Y85968D01*
Y93138D01*
X290855Y117595D01*
X291960Y119249D01*
X292348Y121200D01*
Y153957D01*
X426583D01*
X442892Y137649D01*
X443395Y136895D01*
X445049Y135790D01*
X447000Y135402D01*
X448951Y135790D01*
X450605Y136895D01*
X451710Y138549D01*
X452098Y140500D01*
Y140750D01*
X451710Y142701D01*
X450605Y144355D01*
X432299Y162660D01*
X432299Y162660D01*
X406348Y188612D01*
Y191138D01*
X419105Y203895D01*
X420210Y205549D01*
X420598Y207500D01*
Y221900D01*
X420210Y223850D01*
X419105Y225504D01*
X407391Y237218D01*
X407487Y238173D01*
X408906Y239750D01*
X411094D01*
X412065Y240152D01*
X437570D01*
X459576Y218145D01*
X461230Y217040D01*
X463181Y216652D01*
X541390D01*
X541895Y215895D01*
X616145Y141645D01*
X617799Y140540D01*
X619750Y140152D01*
X642652D01*
Y62315D01*
X642250Y61344D01*
Y59156D01*
X643087Y57134D01*
X644634Y55587D01*
X646656Y54750D01*
X648844D01*
X650865Y55587D01*
X652413Y57134D01*
X653250Y59156D01*
Y61344D01*
X652848Y62315D01*
Y78877D01*
X653218Y79279D01*
X654848Y80241D01*
X655000Y80211D01*
X676000D01*
X676780Y80366D01*
X677442Y80808D01*
X677884Y81470D01*
X678039Y82250D01*
Y101250D01*
X677884Y102030D01*
X677442Y102692D01*
X676780Y103134D01*
X676000Y103289D01*
X655000D01*
X654848Y103259D01*
X653218Y104221D01*
X652848Y104623D01*
Y143750D01*
Y500638D01*
X659605Y507395D01*
X660710Y509049D01*
X661098Y511000D01*
Y517996D01*
X662140Y518598D01*
X664002Y520460D01*
X665319Y522740D01*
X666000Y525284D01*
Y527916D01*
X665319Y530460D01*
X664002Y532740D01*
X662140Y534602D01*
X659860Y535919D01*
X657317Y536600D01*
X654684D01*
X652140Y535919D01*
X649860Y534602D01*
X647998Y532740D01*
X646682Y530460D01*
X646000Y527916D01*
Y525284D01*
X646682Y522740D01*
X647998Y520460D01*
X649860Y518598D01*
X650902Y517996D01*
Y513112D01*
X644145Y506355D01*
X643040Y504701D01*
X642652Y502750D01*
Y150348D01*
X621862D01*
X554744Y217466D01*
X555663Y218384D01*
X556500Y220406D01*
Y222594D01*
X555663Y224615D01*
X554115Y226163D01*
X552094Y227000D01*
X549906D01*
X549539Y226848D01*
X465293D01*
X444779Y247362D01*
Y302520D01*
X445250Y303656D01*
Y305844D01*
X444413Y307866D01*
X442865Y309413D01*
X442287Y309652D01*
X442474Y311740D01*
X443549Y312185D01*
X444815Y313451D01*
X445500Y315105D01*
Y316895D01*
X444815Y318549D01*
X443549Y319815D01*
X441895Y320500D01*
X441547D01*
X393819Y368228D01*
Y371522D01*
X395666Y372287D01*
X436250Y331703D01*
Y331355D01*
X436935Y329701D01*
X438201Y328435D01*
X439855Y327750D01*
X441645D01*
X443299Y328435D01*
X444565Y329701D01*
X445250Y331355D01*
Y333145D01*
X444565Y334799D01*
X443299Y336065D01*
X441645Y336750D01*
X441297D01*
X416930Y361117D01*
X417299Y363435D01*
X418565Y364701D01*
X419250Y366355D01*
Y368145D01*
X418565Y369799D01*
X418319Y370045D01*
Y373515D01*
X422886Y378082D01*
X433151D01*
X434516Y378354D01*
X435674Y379127D01*
X441047Y384500D01*
X441395D01*
X443049Y385185D01*
X444315Y386451D01*
X445000Y388105D01*
Y389895D01*
X444315Y391549D01*
X443049Y392815D01*
X442795Y392920D01*
X442225Y394814D01*
X442278Y395299D01*
X442914Y396252D01*
X443186Y397617D01*
Y400322D01*
X444315Y401451D01*
X445000Y403105D01*
Y404895D01*
X444315Y406549D01*
X443778Y407086D01*
X443065Y409201D01*
X443750Y410855D01*
Y412645D01*
X443426Y413427D01*
X443049Y415435D01*
X444315Y416701D01*
X445000Y418355D01*
Y420145D01*
X444315Y421799D01*
X444069Y422045D01*
Y431824D01*
X443797Y433190D01*
X443023Y434348D01*
X441319Y436052D01*
Y445522D01*
X492523Y496727D01*
X493297Y497884D01*
X493569Y499250D01*
Y519975D01*
X495569Y520511D01*
X495598Y520460D01*
X497460Y518598D01*
X499740Y517281D01*
X502284Y516600D01*
X504916D01*
X507460Y517281D01*
X509740Y518598D01*
X511602Y520460D01*
X512919Y522740D01*
X513600Y525284D01*
Y527916D01*
X512919Y530460D01*
X511602Y532740D01*
X509740Y534602D01*
X507460Y535919D01*
X504916Y536600D01*
X502284D01*
X499740Y535919D01*
X497460Y534602D01*
X495598Y532740D01*
X495569Y532689D01*
X493569Y533225D01*
Y545375D01*
X495569Y545911D01*
X495598Y545860D01*
X497460Y543998D01*
X499740Y542682D01*
X502284Y542000D01*
X504916D01*
X507460Y542682D01*
X509740Y543998D01*
X511602Y545860D01*
X512919Y548140D01*
X513600Y550684D01*
Y553316D01*
X512919Y555860D01*
X511602Y558140D01*
X509740Y560002D01*
X507569Y561256D01*
Y567000D01*
X507297Y568366D01*
X506523Y569523D01*
X482473Y593573D01*
X481316Y594347D01*
X479950Y594618D01*
D02*
G37*
G36*
X706667Y602000D02*
X702333D01*
X698083Y601155D01*
X694079Y599496D01*
X690476Y597089D01*
X687411Y594024D01*
X685004Y590421D01*
X683345Y586417D01*
X682500Y582167D01*
Y577833D01*
X683345Y573583D01*
X685004Y569579D01*
X687411Y565976D01*
X690476Y562911D01*
X694079Y560504D01*
X698083Y558845D01*
X702333Y558000D01*
X706667D01*
X710917Y558845D01*
X714921Y560504D01*
X718524Y562911D01*
X721589Y565976D01*
X723996Y569579D01*
X725655Y573583D01*
X726500Y577833D01*
Y582167D01*
X725655Y586417D01*
X723996Y590421D01*
X721589Y594024D01*
X718524Y597089D01*
X714921Y599496D01*
X710917Y601155D01*
X706667Y602000D01*
D02*
G37*
G36*
X69667D02*
X65333D01*
X61083Y601155D01*
X57079Y599496D01*
X53476Y597089D01*
X50412Y594024D01*
X48004Y590421D01*
X46345Y586417D01*
X45500Y582167D01*
Y577833D01*
X46345Y573583D01*
X48004Y569579D01*
X50412Y565976D01*
X53476Y562911D01*
X57079Y560504D01*
X61083Y558845D01*
X65333Y558000D01*
X69667D01*
X73917Y558845D01*
X77921Y560504D01*
X81524Y562911D01*
X84588Y565976D01*
X86996Y569579D01*
X88654Y573583D01*
X89500Y577833D01*
Y582167D01*
X88654Y586417D01*
X86996Y590421D01*
X84588Y594024D01*
X81524Y597089D01*
X77921Y599496D01*
X73917Y601155D01*
X69667Y602000D01*
D02*
G37*
G36*
X666000Y562000D02*
X646000D01*
Y542000D01*
X666000D01*
Y562000D01*
D02*
G37*
G36*
X606516D02*
X603884D01*
X601340Y561319D01*
X599060Y560002D01*
X597198Y558140D01*
X595882Y555860D01*
X595200Y553316D01*
Y550684D01*
X595882Y548140D01*
X597198Y545860D01*
X599060Y543998D01*
X601340Y542682D01*
X603884Y542000D01*
X606516D01*
X609060Y542682D01*
X611340Y543998D01*
X613202Y545860D01*
X614519Y548140D01*
X615200Y550684D01*
Y553316D01*
X614519Y555860D01*
X613202Y558140D01*
X611340Y560002D01*
X609060Y561319D01*
X606516Y562000D01*
D02*
G37*
G36*
X581116D02*
X578484D01*
X575940Y561319D01*
X573660Y560002D01*
X571798Y558140D01*
X570481Y555860D01*
X569800Y553316D01*
Y550684D01*
X570481Y548140D01*
X571798Y545860D01*
X573660Y543998D01*
X575940Y542682D01*
X578484Y542000D01*
X581116D01*
X583660Y542682D01*
X585940Y543998D01*
X587802Y545860D01*
X589118Y548140D01*
X589800Y550684D01*
Y553316D01*
X589118Y555860D01*
X587802Y558140D01*
X585940Y560002D01*
X583660Y561319D01*
X581116Y562000D01*
D02*
G37*
G36*
X555717D02*
X553083D01*
X550540Y561319D01*
X548260Y560002D01*
X546398Y558140D01*
X545081Y555860D01*
X544400Y553316D01*
Y550684D01*
X545081Y548140D01*
X546398Y545860D01*
X548260Y543998D01*
X550540Y542682D01*
X553083Y542000D01*
X555717D01*
X558260Y542682D01*
X560540Y543998D01*
X562402Y545860D01*
X563718Y548140D01*
X564400Y550684D01*
Y553316D01*
X563718Y555860D01*
X562402Y558140D01*
X560540Y560002D01*
X558260Y561319D01*
X555717Y562000D01*
D02*
G37*
G36*
X148000Y531698D02*
X122600D01*
X120649Y531310D01*
X118995Y530205D01*
X117890Y528551D01*
X117502Y526600D01*
X117890Y524649D01*
X118995Y522995D01*
X120649Y521890D01*
X122600Y521502D01*
X148000D01*
X149951Y521890D01*
X151605Y522995D01*
X152710Y524649D01*
X153098Y526600D01*
X152710Y528551D01*
X151605Y530205D01*
X149951Y531310D01*
X148000Y531698D01*
D02*
G37*
G36*
X606516Y536600D02*
X603884D01*
X601340Y535919D01*
X599060Y534602D01*
X597198Y532740D01*
X595882Y530460D01*
X595200Y527916D01*
Y525284D01*
X595882Y522740D01*
X597198Y520460D01*
X599060Y518598D01*
X601340Y517281D01*
X603884Y516600D01*
X606516D01*
X609060Y517281D01*
X611340Y518598D01*
X613202Y520460D01*
X614519Y522740D01*
X615200Y525284D01*
Y527916D01*
X614519Y530460D01*
X613202Y532740D01*
X611340Y534602D01*
X609060Y535919D01*
X606516Y536600D01*
D02*
G37*
G36*
X581116D02*
X578484D01*
X575940Y535919D01*
X573660Y534602D01*
X571798Y532740D01*
X570481Y530460D01*
X569800Y527916D01*
Y525284D01*
X570481Y522740D01*
X571798Y520460D01*
X573660Y518598D01*
X575940Y517281D01*
X578484Y516600D01*
X581116D01*
X583660Y517281D01*
X585940Y518598D01*
X587802Y520460D01*
X589118Y522740D01*
X589800Y525284D01*
Y527916D01*
X589118Y530460D01*
X587802Y532740D01*
X585940Y534602D01*
X583660Y535919D01*
X581116Y536600D01*
D02*
G37*
G36*
X555717D02*
X553083D01*
X550540Y535919D01*
X548260Y534602D01*
X546398Y532740D01*
X545081Y530460D01*
X544400Y527916D01*
Y525284D01*
X545081Y522740D01*
X546398Y520460D01*
X548260Y518598D01*
X550540Y517281D01*
X553083Y516600D01*
X555717D01*
X558260Y517281D01*
X560540Y518598D01*
X562402Y520460D01*
X563718Y522740D01*
X564400Y525284D01*
Y527916D01*
X563718Y530460D01*
X562402Y532740D01*
X560540Y534602D01*
X558260Y535919D01*
X555717Y536600D01*
D02*
G37*
G36*
X530000Y556848D02*
X528049Y556460D01*
X526395Y555355D01*
X525290Y553701D01*
X524902Y551750D01*
Y529467D01*
X524290Y528551D01*
X523902Y526600D01*
X524290Y524649D01*
X525395Y522995D01*
X525816Y522714D01*
Y512837D01*
X526203Y510886D01*
X527309Y509232D01*
X531395Y505145D01*
X533049Y504040D01*
X533218Y504006D01*
X533451Y503642D01*
X533877Y501836D01*
X503388Y471348D01*
X493000D01*
X491049Y470960D01*
X489395Y469855D01*
X488290Y468201D01*
X487902Y466250D01*
X488290Y464299D01*
X489395Y462645D01*
X491049Y461540D01*
X493000Y461152D01*
X505500D01*
X507451Y461540D01*
X509105Y462645D01*
X550112Y503652D01*
X620250D01*
X622201Y504040D01*
X623855Y505145D01*
X632291Y513582D01*
X633396Y515236D01*
X633785Y517187D01*
Y522575D01*
X634205Y522995D01*
X635310Y524649D01*
X635698Y526600D01*
X635310Y528551D01*
X634205Y530205D01*
X632551Y531310D01*
X630600Y531698D01*
X628649Y531310D01*
X626995Y530205D01*
X625082Y528291D01*
X623977Y526637D01*
X623589Y524687D01*
Y519298D01*
X618138Y513848D01*
X537112D01*
X536011Y514948D01*
Y526600D01*
X535623Y528551D01*
X535098Y529337D01*
Y551750D01*
X534710Y553701D01*
X533605Y555355D01*
X531951Y556460D01*
X530000Y556848D01*
D02*
G37*
G36*
X119844Y470500D02*
X117656D01*
X115634Y469663D01*
X114087Y468116D01*
X113250Y466094D01*
Y463906D01*
X113652Y462935D01*
Y437688D01*
X111652Y436688D01*
X111309Y436945D01*
Y442750D01*
X111076Y443921D01*
X110413Y444913D01*
X110413Y444913D01*
X95913Y459413D01*
X94921Y460076D01*
X93750Y460309D01*
X93750Y460309D01*
X73555D01*
X73049Y460815D01*
X71395Y461500D01*
X69605D01*
X67951Y460815D01*
X66685Y459549D01*
X66000Y457895D01*
Y456689D01*
X64746Y455537D01*
X64177Y455280D01*
X63645Y455500D01*
X61855D01*
X60201Y454815D01*
X58935Y453549D01*
X58250Y451895D01*
Y450105D01*
X58935Y448451D01*
X60201Y447185D01*
X61855Y446500D01*
X63645D01*
X65299Y447185D01*
X66055Y447941D01*
X92733D01*
X98941Y441733D01*
Y420500D01*
X98941Y420500D01*
X99174Y419329D01*
X99837Y418337D01*
X103750Y414424D01*
Y413855D01*
X104435Y412201D01*
X105701Y410935D01*
X107355Y410250D01*
X109145D01*
X110799Y410935D01*
X111652Y411788D01*
X113570Y411228D01*
X113652Y411175D01*
Y399848D01*
X57668D01*
X56094Y400500D01*
X53906D01*
X51884Y399663D01*
X50337Y398116D01*
X49500Y396094D01*
Y393906D01*
X50020Y392651D01*
X50040Y392549D01*
X50098Y392463D01*
X50337Y391884D01*
X50780Y391442D01*
X51145Y390895D01*
X51692Y390530D01*
X51884Y390337D01*
X52136Y390233D01*
X52799Y389790D01*
X53581Y389635D01*
X53906Y389500D01*
X54258D01*
X54750Y389402D01*
X55242Y389500D01*
X56094D01*
X56461Y389652D01*
X116638D01*
X123086Y383205D01*
Y338816D01*
X123474Y336865D01*
X124579Y335211D01*
X131500Y328290D01*
Y328144D01*
X131943Y326491D01*
X132799Y325009D01*
X134009Y323799D01*
X135491Y322943D01*
X137144Y322500D01*
X138856D01*
X140509Y322943D01*
X141991Y323799D01*
X143201Y325009D01*
X144057Y326491D01*
X144500Y328144D01*
Y328290D01*
X174612Y358402D01*
X178250D01*
X178743Y358500D01*
X179245D01*
X179708Y358692D01*
X180201Y358790D01*
X180618Y359069D01*
X181082Y359261D01*
X181437Y359616D01*
X181855Y359895D01*
X182134Y360313D01*
X182489Y360668D01*
X182681Y361132D01*
X182960Y361549D01*
X183058Y362042D01*
X183250Y362505D01*
Y363008D01*
X183348Y363500D01*
X183250Y363993D01*
Y364495D01*
X183058Y364958D01*
X182960Y365451D01*
X182681Y365868D01*
X182489Y366332D01*
X182134Y366687D01*
X181855Y367105D01*
X181437Y367384D01*
X181082Y367739D01*
X180618Y367931D01*
X180201Y368210D01*
X179708Y368308D01*
X179245Y368500D01*
X178743D01*
X178250Y368598D01*
X172500D01*
X170549Y368210D01*
X168895Y367105D01*
X138000Y336210D01*
X133282Y340928D01*
Y385316D01*
X132894Y387267D01*
X131789Y388921D01*
X123848Y396862D01*
Y462935D01*
X124250Y463906D01*
Y466094D01*
X123413Y468116D01*
X121866Y469663D01*
X119844Y470500D01*
D02*
G37*
G36*
X141000Y472848D02*
X139049Y472460D01*
X137395Y471355D01*
X134395Y468355D01*
X133290Y466701D01*
X132902Y464750D01*
Y395750D01*
X133290Y393799D01*
X134395Y392145D01*
X136049Y391040D01*
X138000Y390652D01*
X139951Y391040D01*
X141605Y392145D01*
X142710Y393799D01*
X143098Y395750D01*
Y462638D01*
X144605Y464145D01*
X145710Y465799D01*
X146098Y467750D01*
X145710Y469701D01*
X144605Y471355D01*
X142951Y472460D01*
X141000Y472848D01*
D02*
G37*
G36*
X164000Y317848D02*
X162049Y317460D01*
X160395Y316355D01*
X160145Y316105D01*
X159040Y314451D01*
X158652Y312500D01*
Y257000D01*
X159040Y255049D01*
X160145Y253395D01*
X178645Y234895D01*
X180299Y233790D01*
X182250Y233402D01*
X188750D01*
X190701Y233790D01*
X192355Y234895D01*
X193460Y236549D01*
X193848Y238500D01*
X193460Y240451D01*
X192355Y242105D01*
X190701Y243210D01*
X188750Y243598D01*
X184362D01*
X168848Y259112D01*
Y308922D01*
X177561D01*
X184672Y301811D01*
Y292000D01*
X184982Y290439D01*
X185866Y289116D01*
X187189Y288232D01*
X188750Y287922D01*
X190311Y288232D01*
X191634Y289116D01*
X192518Y290439D01*
X192828Y292000D01*
Y303500D01*
X192828Y303500D01*
X192518Y305061D01*
X191634Y306384D01*
X191634Y306384D01*
X182134Y315884D01*
X180811Y316768D01*
X179250Y317078D01*
X179250Y317078D01*
X166522D01*
X165951Y317460D01*
X164000Y317848D01*
D02*
G37*
G36*
X517145Y326000D02*
X515355D01*
X513701Y325315D01*
X512435Y324049D01*
X511750Y322395D01*
Y320605D01*
X512431Y318960D01*
Y259887D01*
X510584Y259121D01*
X504319Y265387D01*
Y283205D01*
X504565Y283451D01*
X505250Y285105D01*
Y286895D01*
X504565Y288549D01*
X503299Y289815D01*
X501645Y290500D01*
X499855D01*
X498201Y289815D01*
X496935Y288549D01*
X496250Y286895D01*
Y285105D01*
X496935Y283451D01*
X497181Y283205D01*
Y263908D01*
X497453Y262543D01*
X498227Y261385D01*
X522446Y237166D01*
X523604Y236392D01*
X524969Y236121D01*
X590833D01*
X597681Y229272D01*
Y186795D01*
X597435Y186549D01*
X596750Y184895D01*
Y183105D01*
X597435Y181451D01*
X598701Y180185D01*
X600355Y179500D01*
X602145D01*
X603799Y180185D01*
X605065Y181451D01*
X605750Y183105D01*
Y184895D01*
X605065Y186549D01*
X604819Y186795D01*
Y226872D01*
X606666Y227637D01*
X610431Y223872D01*
Y186795D01*
X610185Y186549D01*
X609500Y184895D01*
Y183105D01*
X610185Y181451D01*
X611451Y180185D01*
X613105Y179500D01*
X614895D01*
X616549Y180185D01*
X617815Y181451D01*
X618500Y183105D01*
Y184895D01*
X617815Y186549D01*
X617569Y186795D01*
Y225350D01*
X617297Y226716D01*
X616523Y227873D01*
X595831Y248566D01*
X594673Y249339D01*
X593308Y249611D01*
X528478D01*
X519569Y258521D01*
Y318455D01*
X520065Y318951D01*
X520750Y320605D01*
Y322395D01*
X520065Y324049D01*
X518799Y325315D01*
X517145Y326000D01*
D02*
G37*
G36*
X694316Y225150D02*
X691684D01*
X689140Y224468D01*
X686860Y223152D01*
X684998Y221290D01*
X683681Y219010D01*
X683000Y216467D01*
Y213834D01*
X683681Y211290D01*
X684998Y209010D01*
X686860Y207148D01*
X689140Y205832D01*
X691684Y205150D01*
X694316D01*
X696860Y205832D01*
X699140Y207148D01*
X701002Y209010D01*
X702318Y211290D01*
X703000Y213834D01*
Y216467D01*
X702318Y219010D01*
X701002Y221290D01*
X699140Y223152D01*
X696860Y224468D01*
X694316Y225150D01*
D02*
G37*
G36*
X668916D02*
X666283D01*
X663740Y224468D01*
X661460Y223152D01*
X659598Y221290D01*
X658281Y219010D01*
X657600Y216467D01*
Y213834D01*
X658281Y211290D01*
X659598Y209010D01*
X661460Y207148D01*
X663740Y205832D01*
X666283Y205150D01*
X668916D01*
X671460Y205832D01*
X673740Y207148D01*
X675602Y209010D01*
X676918Y211290D01*
X677600Y213834D01*
Y216467D01*
X676918Y219010D01*
X675602Y221290D01*
X673740Y223152D01*
X671460Y224468D01*
X668916Y225150D01*
D02*
G37*
G36*
X80000Y201898D02*
X54600D01*
X52649Y201510D01*
X50995Y200405D01*
X49890Y198751D01*
X49502Y196800D01*
X49890Y194849D01*
X50995Y193195D01*
X52649Y192090D01*
X54600Y191702D01*
X80000D01*
X81951Y192090D01*
X83605Y193195D01*
X84710Y194849D01*
X85098Y196800D01*
X84710Y198751D01*
X83605Y200405D01*
X81951Y201510D01*
X80000Y201898D01*
D02*
G37*
G36*
X677600Y199750D02*
X657600D01*
Y179750D01*
X677600D01*
Y199750D01*
D02*
G37*
G36*
X81316Y181400D02*
X78684D01*
X76140Y180718D01*
X73860Y179402D01*
X71998Y177540D01*
X70682Y175260D01*
X70000Y172717D01*
Y170084D01*
X70682Y167540D01*
X71998Y165260D01*
X73860Y163398D01*
X76140Y162082D01*
X78684Y161400D01*
X81316D01*
X83860Y162082D01*
X86140Y163398D01*
X88002Y165260D01*
X89319Y167540D01*
X90000Y170084D01*
Y172717D01*
X89319Y175260D01*
X88002Y177540D01*
X86140Y179402D01*
X83860Y180718D01*
X81316Y181400D01*
D02*
G37*
G36*
X55917D02*
X53284D01*
X50740Y180718D01*
X48460Y179402D01*
X46598Y177540D01*
X45282Y175260D01*
X44600Y172717D01*
Y170084D01*
X45282Y167540D01*
X46598Y165260D01*
X48460Y163398D01*
X50740Y162082D01*
X53284Y161400D01*
X55917D01*
X58460Y162082D01*
X60740Y163398D01*
X62602Y165260D01*
X63918Y167540D01*
X64600Y170084D01*
Y172717D01*
X63918Y175260D01*
X62602Y177540D01*
X60740Y179402D01*
X58460Y180718D01*
X55917Y181400D01*
D02*
G37*
G36*
X388184Y87140D02*
X385316D01*
X382547Y86398D01*
X380063Y84964D01*
X378036Y82937D01*
X376602Y80453D01*
X375860Y77684D01*
Y74816D01*
X376602Y72047D01*
X378036Y69563D01*
X380063Y67536D01*
X382547Y66102D01*
X385316Y65360D01*
X388184D01*
X390953Y66102D01*
X393437Y67536D01*
X395464Y69563D01*
X396898Y72047D01*
X397640Y74816D01*
Y77684D01*
X396898Y80453D01*
X395464Y82937D01*
X393437Y84964D01*
X390953Y86398D01*
X388184Y87140D01*
D02*
G37*
G36*
X261300Y53298D02*
X259349Y52910D01*
X257695Y51805D01*
X256590Y50151D01*
X256500Y49699D01*
X255666Y48451D01*
X255278Y46500D01*
X255666Y44549D01*
X256771Y42895D01*
X258425Y41790D01*
X260376Y41402D01*
X262327Y41790D01*
X263981Y42895D01*
X264905Y43819D01*
X266010Y45473D01*
X266398Y47424D01*
Y48200D01*
X266010Y50151D01*
X264905Y51805D01*
X263251Y52910D01*
X261300Y53298D01*
D02*
G37*
G36*
X174900D02*
X172949Y52910D01*
X171295Y51805D01*
X170190Y50151D01*
X169802Y48200D01*
Y47424D01*
X170190Y45473D01*
X171295Y43819D01*
X172219Y42895D01*
X173873Y41790D01*
X175824Y41402D01*
X177775Y41790D01*
X179429Y42895D01*
X180534Y44549D01*
X180922Y46500D01*
X180534Y48451D01*
X179700Y49699D01*
X179610Y50151D01*
X178505Y51805D01*
X176851Y52910D01*
X174900Y53298D01*
D02*
G37*
G36*
X388184Y61740D02*
X385316D01*
X382547Y60998D01*
X380063Y59564D01*
X378036Y57537D01*
X376602Y55053D01*
X375860Y52284D01*
Y49416D01*
X376602Y46647D01*
X378036Y44163D01*
X380063Y42136D01*
X382547Y40702D01*
X385316Y39960D01*
X388184D01*
X390953Y40702D01*
X393437Y42136D01*
X395464Y44163D01*
X396898Y46647D01*
X397640Y49416D01*
Y52284D01*
X396898Y55053D01*
X395464Y57537D01*
X393437Y59564D01*
X390953Y60998D01*
X388184Y61740D01*
D02*
G37*
G36*
X706667Y68250D02*
X702333D01*
X698083Y67404D01*
X694079Y65746D01*
X690476Y63338D01*
X687411Y60274D01*
X685004Y56671D01*
X683345Y52667D01*
X682500Y48417D01*
Y44083D01*
X683345Y39833D01*
X685004Y35829D01*
X687411Y32226D01*
X690476Y29162D01*
X694079Y26754D01*
X698083Y25096D01*
X702333Y24250D01*
X706667D01*
X710917Y25096D01*
X714921Y26754D01*
X718524Y29162D01*
X721589Y32226D01*
X723996Y35829D01*
X725655Y39833D01*
X726500Y44083D01*
Y48417D01*
X725655Y52667D01*
X723996Y56671D01*
X721589Y60274D01*
X718524Y63338D01*
X714921Y65746D01*
X710917Y67404D01*
X706667Y68250D01*
D02*
G37*
G36*
X69667D02*
X65333D01*
X61083Y67404D01*
X57079Y65746D01*
X53476Y63338D01*
X50412Y60274D01*
X48004Y56671D01*
X46345Y52667D01*
X45500Y48417D01*
Y44083D01*
X46345Y39833D01*
X48004Y35829D01*
X50412Y32226D01*
X53476Y29162D01*
X57079Y26754D01*
X61083Y25096D01*
X65333Y24250D01*
X69667D01*
X73917Y25096D01*
X77921Y26754D01*
X81524Y29162D01*
X84588Y32226D01*
X86996Y35829D01*
X88654Y39833D01*
X89500Y44083D01*
Y48417D01*
X88654Y52667D01*
X86996Y56671D01*
X84588Y60274D01*
X81524Y63338D01*
X77921Y65746D01*
X73917Y67404D01*
X69667Y68250D01*
D02*
G37*
%LPD*%
G36*
X368028Y557153D02*
X367281Y555860D01*
X366600Y553316D01*
Y550684D01*
X367281Y548140D01*
X368598Y545860D01*
X370189Y544269D01*
X369979Y543167D01*
X369458Y542269D01*
X369450D01*
X368084Y541997D01*
X366927Y541223D01*
X360177Y534473D01*
X359403Y533316D01*
X359131Y531950D01*
Y521678D01*
X354772Y517318D01*
X340442D01*
X339677Y519166D01*
X339823Y519313D01*
X340597Y520471D01*
X340869Y521837D01*
Y531363D01*
X340769Y531866D01*
Y545658D01*
X340918Y545808D01*
X343198Y545860D01*
X343388Y545669D01*
X345060Y543998D01*
X347340Y542682D01*
X349883Y542000D01*
X352517D01*
X355060Y542682D01*
X357340Y543998D01*
X359202Y545860D01*
X360518Y548140D01*
X361200Y550684D01*
Y553240D01*
X361462Y553415D01*
X366428Y558381D01*
X368028Y557153D01*
D02*
G37*
G36*
X266291Y559847D02*
X266866Y557912D01*
X265681Y555860D01*
X265000Y553316D01*
Y550684D01*
X265681Y548140D01*
X266998Y545860D01*
X268860Y543998D01*
X271140Y542682D01*
X273683Y542000D01*
X276317D01*
X278860Y542682D01*
X279121Y542832D01*
X285331Y536622D01*
Y519487D01*
X285603Y518121D01*
X285931Y517630D01*
Y506045D01*
X285685Y505799D01*
X285000Y504145D01*
Y502355D01*
X285558Y501007D01*
X284423Y500537D01*
X283157Y499271D01*
X282472Y497617D01*
Y497269D01*
X249446Y464243D01*
X247598Y465008D01*
Y467346D01*
X278605Y498353D01*
X279710Y500006D01*
X280098Y501957D01*
Y526600D01*
X279710Y528551D01*
X278605Y530205D01*
X278605D01*
X276951Y531310D01*
X275000Y531698D01*
X273049Y531310D01*
X271395Y530205D01*
X270290Y528551D01*
X269902Y526600D01*
X269902Y526600D01*
Y504069D01*
X243071Y477238D01*
X241517Y478513D01*
X242210Y479549D01*
X242598Y481500D01*
Y494685D01*
X243000Y495656D01*
Y497844D01*
X242789Y498353D01*
Y507080D01*
X251291Y515582D01*
X252202Y516944D01*
X253460Y517281D01*
X255740Y518598D01*
X257602Y520460D01*
X258918Y522740D01*
X259600Y525284D01*
Y527916D01*
X258918Y530460D01*
X257602Y532740D01*
X255740Y534602D01*
X253460Y535919D01*
X251026Y536571D01*
X250740Y536999D01*
X247636Y540103D01*
X248047Y541309D01*
X248567Y542000D01*
X250917D01*
X253460Y542682D01*
X255740Y543998D01*
X257602Y545860D01*
X258918Y548140D01*
X259600Y550684D01*
Y553316D01*
X258918Y555860D01*
X257734Y557912D01*
X258309Y559847D01*
X258336Y559912D01*
X266264D01*
X266291Y559847D01*
D02*
G37*
D10*
X338500Y429500D02*
X338500Y429500D01*
D11*
X62750Y451000D02*
X94000D01*
X102000Y443000D01*
X70500Y457000D02*
X70750Y457250D01*
X93750D01*
X317120Y385276D02*
X327276D01*
X338500Y396276D02*
Y407276D01*
X316120Y396276D02*
X316276D01*
Y418276D02*
X327276D01*
X102000Y420500D02*
X107750Y414750D01*
X338500Y429276D02*
Y429500D01*
X316276Y396276D02*
Y418276D01*
X349276Y407276D02*
Y418276D01*
X327276Y396276D02*
X338500D01*
X327276D02*
Y407276D01*
X360276Y384880D02*
Y385276D01*
X327276D02*
Y396276D01*
X338500Y429276D02*
X361120D01*
X349276Y384880D02*
Y385276D01*
X338500Y385500D02*
Y396276D01*
X360276Y407276D02*
Y428880D01*
X327276Y385276D02*
X349276D01*
X327276Y418276D02*
Y428880D01*
X349276Y418276D02*
Y428880D01*
X338500Y396276D02*
X349276D01*
Y418276D02*
X360120D01*
X338500Y407276D02*
Y418276D01*
Y429276D01*
X317120D02*
X338500D01*
X349276Y385276D02*
X360276D01*
Y407276D01*
X327276Y384880D02*
Y385276D01*
X360276D02*
X361120D01*
X316276Y384880D02*
Y396276D01*
X338500Y407276D02*
X349276D01*
X316276Y396276D02*
X327276D01*
Y418276D02*
X338500D01*
X316276D02*
Y428880D01*
X327276Y407276D02*
Y418276D01*
X349276Y407276D02*
X360276D01*
X338500Y418276D02*
X349276D01*
Y396276D02*
X360120D01*
X327276Y407276D02*
X338500D01*
X93750Y457250D02*
X108250Y442750D01*
X349276Y396276D02*
Y407276D01*
X108250Y431750D02*
Y442750D01*
X102000Y420500D02*
Y443000D01*
X107750Y414750D02*
X108000D01*
X316120Y418276D02*
X316276D01*
X360276Y407276D02*
X361120D01*
X349276Y385276D02*
Y396276D01*
X317120Y407276D02*
X327276D01*
D56*
X54600Y171400D02*
D03*
X80000Y196800D02*
D03*
X54600D02*
D03*
Y146000D02*
D03*
X80000D02*
D03*
X54600Y95200D02*
D03*
X80000Y171400D02*
D03*
X54600Y120600D02*
D03*
X80000D02*
D03*
X693000Y189750D02*
D03*
X667600Y215150D02*
D03*
X693000D02*
D03*
X249600Y526600D02*
D03*
X300400Y552000D02*
D03*
X554400Y526600D02*
D03*
Y552000D02*
D03*
X656000Y526600D02*
D03*
X630600D02*
D03*
Y552000D02*
D03*
X529000Y526600D02*
D03*
Y552000D02*
D03*
X351200Y526600D02*
D03*
X275000D02*
D03*
X148000D02*
D03*
X173400D02*
D03*
X122600D02*
D03*
Y552000D02*
D03*
X579800D02*
D03*
Y526600D02*
D03*
X605200Y552000D02*
D03*
Y526600D02*
D03*
X376600D02*
D03*
X148000Y552000D02*
D03*
X173400D02*
D03*
X198800D02*
D03*
X224200D02*
D03*
X249600D02*
D03*
X275000D02*
D03*
X325800D02*
D03*
X351200D02*
D03*
X376600D02*
D03*
X402000D02*
D03*
X427400D02*
D03*
X452800D02*
D03*
X478200D02*
D03*
X503600D02*
D03*
X198800Y526600D02*
D03*
X224200D02*
D03*
X300400D02*
D03*
X325800D02*
D03*
X402000D02*
D03*
X427400D02*
D03*
X452800D02*
D03*
X478200D02*
D03*
X503600D02*
D03*
D57*
X80000Y95200D02*
D03*
D58*
X667600Y189750D02*
D03*
X656000Y552000D02*
D03*
D59*
X386750Y50850D02*
D03*
X386750Y76250D02*
D03*
D60*
X261300Y48200D02*
D03*
X174900D02*
D03*
D61*
X261300Y90000D02*
D03*
X174900D02*
D03*
D62*
X247000Y85000D02*
D03*
X189200D02*
D03*
D63*
X704500Y580000D02*
D03*
Y46250D02*
D03*
X67500Y580000D02*
D03*
Y46250D02*
D03*
D64*
X500750Y286000D02*
D03*
X516250Y321500D02*
D03*
X270000Y199250D02*
D03*
X277896Y202896D02*
D03*
X286750Y169736D02*
D03*
X299500Y180500D02*
D03*
X404750Y218750D02*
D03*
X363000Y250250D02*
D03*
X256025Y430994D02*
D03*
X255500Y445750D02*
D03*
X255500Y438005D02*
D03*
X261750Y409750D02*
D03*
X258750Y417000D02*
D03*
X255750Y424000D02*
D03*
X184500Y420500D02*
D03*
X152750Y422750D02*
D03*
X344000Y494750D02*
D03*
X360000D02*
D03*
X367000Y497000D02*
D03*
X378250Y449250D02*
D03*
X333250Y477000D02*
D03*
X334066Y468934D02*
D03*
X400500Y474750D02*
D03*
X357500Y357000D02*
D03*
X363320Y361328D02*
D03*
X342000Y343250D02*
D03*
X312000Y355000D02*
D03*
X324000Y345500D02*
D03*
X317500Y349500D02*
D03*
X360750Y429250D02*
D03*
Y418250D02*
D03*
Y407250D02*
D03*
Y396250D02*
D03*
Y385250D02*
D03*
X349750Y429250D02*
D03*
Y418250D02*
D03*
Y407250D02*
D03*
Y396250D02*
D03*
Y385250D02*
D03*
X338750Y429250D02*
D03*
Y418250D02*
D03*
Y407250D02*
D03*
Y396250D02*
D03*
Y385250D02*
D03*
X327750Y429250D02*
D03*
Y418250D02*
D03*
Y407250D02*
D03*
Y396250D02*
D03*
Y385250D02*
D03*
X316750Y429250D02*
D03*
Y418250D02*
D03*
Y407250D02*
D03*
Y396250D02*
D03*
Y385250D02*
D03*
X601250Y184000D02*
D03*
X614000D02*
D03*
X440500Y419250D02*
D03*
X392500Y178000D02*
D03*
X108250Y414750D02*
D03*
Y432000D02*
D03*
X70500Y457000D02*
D03*
X62750Y451000D02*
D03*
X157500Y492000D02*
D03*
X286972Y496722D02*
D03*
X289500Y503250D02*
D03*
X354000Y474500D02*
D03*
X345566Y474839D02*
D03*
X440500Y404000D02*
D03*
X439250Y411750D02*
D03*
X433250Y406250D02*
D03*
X430000Y399250D02*
D03*
X440500Y389000D02*
D03*
X414750Y367250D02*
D03*
X440750Y332250D02*
D03*
X189000Y290060D02*
D03*
X196620Y286250D02*
D03*
X181380D02*
D03*
X189000Y282440D02*
D03*
X441000Y316000D02*
D03*
D65*
X246500Y212250D02*
D03*
X647750Y60250D02*
D03*
X256250Y206750D02*
D03*
X363250Y186750D02*
D03*
X198250Y116750D02*
D03*
X551000Y221500D02*
D03*
X338250Y123000D02*
D03*
X439750Y304750D02*
D03*
X410000Y245250D02*
D03*
X401000Y260250D02*
D03*
X343250Y179000D02*
D03*
X493000Y466250D02*
D03*
X189000Y174500D02*
D03*
X398115Y333615D02*
D03*
X242500Y447250D02*
D03*
X138000Y395750D02*
D03*
X141000Y467750D02*
D03*
X223750Y411250D02*
D03*
X243500Y405750D02*
D03*
X237500Y496750D02*
D03*
X287250Y237000D02*
D03*
X118750Y465000D02*
D03*
X447000Y140500D02*
D03*
X209250Y457000D02*
D03*
X320250Y248250D02*
D03*
X55000Y395000D02*
D03*
D66*
X287250Y158500D02*
D03*
X189000Y238500D02*
D03*
X290493Y365243D02*
D03*
X178250Y363500D02*
D03*
X163750Y313000D02*
D03*
D67*
X151000Y142750D02*
D03*
D68*
X138000Y329000D02*
D03*
D70*
X500750Y263908D02*
X524969Y239689D01*
X500750Y263908D02*
Y286000D01*
X516000Y321250D02*
X516250Y321500D01*
X516000Y257043D02*
Y321250D01*
Y257043D02*
X527000Y246042D01*
X299750Y224750D02*
Y246750D01*
X277896Y202896D02*
X299750Y224750D01*
X270000Y199250D02*
Y206250D01*
X294750Y231000D01*
Y250000D01*
X286986Y169500D02*
X383750D01*
X286750Y169736D02*
X286986Y169500D01*
X254362Y136362D02*
Y137348D01*
X222357Y104357D02*
X254362Y136362D01*
Y137348D02*
X286750Y169736D01*
X294195Y175736D02*
X298959Y180500D01*
X270986Y175736D02*
X294195D01*
X383750Y169500D02*
X392250Y178000D01*
X123893Y104357D02*
X222357D01*
X298959Y180500D02*
X299500D01*
X404367Y219133D02*
Y222553D01*
X400450Y226471D02*
X404367Y222553D01*
Y219133D02*
X404750Y218750D01*
X363000Y250250D02*
X372066Y259316D01*
X372816D01*
X256025Y430994D02*
X256338Y431308D01*
X263058D02*
X271500Y439750D01*
X256338Y431308D02*
X263058D01*
X255500Y438005D02*
X255822Y438327D01*
X262941Y442191D02*
Y448012D01*
X259077Y438327D02*
X262941Y442191D01*
X255822Y438327D02*
X259077D01*
X255883Y449633D02*
X313500Y507250D01*
X255883Y446133D02*
Y449633D01*
X255500Y445750D02*
X255883Y446133D01*
X152750Y422750D02*
Y486851D01*
X157500Y491600D02*
Y492000D01*
X152750Y486851D02*
X157500Y491600D01*
X339566Y472354D02*
Y481064D01*
X344000Y485498D01*
Y494750D01*
X344515Y503750D02*
X379150D01*
X284750Y431750D02*
Y443985D01*
X342444Y508750D02*
X358750D01*
X279250Y436250D02*
Y445556D01*
X342444Y508750D01*
X284750Y443985D02*
X344515Y503750D01*
X360000Y494750D02*
X366995Y487755D01*
Y487005D02*
Y487755D01*
Y487005D02*
X373606Y480393D01*
X367000Y497000D02*
X372620Y491380D01*
Y490630D02*
Y491380D01*
Y490630D02*
X377856Y485393D01*
X365459Y461500D02*
X377709Y449250D01*
X378250D01*
X323932Y467366D02*
X333250Y476684D01*
Y477000D01*
X313944Y444944D02*
Y448812D01*
X334066Y468934D01*
X319484Y467366D02*
X323932D01*
X363320Y361328D02*
X363500Y361147D01*
X357320Y364070D02*
X360750Y367500D01*
X357320Y357180D02*
X357500Y357000D01*
X363500Y346500D02*
Y361147D01*
X357320Y357180D02*
Y364070D01*
X363500Y346500D02*
X381500Y328500D01*
X219626Y338411D02*
X336940D01*
X341779Y343250D01*
X342000D01*
X173500Y398679D02*
X223179Y349000D01*
X314485D02*
X314603Y349117D01*
X223179Y349000D02*
X314485D01*
X224191Y355059D02*
X311941D01*
X314603Y349117D02*
X317617D01*
X311941Y355059D02*
X312000Y355000D01*
X317617Y349117D02*
X317750Y349250D01*
X178500Y400750D02*
X224191Y355059D01*
X296250Y375750D02*
X305750Y366250D01*
X291250Y373679D02*
X303679Y361250D01*
X334028D02*
X348500Y346778D01*
X305750Y366250D02*
X336099D01*
X353500Y348849D01*
X303679Y361250D02*
X334028D01*
X323459Y345500D02*
X324000D01*
X321459Y343500D02*
X323459Y345500D01*
X221608Y343500D02*
X321459D01*
X592311Y239689D02*
X601250Y230750D01*
Y184000D02*
Y230750D01*
X614000Y184000D02*
Y225350D01*
X437750Y434574D02*
X440500Y431824D01*
Y419250D02*
Y431824D01*
X249500Y428521D02*
Y459250D01*
X286972Y496722D01*
X289500Y503250D02*
Y518887D01*
X288900Y519487D02*
X289500Y518887D01*
X275000Y552000D02*
X288900Y538100D01*
Y519487D02*
Y538100D01*
X345566Y474449D02*
Y474839D01*
X359500Y475000D02*
X362500D01*
X354383Y474883D02*
X359383D01*
X354000Y474500D02*
X354383Y474883D01*
X345566Y474449D02*
X351256Y468759D01*
X359383Y474883D02*
X359500Y475000D01*
X362500D02*
X385000Y452500D01*
X351256Y468509D02*
Y468759D01*
Y468509D02*
X358265Y461500D01*
X339566Y472354D02*
X378500Y433420D01*
Y369257D02*
Y433420D01*
X358265Y461500D02*
X365459D01*
X395250Y377750D02*
Y469071D01*
X414750Y367250D02*
Y374993D01*
X440750Y332250D02*
X441500D01*
X395250Y377750D02*
X440750Y332250D01*
X414750Y374993D02*
X421408Y381651D01*
X427142Y392500D02*
X434500D01*
X125964Y109357D02*
X204607D01*
X464300Y521837D02*
Y531363D01*
X330563Y515100D02*
X337300Y521837D01*
X464200Y521736D02*
X464300Y521837D01*
X395279Y226471D02*
X400450D01*
X332635Y510100D02*
X336284Y513750D01*
X57087Y143513D02*
X63765D01*
X337300Y521837D02*
Y531363D01*
X63765Y143513D02*
X75178Y132100D01*
X336284Y513750D02*
X356250D01*
X54600Y146000D02*
X57087Y143513D01*
X376600Y552000D02*
X395650Y571050D01*
X400250Y419392D02*
Y474000D01*
X395650Y571050D02*
X430450D01*
X376743Y367500D02*
X378500Y369257D01*
X439500Y511750D02*
Y562000D01*
X430450Y571050D02*
X439500Y562000D01*
X360750Y367500D02*
X376743D01*
X421408Y381651D02*
X433151D01*
X425850Y413483D02*
Y498100D01*
Y413483D02*
X433243Y406090D01*
X262000Y409000D02*
X284750Y431750D01*
X425850Y498100D02*
X439500Y511750D01*
X255627Y424389D02*
X256010Y424006D01*
X435607Y412883D02*
X439367D01*
X527000Y246042D02*
X593308D01*
X249500Y428521D02*
X253632Y424389D01*
X431250Y417239D02*
X435607Y412883D01*
X253632Y424389D02*
X255627D01*
X235700Y521837D02*
Y532800D01*
X228280Y540220D02*
Y544402D01*
X593308Y246042D02*
X614000Y225350D01*
X337200Y531463D02*
Y547136D01*
X228280Y540220D02*
X235700Y532800D01*
X337200Y531463D02*
X337300Y531363D01*
X196213Y507750D02*
X211000Y522537D01*
X524969Y239689D02*
X592311D01*
X182000Y507750D02*
X196213D01*
X339700Y556763D02*
X346437Y563500D01*
X173500Y499250D02*
X182000Y507750D01*
X178500Y493750D02*
X187500Y502750D01*
X216614D02*
X235700Y521837D01*
X381856Y485393D02*
X394250Y473000D01*
X349750Y563500D02*
X367300Y581050D01*
X394250Y470071D02*
X395250Y469071D01*
X346437Y563500D02*
X349750D01*
X337200Y547136D02*
X339700Y549636D01*
Y556763D01*
X103221Y132100D02*
X125964Y109357D01*
X173400Y550059D02*
Y552000D01*
X478200D02*
Y568300D01*
X75178Y132100D02*
X103221D01*
X173400Y550059D02*
X184800Y538659D01*
X367300Y581050D02*
X465450D01*
X291250Y373679D02*
Y429321D01*
X465450Y581050D02*
X478200Y568300D01*
X184800Y531463D02*
X184900Y531363D01*
X358750Y508750D02*
X376600Y526600D01*
X184800Y531463D02*
Y538659D01*
X402000Y548750D02*
Y552000D01*
X198800Y552000D02*
X211000Y539800D01*
X296250Y375750D02*
Y427250D01*
X150487Y544513D02*
Y549513D01*
X148000Y552000D02*
X150487Y549513D01*
X408574Y420699D02*
Y476199D01*
Y420699D02*
X430181Y399093D01*
X373606Y480393D02*
X376856D01*
X408574Y476199D02*
X414750Y482375D01*
X390250Y366750D02*
Y467000D01*
X402000Y548750D02*
X414750Y536000D01*
X376856Y480393D02*
X390250Y467000D01*
X385000Y346821D02*
X390000Y341821D01*
X414750Y482375D02*
Y536000D01*
X437750Y447000D02*
X490000Y499250D01*
X390000Y290040D02*
Y341821D01*
X313500Y507250D02*
Y573500D01*
X437750Y434574D02*
Y447000D01*
X390250Y366750D02*
X441000Y316000D01*
X504000Y552400D02*
Y567000D01*
X490000Y499250D02*
Y566500D01*
X503600Y552000D02*
X504000Y552400D01*
X394250Y470071D02*
Y473000D01*
X470450Y586050D02*
X490000Y566500D01*
X313500Y573500D02*
X331050Y591050D01*
X345057Y586050D02*
X470450D01*
X372816Y259316D02*
X381500Y268000D01*
X479950Y591050D02*
X504000Y567000D01*
X325800Y552000D02*
Y566793D01*
X345057Y586050D01*
X385000Y346821D02*
Y452500D01*
X379150Y503750D02*
X402000Y526600D01*
X416000Y563400D02*
X427400Y552000D01*
X187500Y502750D02*
X216614D01*
X224200Y548482D02*
Y552000D01*
X308944Y456826D02*
X319484Y467366D01*
X178500Y400750D02*
Y493750D01*
X356250Y513750D02*
X362700Y520200D01*
X381500Y268000D02*
Y328500D01*
X351200Y552000D02*
X354718D01*
X406863Y563400D02*
X416000D01*
X211000Y522537D02*
Y539800D01*
X406763Y563500D02*
X406863Y563400D01*
X354718Y552000D02*
X358657Y555939D01*
X396250Y563500D02*
X406763D01*
X224200Y548482D02*
X228280Y544402D01*
X296250Y427250D02*
X313944Y444944D01*
X389300Y556550D02*
X396250Y563500D01*
X224200Y548482D02*
X224200D01*
X66700Y108500D02*
X119750D01*
X358657Y555939D02*
X358939D01*
X291250Y429321D02*
X308944Y447015D01*
X362700Y520200D02*
Y531950D01*
X173500Y398679D02*
Y499250D01*
X204607Y109357D02*
X270986Y175736D01*
X54600Y120600D02*
X66700Y108500D01*
X431250Y478000D02*
X464200Y510950D01*
X362700Y531950D02*
X369450Y538700D01*
X168500Y503000D02*
X184900Y519400D01*
X308944Y447015D02*
Y456826D01*
X431250Y417239D02*
Y478000D01*
X119750Y108500D02*
X123893Y104357D01*
X369450Y538700D02*
X381950D01*
X184900Y519400D02*
Y531363D01*
X389300Y546050D02*
Y556550D01*
X381950Y538700D02*
X389300Y546050D01*
X168500Y396608D02*
Y503000D01*
X259000Y416000D02*
X279250Y436250D01*
X160250Y507000D02*
X163500Y503750D01*
X389500Y289540D02*
X390000Y290040D01*
X439367Y412883D02*
X439750Y412500D01*
X389500Y232250D02*
Y289540D01*
X377856Y485393D02*
X381856D01*
X271500Y439750D02*
Y449500D01*
X358939Y555939D02*
X379050Y576050D01*
X163500Y394537D02*
Y503750D01*
X222000Y411348D02*
Y411938D01*
X299750Y246750D02*
X353500Y300500D01*
X464200Y510950D02*
Y521736D01*
X160250Y507000D02*
Y534750D01*
X353500Y300500D02*
Y348849D01*
X221902Y411250D02*
X222000Y411348D01*
X464200Y556863D02*
X464300Y556763D01*
X348500Y303750D02*
Y346778D01*
X379050Y576050D02*
X453700D01*
X150487Y544513D02*
X160250Y534750D01*
X294750Y250000D02*
X348500Y303750D01*
X331050Y591050D02*
X479950D01*
X184500Y420000D02*
X193250Y411250D01*
X464200Y531463D02*
Y547136D01*
X330029Y515100D02*
X330563D01*
X193250Y411250D02*
X221902D01*
X464200Y556863D02*
Y565550D01*
X332100Y510100D02*
X332635D01*
X464300Y547237D02*
Y556763D01*
X168500Y396608D02*
X221608Y343500D01*
X389500Y232250D02*
X395279Y226471D01*
X433151Y381651D02*
X440750Y389250D01*
X163500Y394537D02*
X219626Y338411D01*
X453700Y576050D02*
X464200Y565550D01*
X400250Y419392D02*
X427142Y392500D01*
X464200Y547136D02*
X464300Y547237D01*
X262941Y448012D02*
X330029Y515100D01*
X439617Y397617D02*
Y403867D01*
X271500Y449500D02*
X332100Y510100D01*
X464200Y531463D02*
X464300Y531363D01*
X439617Y403867D02*
X440000Y404250D01*
X434500Y392500D02*
X439617Y397617D01*
D71*
X256250Y199000D02*
X264325Y190925D01*
X285118D02*
X320250Y226058D01*
X260382Y182925D02*
X289138D01*
X264325Y190925D02*
X285118D01*
X289138Y182925D02*
X294963Y188750D01*
X246500Y196808D02*
X260382Y182925D01*
X275000Y526600D02*
X275000Y526600D01*
Y501957D02*
Y526600D01*
X198250Y116750D02*
Y198000D01*
X439681Y245250D02*
Y304431D01*
X242500Y447250D02*
Y469457D01*
X55354Y82765D02*
Y97275D01*
X619750Y145250D02*
X646250D01*
X315182Y123000D02*
X338250D01*
X122600Y526600D02*
X148000D01*
X138000Y329000D02*
X172500Y363500D01*
X138250Y76750D02*
X150750Y64250D01*
X138000Y464750D02*
X141000Y467750D01*
X118750Y394750D02*
X128184Y385316D01*
X398115Y263406D02*
X401000Y260521D01*
X172500Y363500D02*
X178250D01*
X138000Y395750D02*
Y464750D01*
X398115Y263406D02*
Y333615D01*
X439681Y304431D02*
X440000Y304750D01*
X333500Y188750D02*
X343250Y179000D01*
X646250Y145250D02*
X647750Y143750D01*
X287805Y159055D02*
X428695D01*
X253000Y393250D02*
Y411143D01*
X294963Y188750D02*
X333500D01*
X647750Y60250D02*
Y143750D01*
X287250Y158500D02*
X287805Y159055D01*
X550750Y221750D02*
X551000Y221500D01*
X61369Y76750D02*
X138250D01*
X287250Y121200D02*
Y158500D01*
X545500Y219500D02*
X619750Y145250D01*
X256432Y64250D02*
X315182Y123000D01*
X463181Y221750D02*
X550750D01*
X237691Y509191D02*
X247687Y519187D01*
X232250Y476250D02*
X237500Y481500D01*
X256250Y199000D02*
Y206750D01*
X261300Y47424D02*
Y48200D01*
X237500Y481500D02*
Y496750D01*
X174900Y90000D02*
X175761Y89139D01*
X261300Y95250D02*
X287250Y121200D01*
X237500Y496750D02*
X237691Y496941D01*
X150750Y64250D02*
X256432D01*
X260376Y46500D02*
X261300Y47424D01*
X237691Y496941D02*
Y509191D01*
X163750Y312500D02*
X164000Y312750D01*
X261300Y85968D02*
Y95250D01*
X174900Y47424D02*
X175824Y46500D01*
X257832Y82500D02*
X257832D01*
X174900Y47424D02*
Y48200D01*
X232250Y431893D02*
Y476250D01*
X253000Y393250D02*
X281007Y365243D01*
X55354Y82765D02*
X61369Y76750D01*
X281007Y365243D02*
X290493D01*
X54600Y196800D02*
X80000D01*
X439681Y245250D02*
X463181Y221750D01*
X257832Y82500D02*
X261300Y85968D01*
X151000Y142750D02*
Y159500D01*
X175761Y81654D02*
Y89139D01*
X410000Y245250D02*
X439681D01*
X151000Y159500D02*
X165750Y174250D01*
X628687Y517187D02*
Y524687D01*
X247582Y72250D02*
X257832Y82500D01*
X628687Y524687D02*
X630600Y526600D01*
X620250Y508750D02*
X628687Y517187D01*
X185165Y72250D02*
X247582D01*
X246500Y196808D02*
Y212250D01*
X530913Y512837D02*
X535000Y508750D01*
X356500Y193771D02*
Y244985D01*
X548000Y508750D02*
X620250D01*
X382510Y186500D02*
X401250D01*
X535000Y508750D02*
X548000D01*
X382260Y186750D02*
X382510Y186500D01*
X401000Y236399D02*
Y260250D01*
X529000Y526600D02*
X530000Y527600D01*
X363250Y186750D02*
X382260D01*
X363250D02*
Y187021D01*
X505500Y466250D02*
X548000Y508750D01*
X356500Y193771D02*
X363250Y187021D01*
X163750Y257000D02*
Y312500D01*
X237250Y237000D02*
X287250D01*
X401250Y193250D02*
X415500Y207500D01*
Y221900D01*
X182250Y238500D02*
X188750D01*
X401000Y236399D02*
X415500Y221900D01*
X128184Y338816D02*
Y385316D01*
X352985Y248500D02*
X356500Y244985D01*
X163750Y257000D02*
X182250Y238500D01*
X320500Y248500D02*
X352985D01*
X175761Y81654D02*
X185165Y72250D01*
X320250Y248250D02*
X320500Y248500D01*
X54750Y394500D02*
X55000Y394750D01*
X320250Y226058D02*
Y248250D01*
X232250Y431893D02*
X253000Y411143D01*
X55000Y394750D02*
X118750D01*
X401250Y186500D02*
Y193250D01*
X128184Y338816D02*
X138000Y329000D01*
X165750Y174250D02*
X189000D01*
X118750Y394750D02*
Y465000D01*
X428695Y159055D02*
X447000Y140750D01*
X530913Y512837D02*
Y526600D01*
X247687Y519187D02*
Y524687D01*
X447000Y140500D02*
Y140750D01*
X401000Y260250D02*
Y260521D01*
X247687Y524687D02*
X249500Y526500D01*
X401250Y186500D02*
X428695Y159055D01*
X198250Y198000D02*
X237250Y237000D01*
X243309Y405941D02*
X243500Y405750D01*
X225729Y411250D02*
X231038Y405941D01*
X647750Y502750D02*
X656000Y511000D01*
X209250Y457000D02*
X223750Y442500D01*
X231038Y405941D02*
X243309D01*
X530000Y527600D02*
Y551750D01*
X647750Y143750D02*
Y502750D01*
X223750Y411250D02*
Y442500D01*
Y411250D02*
X225729D01*
X493000Y466250D02*
X505500D01*
X656000Y511000D02*
Y526600D01*
X242500Y469457D02*
X275000Y501957D01*
D72*
X163750Y313000D02*
X179250D01*
X188750Y303500D01*
Y292000D02*
Y303500D01*
D73*
X243250Y564500D02*
X287500D01*
X300000Y552000D01*
X237100Y558350D02*
X243250Y564500D01*
X237100Y544150D02*
X247495Y533755D01*
Y528705D02*
X249600Y526600D01*
X237100Y544150D02*
Y558350D01*
X247495Y528705D02*
Y533755D01*
M02*
