G04*
G04 #@! TF.GenerationSoftware,Altium Limited,Altium Designer,26.4.1 (12)*
G04*
G04 Layer_Color=8388736*
%FSLAX44Y44*%
%MOMM*%
G71*
G04*
G04 #@! TF.SameCoordinates,3AE0F54F-63E5-4411-9AB1-E5B601F0B1DE*
G04*
G04*
G04 #@! TF.FilePolarity,Negative*
G04*
G01*
G75*
%ADD20R,5.6000X5.6000*%
%ADD21O,0.8000X0.2500*%
%ADD22O,0.2500X0.8000*%
%ADD23R,1.0000X0.9000*%
%ADD24R,0.9000X0.6000*%
%ADD25R,1.3970X1.1000*%
%ADD26R,0.9000X1.0000*%
%ADD27R,1.2700X1.3970*%
%ADD28R,1.5240X1.6510*%
%ADD29R,2.6000X3.5000*%
%ADD30R,0.6000X0.9000*%
%ADD32R,1.5000X3.4000*%
%ADD33R,1.0000X3.5000*%
G04:AMPARAMS|DCode=34|XSize=0.64mm|YSize=0.22mm|CornerRadius=0.0275mm|HoleSize=0mm|Usage=FLASHONLY|Rotation=0.000|XOffset=0mm|YOffset=0mm|HoleType=Round|Shape=RoundedRectangle|*
%AMROUNDEDRECTD34*
21,1,0.6400,0.1650,0,0,0.0*
21,1,0.5850,0.2200,0,0,0.0*
1,1,0.0550,0.2925,-0.0825*
1,1,0.0550,-0.2925,-0.0825*
1,1,0.0550,-0.2925,0.0825*
1,1,0.0550,0.2925,0.0825*
%
%ADD34ROUNDEDRECTD34*%
G04:AMPARAMS|DCode=35|XSize=0.22mm|YSize=0.64mm|CornerRadius=0.0275mm|HoleSize=0mm|Usage=FLASHONLY|Rotation=0.000|XOffset=0mm|YOffset=0mm|HoleType=Round|Shape=RoundedRectangle|*
%AMROUNDEDRECTD35*
21,1,0.2200,0.5850,0,0,0.0*
21,1,0.1650,0.6400,0,0,0.0*
1,1,0.0550,0.0825,-0.2925*
1,1,0.0550,-0.0825,-0.2925*
1,1,0.0550,-0.0825,0.2925*
1,1,0.0550,0.0825,0.2925*
%
%ADD35ROUNDEDRECTD35*%
%ADD36R,1.1100X0.9400*%
%ADD37R,0.9000X1.2000*%
%ADD38R,0.9000X1.2000*%
%ADD39R,2.2000X1.0500*%
%ADD40R,1.0500X1.0000*%
G04:AMPARAMS|DCode=41|XSize=1.3mm|YSize=0.6mm|CornerRadius=0.075mm|HoleSize=0mm|Usage=FLASHONLY|Rotation=0.000|XOffset=0mm|YOffset=0mm|HoleType=Round|Shape=RoundedRectangle|*
%AMROUNDEDRECTD41*
21,1,1.3000,0.4500,0,0,0.0*
21,1,1.1500,0.6000,0,0,0.0*
1,1,0.1500,0.5750,-0.2250*
1,1,0.1500,-0.5750,-0.2250*
1,1,0.1500,-0.5750,0.2250*
1,1,0.1500,0.5750,0.2250*
%
%ADD41ROUNDEDRECTD41*%
G04:AMPARAMS|DCode=42|XSize=1.3mm|YSize=1.1mm|CornerRadius=0.055mm|HoleSize=0mm|Usage=FLASHONLY|Rotation=270.000|XOffset=0mm|YOffset=0mm|HoleType=Round|Shape=RoundedRectangle|*
%AMROUNDEDRECTD42*
21,1,1.3000,0.9900,0,0,270.0*
21,1,1.1900,1.1000,0,0,270.0*
1,1,0.1100,-0.4950,-0.5950*
1,1,0.1100,-0.4950,0.5950*
1,1,0.1100,0.4950,0.5950*
1,1,0.1100,0.4950,-0.5950*
%
%ADD42ROUNDEDRECTD42*%
%ADD43R,1.1000X2.6000*%
%ADD44R,1.1000X2.8000*%
%ADD45R,0.6000X1.3000*%
%ADD46R,0.3000X1.3000*%
%ADD47R,1.3000X1.5500*%
%ADD48R,0.8000X0.9000*%
%ADD49O,0.8000X1.8000*%
%ADD50R,0.8000X0.8000*%
%ADD51R,0.6500X2.3000*%
%ADD52R,0.6500X2.2000*%
%ADD53R,0.3500X0.5000*%
G04:AMPARAMS|DCode=54|XSize=1.21mm|YSize=0.73mm|CornerRadius=0.0657mm|HoleSize=0mm|Usage=FLASHONLY|Rotation=90.000|XOffset=0mm|YOffset=0mm|HoleType=Round|Shape=RoundedRectangle|*
%AMROUNDEDRECTD54*
21,1,1.2100,0.5986,0,0,90.0*
21,1,1.0786,0.7300,0,0,90.0*
1,1,0.1314,0.2993,0.5393*
1,1,0.1314,0.2993,-0.5393*
1,1,0.1314,-0.2993,-0.5393*
1,1,0.1314,-0.2993,0.5393*
%
%ADD54ROUNDEDRECTD54*%
%ADD55R,1.7000X1.5400*%
%ADD56C,1.6000*%
%ADD57R,1.6000X1.6000*%
%ADD58R,1.6000X1.6000*%
%ADD59C,1.7780*%
%ADD60O,0.8000X1.6000*%
%ADD61O,1.0500X2.1000*%
%ADD62C,0.6500*%
%ADD63C,4.0000*%
%ADD64C,0.5000*%
%ADD65C,0.7000*%
%ADD66C,0.6000*%
%ADD67C,0.8000*%
%ADD68C,0.9000*%
G36*
X200900Y296550D02*
X197100D01*
Y303950D01*
X200900D01*
Y296550D01*
D02*
G37*
G36*
X195900D02*
X192100D01*
Y303950D01*
X195900D01*
Y296550D01*
D02*
G37*
G36*
X190900D02*
X187100D01*
Y303950D01*
X190900D01*
Y296550D01*
D02*
G37*
G36*
X185900D02*
X182100D01*
Y303950D01*
X185900D01*
Y296550D01*
D02*
G37*
G36*
X180900D02*
X177100D01*
Y303950D01*
X180900D01*
Y296550D01*
D02*
G37*
G36*
X201700Y290700D02*
X206700D01*
Y286800D01*
X201700D01*
Y285700D01*
X206700D01*
Y281800D01*
X201700D01*
Y277300D01*
X176300D01*
Y281800D01*
X171300D01*
Y285700D01*
X176300D01*
Y286800D01*
X171300D01*
Y290700D01*
X176300D01*
Y295200D01*
X201700D01*
Y290700D01*
D02*
G37*
G36*
X200900Y268550D02*
X197100D01*
Y275950D01*
X200900D01*
Y268550D01*
D02*
G37*
G36*
X195900D02*
X192100D01*
Y275950D01*
X195900D01*
Y268550D01*
D02*
G37*
G36*
X190900D02*
X187100D01*
Y275950D01*
X190900D01*
Y268550D01*
D02*
G37*
G36*
X185900D02*
X182100D01*
Y275950D01*
X185900D01*
Y268550D01*
D02*
G37*
G36*
X180900D02*
X177100D01*
Y275950D01*
X180900D01*
Y268550D01*
D02*
G37*
D20*
X338750Y407250D02*
D03*
D21*
X304750Y379750D02*
D03*
Y384750D02*
D03*
Y389750D02*
D03*
Y394750D02*
D03*
Y399750D02*
D03*
Y404750D02*
D03*
Y409750D02*
D03*
Y414750D02*
D03*
Y419750D02*
D03*
Y424750D02*
D03*
Y429750D02*
D03*
Y434750D02*
D03*
X372750D02*
D03*
Y429750D02*
D03*
Y424750D02*
D03*
Y419750D02*
D03*
Y414750D02*
D03*
Y409750D02*
D03*
Y404750D02*
D03*
Y399750D02*
D03*
Y394750D02*
D03*
Y389750D02*
D03*
Y384750D02*
D03*
Y379750D02*
D03*
D22*
X311250Y441250D02*
D03*
X316250D02*
D03*
X321250D02*
D03*
X326250D02*
D03*
X331250D02*
D03*
X336250D02*
D03*
X341250D02*
D03*
X346250D02*
D03*
X351250D02*
D03*
X356250D02*
D03*
X361250D02*
D03*
X366250D02*
D03*
Y373250D02*
D03*
X361250D02*
D03*
X356250D02*
D03*
X351250D02*
D03*
X346250D02*
D03*
X341250D02*
D03*
X336250D02*
D03*
X331250D02*
D03*
X326250D02*
D03*
X321250D02*
D03*
X316250D02*
D03*
X311250D02*
D03*
D23*
X400999Y305309D02*
D03*
Y321309D02*
D03*
X201000Y389000D02*
D03*
Y373000D02*
D03*
X543000Y251500D02*
D03*
Y235500D02*
D03*
X294500Y127250D02*
D03*
Y143250D02*
D03*
X527000Y235500D02*
D03*
Y251500D02*
D03*
X587250Y61250D02*
D03*
Y77250D02*
D03*
X621250D02*
D03*
Y61250D02*
D03*
X511000Y77000D02*
D03*
Y61000D02*
D03*
X322500Y318250D02*
D03*
Y334250D02*
D03*
X54000Y382000D02*
D03*
Y366000D02*
D03*
X511000Y235500D02*
D03*
Y251500D02*
D03*
X391500Y450750D02*
D03*
Y434750D02*
D03*
X559000Y251500D02*
D03*
Y235500D02*
D03*
X87000Y366000D02*
D03*
Y382000D02*
D03*
X604250Y61250D02*
D03*
Y77250D02*
D03*
X182750Y337500D02*
D03*
Y321500D02*
D03*
X540500Y61250D02*
D03*
Y77250D02*
D03*
X362750Y202250D02*
D03*
Y218250D02*
D03*
X304000Y334250D02*
D03*
Y318250D02*
D03*
D24*
X525750Y78250D02*
D03*
X525751Y60091D02*
D03*
X251999Y143909D02*
D03*
X252000Y125750D02*
D03*
X555249Y78268D02*
D03*
X555250Y60109D02*
D03*
X392250Y219141D02*
D03*
X392251Y200982D02*
D03*
X265499Y143909D02*
D03*
X265500Y125750D02*
D03*
X70500Y364750D02*
D03*
X70499Y382909D02*
D03*
X319999Y219268D02*
D03*
X320000Y201109D02*
D03*
X184501Y125732D02*
D03*
X184500Y143891D02*
D03*
X347250Y201109D02*
D03*
X347249Y219268D02*
D03*
X82250Y483891D02*
D03*
X82251Y465732D02*
D03*
X637001Y59982D02*
D03*
X637000Y78141D02*
D03*
X211499Y143909D02*
D03*
X211500Y125750D02*
D03*
X417500Y322141D02*
D03*
X417501Y303982D02*
D03*
X103501Y364732D02*
D03*
X103500Y382891D02*
D03*
X224999Y143909D02*
D03*
X225000Y125750D02*
D03*
X574500Y234609D02*
D03*
X574499Y252768D02*
D03*
X52749Y483659D02*
D03*
X52750Y465500D02*
D03*
X279000Y125859D02*
D03*
X278999Y144018D02*
D03*
X306499Y219268D02*
D03*
X306500Y201109D02*
D03*
X378250Y219141D02*
D03*
X378251Y200982D02*
D03*
X170999Y144018D02*
D03*
X171000Y125859D02*
D03*
X333750Y219141D02*
D03*
X333751Y200982D02*
D03*
X588249Y252768D02*
D03*
X588250Y234609D02*
D03*
X67500Y483891D02*
D03*
X67501Y465732D02*
D03*
X384499Y322268D02*
D03*
X384500Y304109D02*
D03*
X197999Y143909D02*
D03*
X198000Y125750D02*
D03*
X199250Y338500D02*
D03*
X199251Y320341D02*
D03*
X238499Y143909D02*
D03*
X238500Y125750D02*
D03*
D25*
X411502Y455749D02*
D03*
Y435749D02*
D03*
X99752Y464749D02*
D03*
Y484749D02*
D03*
X274498Y352501D02*
D03*
Y332501D02*
D03*
D26*
X121500Y382250D02*
D03*
X137500D02*
D03*
X277000Y370250D02*
D03*
X261000D02*
D03*
X297000Y458000D02*
D03*
X313000D02*
D03*
X472000Y435250D02*
D03*
X456000D02*
D03*
X358750Y345750D02*
D03*
X374750D02*
D03*
X119000Y447000D02*
D03*
X135000D02*
D03*
X345750Y275000D02*
D03*
X361750D02*
D03*
D27*
X652750Y258250D02*
D03*
X675610D02*
D03*
X109140Y246250D02*
D03*
X132000D02*
D03*
X109390Y225500D02*
D03*
X132250D02*
D03*
D28*
X362485Y159500D02*
D03*
X395505D02*
D03*
X273755Y303500D02*
D03*
X240735D02*
D03*
X273505Y258500D02*
D03*
X240485D02*
D03*
X273755Y281000D02*
D03*
X240735D02*
D03*
X137765Y297000D02*
D03*
X104745D02*
D03*
X137765Y273000D02*
D03*
X104745D02*
D03*
X436735Y456000D02*
D03*
X469755D02*
D03*
D29*
X224250Y215250D02*
D03*
X160750D02*
D03*
D30*
X135964Y430472D02*
D03*
X117806Y430471D02*
D03*
X454859Y418750D02*
D03*
X473018Y418751D02*
D03*
X119482Y349999D02*
D03*
X137641Y350000D02*
D03*
X473018Y359751D02*
D03*
X454859Y359750D02*
D03*
X473018Y300751D02*
D03*
X454859Y300750D02*
D03*
X119732Y365249D02*
D03*
X137891Y365250D02*
D03*
X473018Y404001D02*
D03*
X454859Y404000D02*
D03*
X473000Y345000D02*
D03*
X454841Y344999D02*
D03*
X473018Y389251D02*
D03*
X454859Y389250D02*
D03*
X473018Y315501D02*
D03*
X454859Y315500D02*
D03*
X135891Y415750D02*
D03*
X117732Y415749D02*
D03*
X473018Y374501D02*
D03*
X454859Y374500D02*
D03*
X259232Y397249D02*
D03*
X277391Y397250D02*
D03*
X473000Y330250D02*
D03*
X454841Y330249D02*
D03*
D32*
X284500Y42500D02*
D03*
X351500D02*
D03*
D33*
X328000Y100000D02*
D03*
X308000D02*
D03*
D34*
X60550Y435000D02*
D03*
X91450Y415000D02*
D03*
Y435000D02*
D03*
Y431000D02*
D03*
Y427000D02*
D03*
Y423000D02*
D03*
Y419000D02*
D03*
X60550Y415000D02*
D03*
Y419000D02*
D03*
Y423000D02*
D03*
Y427000D02*
D03*
Y431000D02*
D03*
D35*
X70000Y409550D02*
D03*
X82000Y440450D02*
D03*
X70000D02*
D03*
X66000D02*
D03*
X78000D02*
D03*
X86000D02*
D03*
Y409550D02*
D03*
X82000D02*
D03*
X78000D02*
D03*
X74000D02*
D03*
X66000D02*
D03*
X74000Y440450D02*
D03*
D36*
X570250Y61360D02*
D03*
Y77140D02*
D03*
D37*
X246510Y236750D02*
D03*
D38*
X276990D02*
D03*
D39*
X665000Y77000D02*
D03*
Y106500D02*
D03*
D40*
X649750Y91750D02*
D03*
D41*
X614500Y235000D02*
D03*
Y254000D02*
D03*
X635000Y244500D02*
D03*
D42*
X363000Y318000D02*
D03*
X344000Y295000D02*
D03*
Y318000D02*
D03*
X363000Y295000D02*
D03*
D43*
X637500Y459000D02*
D03*
X657500D02*
D03*
X677500Y305000D02*
D03*
X537500D02*
D03*
X657500D02*
D03*
X597500Y459000D02*
D03*
X617500Y305000D02*
D03*
Y459000D02*
D03*
X597500Y305000D02*
D03*
X637500D02*
D03*
X577500D02*
D03*
X557500D02*
D03*
X537500Y459000D02*
D03*
X557500D02*
D03*
X577500D02*
D03*
D44*
X677500Y458000D02*
D03*
D45*
X250100Y96400D02*
D03*
X186100D02*
D03*
X242100D02*
D03*
X194100D02*
D03*
D46*
X220600D02*
D03*
X210600D02*
D03*
X215600D02*
D03*
X225600D02*
D03*
X235600D02*
D03*
X230600D02*
D03*
X200600D02*
D03*
X205600D02*
D03*
D47*
X479750Y127250D02*
D03*
Y47750D02*
D03*
X434750Y127250D02*
D03*
Y47750D02*
D03*
D48*
X324500Y137000D02*
D03*
X334000Y157000D02*
D03*
X343500Y137000D02*
D03*
D49*
X551000Y205000D02*
D03*
X628000D02*
D03*
X562000Y108000D02*
D03*
X540000D02*
D03*
Y205000D02*
D03*
X617000D02*
D03*
X606000D02*
D03*
X595000D02*
D03*
X584000D02*
D03*
X573000D02*
D03*
X562000D02*
D03*
X551000Y108000D02*
D03*
X573000D02*
D03*
X584000D02*
D03*
X595000D02*
D03*
X606000D02*
D03*
X617000D02*
D03*
X628000D02*
D03*
D50*
Y134500D02*
D03*
Y145500D02*
D03*
Y156500D02*
D03*
Y167500D02*
D03*
Y178500D02*
D03*
X540000D02*
D03*
Y167500D02*
D03*
Y156500D02*
D03*
Y145500D02*
D03*
Y134500D02*
D03*
D51*
X446000Y168500D02*
D03*
D52*
X461000Y168000D02*
D03*
D53*
X193500Y404500D02*
D03*
X206500D02*
D03*
X193500Y420500D02*
D03*
X200000Y404500D02*
D03*
X213000D02*
D03*
Y420500D02*
D03*
X206500D02*
D03*
X200000D02*
D03*
D54*
X507000Y196600D02*
D03*
Y163000D02*
D03*
D55*
X76000Y425000D02*
D03*
D56*
X54600Y171400D02*
D03*
X80000Y196800D02*
D03*
X54600D02*
D03*
Y146000D02*
D03*
X80000D02*
D03*
X54600Y95200D02*
D03*
X80000Y171400D02*
D03*
X54600Y120600D02*
D03*
X80000D02*
D03*
X693000Y189750D02*
D03*
X667600Y215150D02*
D03*
X693000D02*
D03*
X249600Y526600D02*
D03*
X300400Y552000D02*
D03*
X554400Y526600D02*
D03*
Y552000D02*
D03*
X656000Y526600D02*
D03*
X630600D02*
D03*
Y552000D02*
D03*
X529000Y526600D02*
D03*
Y552000D02*
D03*
X351200Y526600D02*
D03*
X275000D02*
D03*
X148000D02*
D03*
X173400D02*
D03*
X122600D02*
D03*
Y552000D02*
D03*
X579800D02*
D03*
Y526600D02*
D03*
X605200Y552000D02*
D03*
Y526600D02*
D03*
X376600D02*
D03*
X148000Y552000D02*
D03*
X173400D02*
D03*
X198800D02*
D03*
X224200D02*
D03*
X249600D02*
D03*
X275000D02*
D03*
X325800D02*
D03*
X351200D02*
D03*
X376600D02*
D03*
X402000D02*
D03*
X427400D02*
D03*
X452800D02*
D03*
X478200D02*
D03*
X503600D02*
D03*
X198800Y526600D02*
D03*
X224200D02*
D03*
X300400D02*
D03*
X325800D02*
D03*
X402000D02*
D03*
X427400D02*
D03*
X452800D02*
D03*
X478200D02*
D03*
X503600D02*
D03*
D57*
X80000Y95200D02*
D03*
D58*
X667600Y189750D02*
D03*
X656000Y552000D02*
D03*
D59*
X386750Y50850D02*
D03*
X386750Y76250D02*
D03*
D60*
X261300Y48200D02*
D03*
X174900D02*
D03*
D61*
X261300Y90000D02*
D03*
X174900D02*
D03*
D62*
X247000Y85000D02*
D03*
X189200D02*
D03*
D63*
X704500Y580000D02*
D03*
Y46250D02*
D03*
X67500Y580000D02*
D03*
Y46250D02*
D03*
D64*
X500750Y286000D02*
D03*
X516250Y321500D02*
D03*
X270000Y199250D02*
D03*
X277896Y202896D02*
D03*
X286750Y169736D02*
D03*
X299500Y180500D02*
D03*
X404750Y218750D02*
D03*
X363000Y250250D02*
D03*
X256025Y430994D02*
D03*
X255500Y445750D02*
D03*
X255500Y438005D02*
D03*
X261750Y409750D02*
D03*
X258750Y417000D02*
D03*
X255750Y424000D02*
D03*
X184500Y420500D02*
D03*
X152750Y422750D02*
D03*
X344000Y494750D02*
D03*
X360000D02*
D03*
X367000Y497000D02*
D03*
X378250Y449250D02*
D03*
X333250Y477000D02*
D03*
X334066Y468934D02*
D03*
X400500Y474750D02*
D03*
X357500Y357000D02*
D03*
X363320Y361328D02*
D03*
X342000Y343250D02*
D03*
X312000Y355000D02*
D03*
X324000Y345500D02*
D03*
X317500Y349500D02*
D03*
X360750Y429250D02*
D03*
Y418250D02*
D03*
Y407250D02*
D03*
Y396250D02*
D03*
Y385250D02*
D03*
X349750Y429250D02*
D03*
Y418250D02*
D03*
Y407250D02*
D03*
Y396250D02*
D03*
Y385250D02*
D03*
X338750Y429250D02*
D03*
Y418250D02*
D03*
Y407250D02*
D03*
Y396250D02*
D03*
Y385250D02*
D03*
X327750Y429250D02*
D03*
Y418250D02*
D03*
Y407250D02*
D03*
Y396250D02*
D03*
Y385250D02*
D03*
X316750Y429250D02*
D03*
Y418250D02*
D03*
Y407250D02*
D03*
Y396250D02*
D03*
Y385250D02*
D03*
X601250Y184000D02*
D03*
X614000D02*
D03*
X440500Y419250D02*
D03*
X392500Y178000D02*
D03*
X108250Y414750D02*
D03*
Y432000D02*
D03*
X70500Y457000D02*
D03*
X62750Y451000D02*
D03*
X157500Y492000D02*
D03*
X286972Y496722D02*
D03*
X289500Y503250D02*
D03*
X354000Y474500D02*
D03*
X345566Y474839D02*
D03*
X440500Y404000D02*
D03*
X439250Y411750D02*
D03*
X433250Y406250D02*
D03*
X430000Y399250D02*
D03*
X440500Y389000D02*
D03*
X414750Y367250D02*
D03*
X440750Y332250D02*
D03*
X189000Y290060D02*
D03*
X196620Y286250D02*
D03*
X181380D02*
D03*
X189000Y282440D02*
D03*
X441000Y316000D02*
D03*
D65*
X246500Y212250D02*
D03*
X647750Y60250D02*
D03*
X256250Y206750D02*
D03*
X363250Y186750D02*
D03*
X198250Y116750D02*
D03*
X551000Y221500D02*
D03*
X338250Y123000D02*
D03*
X439750Y304750D02*
D03*
X410000Y245250D02*
D03*
X401000Y260250D02*
D03*
X343250Y179000D02*
D03*
X493000Y466250D02*
D03*
X189000Y174500D02*
D03*
X398115Y333615D02*
D03*
X242500Y447250D02*
D03*
X138000Y395750D02*
D03*
X141000Y467750D02*
D03*
X223750Y411250D02*
D03*
X243500Y405750D02*
D03*
X237500Y496750D02*
D03*
X287250Y237000D02*
D03*
X118750Y465000D02*
D03*
X447000Y140500D02*
D03*
X209250Y457000D02*
D03*
X320250Y248250D02*
D03*
X55000Y395000D02*
D03*
D66*
X287250Y158500D02*
D03*
X189000Y238500D02*
D03*
X290493Y365243D02*
D03*
X178250Y363500D02*
D03*
X163750Y313000D02*
D03*
D67*
X151000Y142750D02*
D03*
D68*
X138000Y329000D02*
D03*
M02*
